<svg xmlns="http://www.w3.org/2000/svg" xmlns:xlink="http://www.w3.org/1999/xlink" width="500" zoomAndPan="magnify" viewBox="0 0 375 374.999991" height="500" preserveAspectRatio="xMidYMid meet" version="1.0"><defs><clipPath id="a6801f3ab3"><path d="M 23.996094 68.839844 L 351.246094 68.839844 L 351.246094 306.160156 L 23.996094 306.160156 Z M 23.996094 68.839844 " clip-rule="nonzero"/></clipPath><clipPath id="a2ae2a391d"><path d="M 41.246094 68.839844 L 333.753906 68.839844 C 343.277344 68.839844 351.003906 76.5625 351.003906 86.089844 L 351.003906 288.910156 C 351.003906 298.4375 343.277344 306.160156 333.753906 306.160156 L 41.246094 306.160156 C 31.722656 306.160156 23.996094 298.4375 23.996094 288.910156 L 23.996094 86.089844 C 23.996094 76.5625 31.722656 68.839844 41.246094 68.839844 Z M 41.246094 68.839844 " clip-rule="nonzero"/></clipPath><clipPath id="a112c71a41"><path d="M 23.996094 206.425781 L 351 206.425781 L 351 306.160156 L 23.996094 306.160156 Z M 23.996094 206.425781 " clip-rule="nonzero"/></clipPath><clipPath id="5363b2efb7"><path d="M 41.246094 206.425781 L 333.753906 206.425781 C 343.277344 206.425781 351.003906 214.148438 351.003906 223.675781 L 351.003906 288.910156 C 351.003906 298.4375 343.277344 306.160156 333.753906 306.160156 L 41.246094 306.160156 C 31.722656 306.160156 23.996094 298.4375 23.996094 288.910156 L 23.996094 223.675781 C 23.996094 214.148438 31.722656 206.425781 41.246094 206.425781 Z M 41.246094 206.425781 " clip-rule="nonzero"/></clipPath><clipPath id="fc773d6b8c"><path d="M 23.996094 132.28125 L 351 132.28125 L 351 256.292969 L 23.996094 256.292969 Z M 23.996094 132.28125 " clip-rule="nonzero"/></clipPath><clipPath id="8a1645f3c8"><path d="M 153.320312 276.621094 L 221.714844 276.621094 L 221.714844 285.671875 L 153.320312 285.671875 Z M 153.320312 276.621094 " clip-rule="nonzero"/></clipPath><clipPath id="afa0dd7e91"><path d="M 157.84375 276.621094 L 217.15625 276.621094 C 219.652344 276.621094 221.679688 278.648438 221.679688 281.148438 C 221.679688 283.644531 219.652344 285.671875 217.15625 285.671875 L 157.84375 285.671875 C 155.347656 285.671875 153.320312 283.644531 153.320312 281.148438 C 153.320312 278.648438 155.347656 276.621094 157.84375 276.621094 Z M 157.84375 276.621094 " clip-rule="nonzero"/></clipPath><clipPath id="7324940295"><path d="M 38.785156 99.914062 L 336.214844 99.914062 L 336.214844 256.042969 L 38.785156 256.042969 Z M 38.785156 99.914062 " clip-rule="nonzero"/></clipPath><clipPath id="7cc7b55a2e"><path d="M 61.273438 108.726562 L 128 108.726562 L 128 221 L 61.273438 221 Z M 61.273438 108.726562 " clip-rule="nonzero"/></clipPath><clipPath id="17c1084403"><path d="M 79 108.726562 L 193.710938 108.726562 L 193.710938 241.164062 L 79 241.164062 Z M 79 108.726562 " clip-rule="nonzero"/></clipPath><clipPath id="de646d40d5"><path d="M 215.113281 108.726562 L 313.871094 108.726562 L 313.871094 150.171875 L 215.113281 150.171875 Z M 215.113281 108.726562 " clip-rule="nonzero"/></clipPath><clipPath id="0ffdd78e3f"><path d="M 221.113281 108.726562 L 307.726562 108.726562 C 311.039062 108.726562 313.726562 111.414062 313.726562 114.726562 L 313.726562 144.171875 C 313.726562 147.484375 311.039062 150.171875 307.726562 150.171875 L 221.113281 150.171875 C 217.800781 150.171875 215.113281 147.484375 215.113281 144.171875 L 215.113281 114.726562 C 215.113281 111.414062 217.800781 108.726562 221.113281 108.726562 Z M 221.113281 108.726562 " clip-rule="nonzero"/></clipPath><clipPath id="0e8f3f42d4"><path d="M 215.113281 158.640625 L 281.183594 158.640625 L 281.183594 175.289062 L 215.113281 175.289062 Z M 215.113281 158.640625 " clip-rule="nonzero"/></clipPath><clipPath id="6857e32467"><path d="M 216.613281 158.640625 L 279.621094 158.640625 C 280.019531 158.640625 280.402344 158.796875 280.683594 159.078125 C 280.964844 159.359375 281.121094 159.742188 281.121094 160.140625 L 281.121094 173.789062 C 281.121094 174.183594 280.964844 174.566406 280.683594 174.847656 C 280.402344 175.128906 280.019531 175.289062 279.621094 175.289062 L 216.613281 175.289062 C 216.21875 175.289062 215.835938 175.128906 215.554688 174.847656 C 215.273438 174.566406 215.113281 174.183594 215.113281 173.789062 L 215.113281 160.140625 C 215.113281 159.742188 215.273438 159.359375 215.554688 159.078125 C 215.835938 158.796875 216.21875 158.640625 216.613281 158.640625 Z M 216.613281 158.640625 " clip-rule="nonzero"/></clipPath><clipPath id="72e8af25b1"><path d="M 215.113281 185.175781 L 304.722656 185.175781 L 304.722656 201.824219 L 215.113281 201.824219 Z M 215.113281 185.175781 " clip-rule="nonzero"/></clipPath><clipPath id="2e5f87cfdd"><path d="M 216.613281 185.175781 L 303.214844 185.175781 C 303.613281 185.175781 303.992188 185.335938 304.273438 185.617188 C 304.554688 185.898438 304.714844 186.277344 304.714844 186.675781 L 304.714844 200.324219 C 304.714844 200.722656 304.554688 201.101562 304.273438 201.382812 C 303.992188 201.664062 303.613281 201.824219 303.214844 201.824219 L 216.613281 201.824219 C 216.21875 201.824219 215.835938 201.664062 215.554688 201.382812 C 215.273438 201.101562 215.113281 200.722656 215.113281 200.324219 L 215.113281 186.675781 C 215.113281 186.277344 215.273438 185.898438 215.554688 185.617188 C 215.835938 185.335938 216.21875 185.175781 216.613281 185.175781 Z M 216.613281 185.175781 " clip-rule="nonzero"/></clipPath><clipPath id="2894f808df"><path d="M 215.113281 212.011719 L 254.160156 212.011719 L 254.160156 247.835938 L 215.113281 247.835938 Z M 215.113281 212.011719 " clip-rule="nonzero"/></clipPath><clipPath id="6eac5c4a9f"><path d="M 218.863281 212.011719 L 250.332031 212.011719 C 252.402344 212.011719 254.082031 213.691406 254.082031 215.761719 L 254.082031 244.085938 C 254.082031 246.160156 252.402344 247.835938 250.332031 247.835938 L 218.863281 247.835938 C 216.792969 247.835938 215.113281 246.160156 215.113281 244.085938 L 215.113281 215.761719 C 215.113281 213.691406 216.792969 212.011719 218.863281 212.011719 Z M 218.863281 212.011719 " clip-rule="nonzero"/></clipPath><clipPath id="8f137aa00f"><path d="M 265.746094 212.011719 L 304.792969 212.011719 L 304.792969 247.835938 L 265.746094 247.835938 Z M 265.746094 212.011719 " clip-rule="nonzero"/></clipPath><clipPath id="30a067d8fe"><path d="M 269.496094 212.011719 L 300.964844 212.011719 C 303.035156 212.011719 304.714844 213.691406 304.714844 215.761719 L 304.714844 244.085938 C 304.714844 246.160156 303.035156 247.835938 300.964844 247.835938 L 269.496094 247.835938 C 267.425781 247.835938 265.746094 246.160156 265.746094 244.085938 L 265.746094 215.761719 C 265.746094 213.691406 267.425781 212.011719 269.496094 212.011719 Z M 269.496094 212.011719 " clip-rule="nonzero"/></clipPath></defs><g clip-path="url(#a6801f3ab3)"><g clip-path="url(#a2ae2a391d)"><path fill="#a6a6a6" d="M 23.996094 68.839844 L 351.246094 68.839844 L 351.246094 306.160156 L 23.996094 306.160156 Z M 23.996094 68.839844 " fill-opacity="1" fill-rule="nonzero"/></g></g><g clip-path="url(#a112c71a41)"><g clip-path="url(#5363b2efb7)"><path fill="#d9d9d9" d="M 23.996094 206.425781 L 350.867188 206.425781 L 350.867188 306.160156 L 23.996094 306.160156 Z M 23.996094 206.425781 " fill-opacity="1" fill-rule="nonzero"/></g></g><g clip-path="url(#fc773d6b8c)"><path fill="#a6a6a6" d="M 23.996094 132.28125 L 350.984375 132.28125 L 350.984375 256.292969 L 23.996094 256.292969 Z M 23.996094 132.28125 " fill-opacity="1" fill-rule="nonzero"/></g><g clip-path="url(#8a1645f3c8)"><g clip-path="url(#afa0dd7e91)"><path fill="#a6a6a6" d="M 153.320312 276.621094 L 221.679688 276.621094 L 221.679688 285.671875 L 153.320312 285.671875 Z M 153.320312 276.621094 " fill-opacity="1" fill-rule="nonzero"/></g></g><g clip-path="url(#7324940295)"><path fill="#264653" d="M 38.785156 99.914062 L 336.402344 99.914062 L 336.402344 256.042969 L 38.785156 256.042969 Z M 38.785156 99.914062 " fill-opacity="1" fill-rule="nonzero"/></g><g clip-path="url(#7cc7b55a2e)"><path fill="#2a9d8f" d="M 87.921875 175.261719 C 87.921875 173.957031 87.988281 172.652344 88.117188 171.351562 C 88.246094 170.050781 88.4375 168.757812 88.691406 167.476562 C 88.945312 166.191406 89.261719 164.925781 89.644531 163.675781 C 90.023438 162.425781 90.460938 161.195312 90.964844 159.988281 C 91.464844 158.777344 92.023438 157.597656 92.636719 156.445312 C 93.253906 155.292969 93.925781 154.171875 94.652344 153.085938 C 95.378906 152 96.15625 150.949219 96.984375 149.9375 C 97.816406 148.929688 98.691406 147.960938 99.617188 147.035156 C 100.539062 146.113281 101.507812 145.234375 102.519531 144.40625 C 103.53125 143.578125 104.578125 142.796875 105.664062 142.070312 C 106.753906 141.34375 107.871094 140.675781 109.027344 140.058594 C 110.179688 139.441406 111.359375 138.882812 112.566406 138.382812 C 113.773438 137.882812 115.003906 137.441406 116.253906 137.0625 C 117.507812 136.683594 118.773438 136.367188 120.054688 136.109375 C 121.335938 135.855469 122.628906 135.664062 123.929688 135.535156 C 125.230469 135.40625 126.535156 135.34375 127.84375 135.34375 L 127.851562 135.34375 L 127.851562 108.726562 L 127.84375 108.726562 C 91.101562 108.726562 61.3125 138.519531 61.3125 175.261719 C 61.308594 179.441406 61.695312 183.582031 62.472656 187.6875 C 63.25 191.792969 64.40625 195.789062 65.941406 199.671875 C 67.476562 203.558594 69.359375 207.269531 71.59375 210.796875 C 73.828125 214.328125 76.375 217.617188 79.230469 220.664062 L 98.691406 202.476562 C 96.976562 200.648438 95.449219 198.679688 94.105469 196.5625 C 92.765625 194.449219 91.632812 192.226562 90.710938 189.894531 C 89.789062 187.566406 89.09375 185.171875 88.625 182.710938 C 88.15625 180.25 87.921875 177.769531 87.921875 175.261719 Z M 87.921875 175.261719 " fill-opacity="1" fill-rule="nonzero"/></g><g clip-path="url(#17c1084403)"><path fill="#f4a261" d="M 127.851562 108.726562 L 127.851562 135.34375 C 128.675781 135.34375 129.5 135.367188 130.320312 135.417969 C 131.144531 135.464844 131.964844 135.542969 132.785156 135.644531 C 133.601562 135.742188 134.417969 135.871094 135.226562 136.019531 C 136.035156 136.171875 136.84375 136.347656 137.640625 136.550781 C 138.441406 136.75 139.234375 136.976562 140.019531 137.226562 C 140.804688 137.476562 141.582031 137.75 142.351562 138.050781 C 143.121094 138.347656 143.878906 138.667969 144.625 139.015625 C 145.375 139.359375 146.113281 139.726562 146.839844 140.117188 C 147.5625 140.511719 148.277344 140.921875 148.976562 141.359375 C 149.675781 141.792969 150.363281 142.25 151.035156 142.726562 C 151.707031 143.207031 152.363281 143.703125 153.003906 144.222656 C 153.644531 144.738281 154.269531 145.277344 154.878906 145.835938 C 155.484375 146.390625 156.078125 146.96875 156.648438 147.5625 C 157.21875 148.15625 157.773438 148.765625 158.308594 149.394531 C 158.84375 150.019531 159.355469 150.664062 159.851562 151.324219 C 160.34375 151.984375 160.820312 152.660156 161.273438 153.347656 C 161.722656 154.035156 162.15625 154.738281 162.566406 155.457031 C 162.972656 156.171875 163.359375 156.898438 163.722656 157.636719 C 164.089844 158.378906 164.429688 159.128906 164.746094 159.890625 C 165.0625 160.648438 165.359375 161.421875 165.628906 162.199219 C 165.898438 162.976562 166.144531 163.765625 166.363281 164.558594 C 166.585938 165.351562 166.78125 166.152344 166.953125 166.960938 C 167.125 167.765625 167.269531 168.578125 167.390625 169.394531 C 167.511719 170.207031 167.609375 171.027344 167.679688 171.847656 C 167.75 172.667969 167.796875 173.492188 167.816406 174.316406 C 167.835938 175.140625 167.828125 175.964844 167.796875 176.789062 C 167.765625 177.613281 167.710938 178.433594 167.625 179.253906 C 167.542969 180.074219 167.4375 180.890625 167.304688 181.707031 C 167.171875 182.519531 167.011719 183.328125 166.828125 184.132812 C 166.644531 184.9375 166.4375 185.734375 166.207031 186.523438 C 165.972656 187.316406 165.714844 188.097656 165.4375 188.875 C 165.15625 189.648438 164.851562 190.414062 164.519531 191.171875 C 164.191406 191.925781 163.839844 192.671875 163.464844 193.40625 C 163.09375 194.140625 162.695312 194.863281 162.277344 195.574219 C 161.855469 196.28125 161.414062 196.980469 160.953125 197.660156 C 160.492188 198.34375 160.007812 199.011719 159.503906 199.664062 C 159 200.316406 158.476562 200.953125 157.933594 201.574219 C 157.390625 202.191406 156.828125 202.796875 156.246094 203.382812 C 155.667969 203.964844 155.066406 204.535156 154.453125 205.082031 C 153.835938 205.628906 153.203125 206.160156 152.554688 206.667969 C 151.90625 207.175781 151.242188 207.664062 150.566406 208.132812 C 149.886719 208.601562 149.195312 209.046875 148.488281 209.472656 C 147.78125 209.898438 147.0625 210.300781 146.332031 210.679688 C 145.597656 211.0625 144.855469 211.417969 144.101562 211.753906 C 143.347656 212.089844 142.585938 212.398438 141.8125 212.6875 C 141.039062 212.972656 140.257812 213.238281 139.46875 213.476562 C 138.679688 213.714844 137.886719 213.929688 137.082031 214.117188 C 136.28125 214.308594 135.472656 214.472656 134.660156 214.613281 C 133.847656 214.75 133.03125 214.867188 132.210938 214.953125 C 131.394531 215.042969 130.570312 215.105469 129.746094 215.144531 C 128.925781 215.183594 128.101562 215.195312 127.277344 215.183594 C 126.453125 215.167969 125.628906 215.132812 124.804688 215.066406 C 123.984375 215.003906 123.164062 214.914062 122.347656 214.800781 C 121.53125 214.683594 120.71875 214.542969 119.914062 214.378906 C 119.105469 214.214844 118.304688 214.023438 117.507812 213.808594 C 116.710938 213.59375 115.921875 213.355469 115.140625 213.09375 C 114.359375 212.828125 113.585938 212.542969 112.824219 212.230469 C 112.0625 211.917969 111.308594 211.582031 110.566406 211.226562 C 109.824219 210.867188 109.09375 210.488281 108.371094 210.082031 C 107.652344 209.679688 106.949219 209.253906 106.253906 208.808594 C 105.5625 208.359375 104.882812 207.894531 104.21875 207.402344 C 103.558594 206.914062 102.910156 206.40625 102.277344 205.875 C 101.644531 205.347656 101.03125 204.796875 100.429688 204.230469 C 99.832031 203.664062 99.253906 203.078125 98.691406 202.476562 L 79.230469 220.664062 C 80.78125 222.328125 82.410156 223.910156 84.125 225.40625 C 85.835938 226.902344 87.621094 228.308594 89.476562 229.621094 C 91.332031 230.933594 93.253906 232.148438 95.234375 233.265625 C 97.214844 234.382812 99.25 235.394531 101.335938 236.300781 C 103.417969 237.207031 105.546875 238.003906 107.714844 238.691406 C 109.882812 239.378906 112.078125 239.957031 114.304688 240.417969 C 116.53125 240.878906 118.777344 241.226562 121.039062 241.457031 C 123.300781 241.6875 125.570312 241.804688 127.84375 241.800781 C 164.59375 241.800781 194.378906 212.007812 194.378906 175.265625 C 194.378906 138.519531 164.59375 108.726562 127.851562 108.726562 Z M 127.851562 108.726562 " fill-opacity="1" fill-rule="nonzero"/></g><g clip-path="url(#de646d40d5)"><g clip-path="url(#0ffdd78e3f)"><path fill="#e76f51" d="M 215.113281 108.726562 L 313.707031 108.726562 L 313.707031 150.171875 L 215.113281 150.171875 Z M 215.113281 108.726562 " fill-opacity="1" fill-rule="nonzero"/></g></g><g clip-path="url(#0e8f3f42d4)"><g clip-path="url(#6857e32467)"><path fill="#2a9d8f" d="M 215.113281 158.640625 L 281.117188 158.640625 L 281.117188 175.289062 L 215.113281 175.289062 Z M 215.113281 158.640625 " fill-opacity="1" fill-rule="nonzero"/></g></g><g clip-path="url(#72e8af25b1)"><g clip-path="url(#2e5f87cfdd)"><path fill="#e9c46a" d="M 215.113281 185.175781 L 304.722656 185.175781 L 304.722656 201.824219 L 215.113281 201.824219 Z M 215.113281 185.175781 " fill-opacity="1" fill-rule="nonzero"/></g></g><g clip-path="url(#2894f808df)"><g clip-path="url(#6eac5c4a9f)"><path fill="#2a9d8f" d="M 215.113281 212.011719 L 254.019531 212.011719 L 254.019531 247.835938 L 215.113281 247.835938 Z M 215.113281 212.011719 " fill-opacity="1" fill-rule="nonzero"/></g></g><g clip-path="url(#8f137aa00f)"><g clip-path="url(#30a067d8fe)"><path fill="#f4a261" d="M 265.746094 212.011719 L 304.652344 212.011719 L 304.652344 247.835938 L 265.746094 247.835938 Z M 265.746094 212.011719 " fill-opacity="1" fill-rule="nonzero"/></g></g></svg>