<svg xmlns="http://www.w3.org/2000/svg" xmlns:xlink="http://www.w3.org/1999/xlink" width="500" zoomAndPan="magnify" viewBox="0 0 375 225" height="300" preserveAspectRatio="xMidYMid meet" version="1.0"><defs><g/><clipPath id="bf583c262d"><path d="M 157.769531 124.78125 L 217.019531 124.78125 L 217.019531 184.03125 L 157.769531 184.03125 Z M 157.769531 124.78125 " clip-rule="nonzero"/></clipPath></defs><rect x="-37.5" width="450" fill="#ffffff" y="-22.5" height="270" fill-opacity="1"/><rect x="-37.5" width="450" fill="#e76f51" y="-22.5" height="270" fill-opacity="1"/><g fill="#ffffff" fill-opacity="1"><g transform="translate(114.509038, 99.02942)"><g><path d="M 42.953125 0 L 32.3125 0 L 14.5 -26.953125 L 14.5 0 L 3.859375 0 L 3.859375 -43.703125 L 14.5 -43.703125 L 32.3125 -16.625 L 32.3125 -43.703125 L 42.953125 -43.703125 Z M 42.953125 0 "/></g></g></g><g fill="#ffffff" fill-opacity="1"><g transform="translate(161.321002, 99.02942)"><g><path d="M 14.5 -35.171875 L 14.5 -26.328125 L 28.765625 -26.328125 L 28.765625 -18.109375 L 14.5 -18.109375 L 14.5 -8.53125 L 30.625 -8.53125 L 30.625 0 L 3.859375 0 L 3.859375 -43.703125 L 30.625 -43.703125 L 30.625 -35.171875 Z M 14.5 -35.171875 "/></g></g></g><g fill="#ffffff" fill-opacity="1"><g transform="translate(194.998227, 99.02942)"><g><path d="M 64 -43.703125 L 52.59375 0 L 39.71875 0 L 32.75 -28.765625 L 25.515625 0 L 12.640625 0 L 1.5625 -43.703125 L 12.953125 -43.703125 L 19.234375 -11.890625 L 27.015625 -43.703125 L 38.71875 -43.703125 L 46.1875 -11.890625 L 52.53125 -43.703125 Z M 64 -43.703125 "/></g></g></g><g clip-path="url(#bf583c262d)"><path fill="#e9c46a" d="M 213.296875 140.085938 C 211.21875 138.007812 208.578125 136.699219 205.71875 136.300781 C 205.320312 133.441406 204.011719 130.800781 201.933594 128.722656 C 199.40625 126.195312 196.050781 124.804688 192.476562 124.804688 L 171.117188 124.804688 C 167.546875 124.804688 164.1875 126.195312 161.664062 128.722656 C 159.136719 131.246094 157.746094 134.605469 157.746094 138.175781 L 157.746094 159.539062 C 157.746094 163.109375 159.136719 166.46875 161.660156 168.992188 C 163.738281 171.070312 166.382812 172.378906 169.242188 172.777344 C 169.640625 175.636719 170.949219 178.28125 173.027344 180.355469 C 175.550781 182.882812 178.910156 184.273438 182.480469 184.273438 L 203.84375 184.273438 C 207.414062 184.273438 210.773438 182.882812 213.300781 180.355469 C 215.824219 177.832031 217.214844 174.472656 217.214844 170.902344 L 217.214844 149.539062 C 217.214844 145.96875 215.824219 142.613281 213.296875 140.085938 Z M 161.878906 159.539062 L 161.878906 138.175781 C 161.878906 135.707031 162.839844 133.386719 164.585938 131.644531 C 166.328125 129.898438 168.648438 128.9375 171.117188 128.9375 L 192.480469 128.9375 C 194.945312 128.9375 197.265625 129.898438 199.011719 131.644531 C 200.757812 133.390625 201.71875 135.707031 201.71875 138.175781 L 201.71875 159.539062 C 201.71875 162.003906 200.757812 164.324219 199.011719 166.070312 C 197.265625 167.816406 194.945312 168.777344 192.480469 168.777344 L 171.117188 168.777344 C 168.648438 168.777344 166.328125 167.816406 164.585938 166.070312 C 162.839844 164.324219 161.878906 162.007812 161.878906 159.539062 Z M 213.082031 170.902344 C 213.082031 173.371094 212.121094 175.691406 210.375 177.433594 C 208.632812 179.179688 206.3125 180.140625 203.84375 180.140625 L 182.480469 180.140625 C 180.015625 180.140625 177.695312 179.179688 175.949219 177.433594 C 174.6875 176.175781 173.84375 174.609375 173.46875 172.910156 L 192.476562 172.910156 C 196.050781 172.910156 199.40625 171.519531 201.933594 168.992188 C 204.457031 166.46875 205.847656 163.109375 205.847656 159.539062 L 205.847656 140.527344 C 207.550781 140.902344 209.113281 141.746094 210.375 143.007812 C 212.121094 144.753906 213.082031 147.074219 213.082031 149.542969 Z M 213.082031 170.902344 " fill-opacity="1" fill-rule="nonzero"/></g><path fill="#e9c46a" d="M 173.242188 150.921875 L 179.730469 150.921875 L 179.730469 157.414062 C 179.730469 158.554688 180.65625 159.480469 181.796875 159.480469 C 182.9375 159.480469 183.863281 158.554688 183.863281 157.414062 L 183.863281 150.921875 L 190.355469 150.921875 C 191.496094 150.921875 192.421875 149.996094 192.421875 148.855469 C 192.421875 147.714844 191.496094 146.789062 190.355469 146.789062 L 183.863281 146.789062 L 183.863281 140.300781 C 183.863281 139.160156 182.9375 138.234375 181.796875 138.234375 C 180.65625 138.234375 179.730469 139.160156 179.730469 140.300781 L 179.730469 146.789062 L 173.242188 146.789062 C 172.101562 146.789062 171.175781 147.714844 171.175781 148.855469 C 171.175781 149.996094 172.101562 150.921875 173.242188 150.921875 Z M 173.242188 150.921875 " fill-opacity="1" fill-rule="nonzero"/></svg>