<svg xmlns="http://www.w3.org/2000/svg" xmlns:xlink="http://www.w3.org/1999/xlink" width="500" zoomAndPan="magnify" viewBox="0 0 375 225" height="300" preserveAspectRatio="xMidYMid meet" version="1.0"><defs><g/><clipPath id="5aea36d42b"><path d="M 88.277344 135.164062 L 287 135.164062 L 287 174.914062 L 88.277344 174.914062 Z M 88.277344 135.164062 " clip-rule="nonzero"/></clipPath></defs><rect x="-37.5" width="450" fill="#ffffff" y="-22.5" height="270" fill-opacity="1"/><rect x="-37.5" width="450" fill="#2a9d8f" y="-22.5" height="270" fill-opacity="1"/><g clip-path="url(#5aea36d42b)"><path fill="#e9c46a" d="M 282.929688 161.746094 L 282.578125 147.515625 C 282.453125 142.34375 278.222656 138.214844 273.046875 138.214844 L 101.941406 138.214844 C 96.769531 138.214844 92.539062 142.34375 92.410156 147.515625 L 92.0625 161.746094 C 91.929688 167.101562 96.234375 171.515625 101.59375 171.515625 L 273.398438 171.515625 C 278.757812 171.515625 283.0625 167.101562 282.929688 161.746094 Z M 286.003906 161.667969 C 286.089844 165.097656 284.816406 168.335938 282.421875 170.785156 C 280.03125 173.242188 276.824219 174.589844 273.398438 174.589844 L 101.59375 174.589844 C 98.164062 174.589844 94.960938 173.242188 92.566406 170.785156 C 90.171875 168.335938 88.902344 165.097656 88.988281 161.667969 L 89.335938 147.4375 C 89.417969 144.132812 90.765625 141.035156 93.136719 138.722656 C 95.503906 136.414062 98.632812 135.136719 101.941406 135.136719 L 273.046875 135.136719 C 276.359375 135.136719 279.484375 136.414062 281.855469 138.722656 C 284.222656 141.035156 285.574219 144.132812 285.65625 147.4375 Z M 224.574219 142.777344 L 214.015625 142.777344 C 212.988281 142.777344 212.085938 143.449219 211.796875 144.433594 L 206.007812 163.984375 C 205.570312 165.464844 206.679688 166.953125 208.226562 166.953125 L 218.785156 166.953125 C 219.8125 166.953125 220.714844 166.28125 221.003906 165.296875 L 226.792969 145.746094 C 227.230469 144.265625 226.117188 142.777344 224.574219 142.777344 Z M 111.117188 142.777344 L 102.402344 142.777344 C 99.449219 142.777344 97.035156 145.132812 96.960938 148.085938 L 96.628906 161.554688 C 96.601562 162.71875 96.847656 163.902344 97.527344 164.847656 C 98.496094 166.195312 99.984375 166.953125 101.59375 166.953125 L 105.332031 166.953125 C 106.355469 166.953125 107.257812 166.28125 107.550781 165.296875 L 113.335938 145.746094 C 113.777344 144.265625 112.664062 142.777344 111.117188 142.777344 Z M 167.84375 142.777344 L 157.285156 142.777344 C 156.261719 142.777344 155.355469 143.449219 155.066406 144.433594 L 149.28125 163.984375 C 148.839844 165.464844 149.953125 166.953125 151.5 166.953125 L 162.058594 166.953125 C 163.082031 166.953125 163.984375 166.28125 164.277344 165.296875 L 170.0625 145.746094 C 170.5 144.265625 169.390625 142.777344 167.84375 142.777344 Z M 205.664062 142.777344 L 195.105469 142.777344 C 194.078125 142.777344 193.175781 143.449219 192.886719 144.433594 L 187.097656 163.984375 C 186.660156 165.464844 187.769531 166.953125 189.316406 166.953125 L 199.875 166.953125 C 200.902344 166.953125 201.804688 166.28125 202.09375 165.296875 L 207.882812 145.746094 C 208.320312 144.265625 207.207031 142.777344 205.664062 142.777344 Z M 148.9375 142.777344 L 138.375 142.777344 C 137.351562 142.777344 136.449219 143.449219 136.160156 144.433594 L 130.371094 163.984375 C 129.929688 165.464844 131.042969 166.953125 132.589844 166.953125 L 143.148438 166.953125 C 144.175781 166.953125 145.078125 166.28125 145.367188 165.296875 L 151.15625 145.746094 C 151.59375 144.265625 150.480469 142.777344 148.9375 142.777344 Z M 130.027344 142.777344 L 119.46875 142.777344 C 118.441406 142.777344 117.539062 143.449219 117.25 144.433594 L 111.460938 163.984375 C 111.023438 165.464844 112.132812 166.953125 113.679688 166.953125 L 124.238281 166.953125 C 125.265625 166.953125 126.167969 166.28125 126.457031 165.296875 L 132.246094 145.746094 C 132.683594 144.265625 131.574219 142.777344 130.027344 142.777344 Z M 188.972656 145.746094 L 183.183594 165.296875 C 182.894531 166.28125 181.992188 166.953125 180.96875 166.953125 L 170.40625 166.953125 C 168.863281 166.953125 167.75 165.464844 168.191406 163.984375 L 173.976562 144.433594 C 174.269531 143.449219 175.167969 142.777344 176.195312 142.777344 L 186.753906 142.777344 C 188.300781 142.777344 189.414062 144.265625 188.972656 145.746094 " fill-opacity="1" fill-rule="nonzero"/></g><g fill="#ffffff" fill-opacity="1"><g transform="translate(24.14576, 108.669205)"><g><path d="M 35.296875 -43.703125 L 35.296875 -35.171875 L 23.71875 -35.171875 L 23.71875 0 L 13.078125 0 L 13.078125 -35.171875 L 1.5 -35.171875 L 1.5 -43.703125 Z M 35.296875 -43.703125 "/></g></g></g><g fill="#ffffff" fill-opacity="1"><g transform="translate(60.935481, 108.669205)"><g><path d="M 26.140625 0 L 17.0625 -16.5 L 14.5 -16.5 L 14.5 0 L 3.859375 0 L 3.859375 -43.703125 L 21.71875 -43.703125 C 25.164062 -43.703125 28.101562 -43.097656 30.53125 -41.890625 C 32.957031 -40.691406 34.769531 -39.039062 35.96875 -36.9375 C 37.175781 -34.84375 37.78125 -32.507812 37.78125 -29.9375 C 37.78125 -27.03125 36.960938 -24.4375 35.328125 -22.15625 C 33.691406 -19.875 31.273438 -18.257812 28.078125 -17.3125 L 38.15625 0 Z M 14.5 -24.03125 L 21.109375 -24.03125 C 23.054688 -24.03125 24.515625 -24.503906 25.484375 -25.453125 C 26.460938 -26.410156 26.953125 -27.757812 26.953125 -29.5 C 26.953125 -31.164062 26.460938 -32.472656 25.484375 -33.421875 C 24.515625 -34.378906 23.054688 -34.859375 21.109375 -34.859375 L 14.5 -34.859375 Z M 14.5 -24.03125 "/></g></g></g><g fill="#ffffff" fill-opacity="1"><g transform="translate(101.522454, 108.669205)"><g><path d="M 31.0625 -7.71875 L 14.75 -7.71875 L 12.140625 0 L 1 0 L 16.8125 -43.703125 L 29.140625 -43.703125 L 44.9375 0 L 33.671875 0 Z M 28.328125 -15.9375 L 22.90625 -31.9375 L 17.546875 -15.9375 Z M 28.328125 -15.9375 "/></g></g></g><g fill="#ffffff" fill-opacity="1"><g transform="translate(147.400672, 108.669205)"><g><path d="M 2.046875 -21.90625 C 2.046875 -26.226562 2.976562 -30.078125 4.84375 -33.453125 C 6.71875 -36.835938 9.320312 -39.472656 12.65625 -41.359375 C 16 -43.253906 19.789062 -44.203125 24.03125 -44.203125 C 29.21875 -44.203125 33.65625 -42.832031 37.34375 -40.09375 C 41.039062 -37.351562 43.507812 -33.617188 44.75 -28.890625 L 33.0625 -28.890625 C 32.1875 -30.710938 30.945312 -32.097656 29.34375 -33.046875 C 27.75 -34.003906 25.9375 -34.484375 23.90625 -34.484375 C 20.625 -34.484375 17.96875 -33.34375 15.9375 -31.0625 C 13.90625 -28.78125 12.890625 -25.726562 12.890625 -21.90625 C 12.890625 -18.09375 13.90625 -15.046875 15.9375 -12.765625 C 17.96875 -10.484375 20.625 -9.34375 23.90625 -9.34375 C 25.9375 -9.34375 27.75 -9.816406 29.34375 -10.765625 C 30.945312 -11.722656 32.1875 -13.113281 33.0625 -14.9375 L 44.75 -14.9375 C 43.507812 -10.207031 41.039062 -6.484375 37.34375 -3.765625 C 33.65625 -1.046875 29.21875 0.3125 24.03125 0.3125 C 19.789062 0.3125 16 -0.628906 12.65625 -2.515625 C 9.320312 -4.410156 6.71875 -7.035156 4.84375 -10.390625 C 2.976562 -13.753906 2.046875 -17.59375 2.046875 -21.90625 Z M 2.046875 -21.90625 "/></g></g></g><g fill="#ffffff" fill-opacity="1"><g transform="translate(194.835137, 108.669205)"><g><path d="M 29.1875 0 L 14.5 -19.296875 L 14.5 0 L 3.859375 0 L 3.859375 -43.703125 L 14.5 -43.703125 L 14.5 -24.53125 L 29.078125 -43.703125 L 41.578125 -43.703125 L 24.65625 -22.28125 L 42.203125 0 Z M 29.1875 0 "/></g></g></g><g fill="#ffffff" fill-opacity="1"><g transform="translate(238.223372, 108.669205)"><g><path d="M 14.5 -43.703125 L 14.5 0 L 3.859375 0 L 3.859375 -43.703125 Z M 14.5 -43.703125 "/></g></g></g><g fill="#ffffff" fill-opacity="1"><g transform="translate(256.58711, 108.669205)"><g><path d="M 42.953125 0 L 32.3125 0 L 14.5 -26.953125 L 14.5 0 L 3.859375 0 L 3.859375 -43.703125 L 14.5 -43.703125 L 32.3125 -16.625 L 32.3125 -43.703125 L 42.953125 -43.703125 Z M 42.953125 0 "/></g></g></g><g fill="#ffffff" fill-opacity="1"><g transform="translate(303.399075, 108.669205)"><g><path d="M 32.875 -29.875 C 32.082031 -31.332031 30.945312 -32.441406 29.46875 -33.203125 C 28 -33.972656 26.269531 -34.359375 24.28125 -34.359375 C 20.832031 -34.359375 18.070312 -33.226562 16 -30.96875 C 13.925781 -28.707031 12.890625 -25.6875 12.890625 -21.90625 C 12.890625 -17.882812 13.976562 -14.742188 16.15625 -12.484375 C 18.332031 -10.222656 21.332031 -9.09375 25.15625 -9.09375 C 27.769531 -9.09375 29.976562 -9.753906 31.78125 -11.078125 C 33.582031 -12.410156 34.898438 -14.320312 35.734375 -16.8125 L 22.21875 -16.8125 L 22.21875 -24.65625 L 45.375 -24.65625 L 45.375 -14.75 C 44.59375 -12.09375 43.253906 -9.625 41.359375 -7.34375 C 39.472656 -5.0625 37.078125 -3.210938 34.171875 -1.796875 C 31.265625 -0.390625 27.988281 0.3125 24.34375 0.3125 C 20.019531 0.3125 16.164062 -0.628906 12.78125 -2.515625 C 9.40625 -4.410156 6.769531 -7.035156 4.875 -10.390625 C 2.988281 -13.753906 2.046875 -17.59375 2.046875 -21.90625 C 2.046875 -26.226562 2.988281 -30.078125 4.875 -33.453125 C 6.769531 -36.835938 9.394531 -39.472656 12.75 -41.359375 C 16.113281 -43.253906 19.957031 -44.203125 24.28125 -44.203125 C 29.507812 -44.203125 33.914062 -42.9375 37.5 -40.40625 C 41.09375 -37.875 43.472656 -34.363281 44.640625 -29.875 Z M 32.875 -29.875 "/></g></g></g></svg>