<svg xmlns="http://www.w3.org/2000/svg" xmlns:xlink="http://www.w3.org/1999/xlink" width="500" zoomAndPan="magnify" viewBox="0 0 375 374.999991" height="500" preserveAspectRatio="xMidYMid meet" version="1.0"><defs><clipPath id="711242b5ee"><path d="M 41.78125 41.78125 L 333.21875 41.78125 L 333.21875 333.21875 L 41.78125 333.21875 Z M 41.78125 41.78125 " clip-rule="nonzero"/></clipPath><clipPath id="85ec1df28e"><path d="M 187.5 41.78125 C 107.019531 41.78125 41.78125 107.019531 41.78125 187.5 C 41.78125 267.980469 107.019531 333.21875 187.5 333.21875 C 267.980469 333.21875 333.21875 267.980469 333.21875 187.5 C 333.21875 107.019531 267.980469 41.78125 187.5 41.78125 Z M 187.5 41.78125 " clip-rule="nonzero"/></clipPath><clipPath id="65d7dad7c5"><path d="M 111.722656 114.484375 L 263.222656 114.484375 L 263.222656 260.734375 L 111.722656 260.734375 Z M 111.722656 114.484375 " clip-rule="nonzero"/></clipPath></defs><g clip-path="url(#711242b5ee)"><g clip-path="url(#85ec1df28e)"><path fill="#2a9d8f" d="M 41.78125 41.78125 L 333.21875 41.78125 L 333.21875 333.21875 L 41.78125 333.21875 Z M 41.78125 41.78125 " fill-opacity="1" fill-rule="nonzero"/></g></g><g clip-path="url(#65d7dad7c5)"><path fill="#e9c46a" d="M 46.621094 143.84375 L 46.621094 117.277344 C 46.621094 115.738281 47.871094 114.484375 49.414062 114.484375 L 103.089844 114.484375 C 104.632812 114.484375 105.882812 115.738281 105.882812 117.277344 L 105.882812 257.726562 C 105.882812 259.269531 104.632812 260.519531 103.089844 260.519531 L 70.714844 260.519531 C 69.175781 260.519531 67.925781 259.269531 67.925781 257.726562 L 67.925781 149.429688 C 67.925781 147.886719 66.671875 146.636719 65.132812 146.636719 L 49.414062 146.636719 C 47.871094 146.636719 46.621094 145.386719 46.621094 143.84375 Z M 174.949219 135.597656 L 155.738281 135.597656 C 154.199219 135.597656 152.949219 136.847656 152.949219 138.390625 L 152.949219 172.316406 C 152.949219 173.859375 151.699219 175.109375 150.15625 175.109375 L 116.230469 175.109375 C 114.6875 175.109375 113.4375 176.359375 113.4375 177.902344 L 113.4375 197.105469 C 113.4375 198.648438 114.6875 199.898438 116.230469 199.898438 L 150.15625 199.898438 C 151.695312 199.898438 152.949219 201.148438 152.949219 202.691406 L 152.949219 236.617188 C 152.949219 238.160156 154.199219 239.410156 155.738281 239.410156 L 174.949219 239.410156 C 176.488281 239.410156 177.738281 238.160156 177.738281 236.617188 L 177.738281 202.691406 C 177.738281 201.148438 178.992188 199.898438 180.53125 199.898438 L 214.261719 199.898438 C 215.804688 199.898438 217.054688 198.648438 217.054688 197.105469 L 217.054688 177.902344 C 217.054688 176.359375 215.804688 175.109375 214.261719 175.109375 L 180.53125 175.109375 C 178.992188 175.109375 177.738281 173.859375 177.738281 172.316406 L 177.738281 138.390625 C 177.738281 136.847656 176.488281 135.597656 174.949219 135.597656 Z M 203.925781 117.277344 L 203.925781 143.84375 C 203.925781 145.386719 205.175781 146.636719 206.71875 146.636719 L 222.4375 146.636719 C 223.980469 146.636719 225.230469 147.886719 225.230469 149.429688 L 225.230469 257.726562 C 225.230469 259.269531 226.480469 260.519531 228.023438 260.519531 L 260.402344 260.519531 C 261.941406 260.519531 263.191406 259.269531 263.191406 257.726562 L 263.191406 117.277344 C 263.191406 115.738281 261.941406 114.484375 260.402344 114.484375 L 206.71875 114.484375 C 205.175781 114.484375 203.925781 115.738281 203.925781 117.277344 Z M 203.925781 117.277344 " fill-opacity="1" fill-rule="nonzero"/></g></svg>