<svg xmlns="http://www.w3.org/2000/svg" xmlns:xlink="http://www.w3.org/1999/xlink" width="500" zoomAndPan="magnify" viewBox="0 0 375 374.999991" height="500" preserveAspectRatio="xMidYMid meet" version="1.0"><defs><clipPath id="6e0d670a06"><path d="M 41.78125 41.78125 L 333.21875 41.78125 L 333.21875 333.21875 L 41.78125 333.21875 Z M 41.78125 41.78125 " clip-rule="nonzero"/></clipPath><clipPath id="1d4d31c914"><path d="M 187.5 41.78125 C 107.019531 41.78125 41.78125 107.019531 41.78125 187.5 C 41.78125 267.980469 107.019531 333.21875 187.5 333.21875 C 267.980469 333.21875 333.21875 267.980469 333.21875 187.5 C 333.21875 107.019531 267.980469 41.78125 187.5 41.78125 Z M 187.5 41.78125 " clip-rule="nonzero"/></clipPath><clipPath id="c47bc9778d"><path d="M 99.371094 106 L 272 106 L 272 278.640625 L 99.371094 278.640625 Z M 99.371094 106 " clip-rule="nonzero"/></clipPath><clipPath id="4c1efa9a0e"><path d="M 134 96.390625 L 275.621094 96.390625 L 275.621094 243 L 134 243 Z M 134 96.390625 " clip-rule="nonzero"/></clipPath></defs><g clip-path="url(#6e0d670a06)"><g clip-path="url(#1d4d31c914)"><path fill="#264653" d="M 41.78125 41.78125 L 333.21875 41.78125 L 333.21875 333.21875 L 41.78125 333.21875 Z M 41.78125 41.78125 " fill-opacity="1" fill-rule="nonzero"/></g></g><g clip-path="url(#c47bc9778d)"><path fill="#ffffff" d="M 185.457031 106.53125 C 138.046875 106.53125 99.445312 145.132812 99.445312 192.542969 C 99.445312 239.953125 138.046875 278.550781 185.457031 278.550781 C 232.863281 278.550781 271.464844 239.953125 271.464844 192.542969 C 271.464844 172.046875 264.53125 153.714844 252.753906 138.699219 L 244.652344 148.296875 C 254.921875 160.941406 258.941406 174.976562 258.941406 192.542969 C 258.941406 233.171875 226.082031 266.007812 185.453125 266.007812 C 144.824219 266.007812 111.96875 233.171875 111.96875 192.542969 C 111.96875 151.914062 144.824219 119.054688 185.453125 119.054688 C 198.328125 119.054688 207.957031 120.90625 218.46875 126.710938 L 226.164062 116.609375 C 213.855469 109.808594 200.476562 106.53125 185.453125 106.53125 Z M 185.457031 106.53125 " fill-opacity="1" fill-rule="evenodd"/></g><g clip-path="url(#4c1efa9a0e)"><path fill="#ffffff" d="M 153.621094 181.230469 C 157.089844 181.230469 159.714844 184.074219 161.492188 189.765625 C 165.050781 200.4375 167.585938 205.773438 169.097656 205.773438 C 170.253906 205.773438 171.453125 204.886719 172.699219 203.105469 C 197.6875 163.085938 220.808594 130.714844 242.066406 105.992188 C 247.578125 99.589844 256.339844 96.386719 268.34375 96.386719 C 271.191406 96.386719 273.101562 96.65625 274.082031 97.1875 C 275.058594 97.722656 275.546875 98.390625 275.546875 99.191406 C 275.546875 100.433594 274.082031 102.878906 271.144531 106.527344 C 236.816406 147.792969 204.980469 191.367188 175.632812 237.257812 C 173.585938 240.457031 169.40625 242.058594 163.09375 242.058594 C 156.691406 242.058594 152.910156 241.792969 151.753906 241.257812 C 148.730469 239.925781 145.171875 233.121094 141.082031 220.847656 C 136.457031 207.242188 134.144531 198.703125 134.144531 195.234375 C 134.144531 191.5 137.257812 187.898438 143.484375 184.429688 C 147.308594 182.296875 150.6875 181.230469 153.621094 181.230469 " fill-opacity="1" fill-rule="nonzero"/></g></svg>