<svg xmlns="http://www.w3.org/2000/svg" xmlns:xlink="http://www.w3.org/1999/xlink" width="500" zoomAndPan="magnify" viewBox="0 0 375 374.999991" height="500" preserveAspectRatio="xMidYMid meet" version="1.0"><defs><clipPath id="1fca53b93e"><path d="M 41.78125 41.78125 L 333.21875 41.78125 L 333.21875 333.21875 L 41.78125 333.21875 Z M 41.78125 41.78125 " clip-rule="nonzero"/></clipPath><clipPath id="4360185e05"><path d="M 187.5 41.78125 C 107.019531 41.78125 41.78125 107.019531 41.78125 187.5 C 41.78125 267.980469 107.019531 333.21875 187.5 333.21875 C 267.980469 333.21875 333.21875 267.980469 333.21875 187.5 C 333.21875 107.019531 267.980469 41.78125 187.5 41.78125 Z M 187.5 41.78125 " clip-rule="nonzero"/></clipPath><clipPath id="2d90a54e18"><path d="M 98.328125 113.152344 L 276.824219 113.152344 L 276.824219 261.652344 L 98.328125 261.652344 Z M 98.328125 113.152344 " clip-rule="nonzero"/></clipPath><clipPath id="2a7c78f837"><path d="M 111 241 L 138 241 L 138 261.652344 L 111 261.652344 Z M 111 241 " clip-rule="nonzero"/></clipPath><clipPath id="a4ae5320f3"><path d="M 148 241 L 175 241 L 175 261.652344 L 148 261.652344 Z M 148 241 " clip-rule="nonzero"/></clipPath><clipPath id="2c4c8a475c"><path d="M 184 241 L 211 241 L 211 261.652344 L 184 261.652344 Z M 184 241 " clip-rule="nonzero"/></clipPath></defs><g clip-path="url(#1fca53b93e)"><g clip-path="url(#4360185e05)"><path fill="#a6a6a6" d="M 41.78125 41.78125 L 333.21875 41.78125 L 333.21875 333.21875 L 41.78125 333.21875 Z M 41.78125 41.78125 " fill-opacity="1" fill-rule="nonzero"/></g></g><g clip-path="url(#2d90a54e18)"><path fill="#ff5550" d="M 234.253906 143.699219 L 158.320312 143.699219 L 158.320312 122.976562 C 158.320312 119.484375 156.351562 116.292969 153.214844 114.714844 C 150.117188 113.15625 146.363281 113.476562 143.546875 115.558594 L 102.0625 146.441406 C 99.714844 148.1875 98.328125 150.945312 98.328125 153.855469 C 98.328125 156.765625 99.714844 159.523438 102.042969 161.269531 L 143.546875 192.152344 C 145.179688 193.351562 147.113281 193.972656 149.066406 193.972656 C 150.492188 193.972656 151.902344 193.652344 153.214844 192.996094 C 156.332031 191.417969 158.320312 188.226562 158.320312 184.734375 L 158.320312 164.03125 L 234.253906 164.03125 C 246.421875 164.03125 256.3125 173.921875 256.3125 186.085938 L 256.3125 219.40625 C 256.3125 231.570312 246.421875 241.464844 234.253906 241.464844 L 231.457031 241.464844 C 225.847656 241.464844 221.285156 246.007812 221.285156 251.640625 C 221.285156 257.253906 225.847656 261.8125 231.457031 261.8125 L 234.253906 261.8125 C 257.644531 261.8125 276.664062 242.796875 276.664062 219.425781 L 276.664062 186.085938 C 276.664062 162.714844 257.644531 143.699219 234.253906 143.699219 Z M 234.253906 143.699219 " fill-opacity="1" fill-rule="nonzero"/></g><g clip-path="url(#2a7c78f837)"><path fill="#ff5550" d="M 127.628906 241.484375 L 121.847656 241.484375 C 116.234375 241.484375 111.671875 246.027344 111.671875 251.660156 C 111.671875 257.269531 116.234375 261.832031 121.847656 261.832031 L 127.628906 261.832031 C 133.242188 261.832031 137.804688 257.289062 137.804688 251.660156 C 137.804688 246.027344 133.261719 241.484375 127.628906 241.484375 Z M 127.628906 241.484375 " fill-opacity="1" fill-rule="nonzero"/></g><g clip-path="url(#a4ae5320f3)"><path fill="#ff5550" d="M 164.160156 241.484375 L 158.378906 241.484375 C 152.765625 241.484375 148.203125 246.027344 148.203125 251.660156 C 148.203125 257.269531 152.765625 261.832031 158.378906 261.832031 L 164.160156 261.832031 C 169.773438 261.832031 174.335938 257.289062 174.335938 251.660156 C 174.335938 246.027344 169.773438 241.484375 164.160156 241.484375 Z M 164.160156 241.484375 " fill-opacity="1" fill-rule="nonzero"/></g><g clip-path="url(#2c4c8a475c)"><path fill="#ff5550" d="M 200.691406 241.484375 L 194.910156 241.484375 C 189.296875 241.484375 184.734375 246.027344 184.734375 251.660156 C 184.734375 257.269531 189.296875 261.832031 194.910156 261.832031 L 200.691406 261.832031 C 206.304688 261.832031 210.867188 257.289062 210.867188 251.660156 C 210.867188 246.027344 206.304688 241.484375 200.691406 241.484375 Z M 200.691406 241.484375 " fill-opacity="1" fill-rule="nonzero"/></g></svg>