<svg xmlns="http://www.w3.org/2000/svg" xmlns:xlink="http://www.w3.org/1999/xlink" width="500" zoomAndPan="magnify" viewBox="0 0 375 374.999991" height="500" preserveAspectRatio="xMidYMid meet" version="1.0"><defs><clipPath id="984c8bdb45"><path d="M 41.78125 41.78125 L 333.21875 41.78125 L 333.21875 333.21875 L 41.78125 333.21875 Z M 41.78125 41.78125 " clip-rule="nonzero"/></clipPath><clipPath id="b7d069b199"><path d="M 187.5 41.78125 C 107.019531 41.78125 41.78125 107.019531 41.78125 187.5 C 41.78125 267.980469 107.019531 333.21875 187.5 333.21875 C 267.980469 333.21875 333.21875 267.980469 333.21875 187.5 C 333.21875 107.019531 267.980469 41.78125 187.5 41.78125 Z M 187.5 41.78125 " clip-rule="nonzero"/></clipPath><clipPath id="5501e6621a"><path d="M 112.5 225 L 158 225 L 158 261 L 112.5 261 Z M 112.5 225 " clip-rule="nonzero"/></clipPath><clipPath id="4791825acd"><path d="M 129 152 L 262.5 152 L 262.5 261.375 L 129 261.375 Z M 129 152 " clip-rule="nonzero"/></clipPath></defs><g clip-path="url(#984c8bdb45)"><g clip-path="url(#b7d069b199)"><path fill="#e9c46a" d="M 41.78125 41.78125 L 333.21875 41.78125 L 333.21875 333.21875 L 41.78125 333.21875 Z M 41.78125 41.78125 " fill-opacity="1" fill-rule="nonzero"/></g></g><path fill="#264653" d="M 161.316406 117.4375 C 161.851562 117.5625 162.382812 117.714844 162.902344 117.890625 C 163.425781 118.070312 163.9375 118.269531 164.441406 118.5 C 164.945312 118.726562 165.433594 118.976562 165.910156 119.253906 C 166.386719 119.527344 166.851562 119.828125 167.300781 120.148438 C 167.75 120.46875 168.179688 120.8125 168.59375 121.175781 C 169.007812 121.539062 169.40625 121.921875 169.78125 122.324219 C 170.160156 122.726562 170.515625 123.144531 170.851562 123.582031 C 171.1875 124.019531 171.5 124.472656 171.792969 124.941406 C 172.082031 125.410156 172.351562 125.890625 172.59375 126.386719 C 172.839844 126.878906 173.058594 127.382812 173.253906 127.902344 C 173.449219 128.417969 173.617188 128.941406 173.757812 129.472656 C 173.902344 130.007812 174.019531 130.542969 174.109375 131.089844 C 174.199219 131.632812 174.261719 132.179688 174.296875 132.730469 C 174.332031 133.28125 174.34375 133.832031 174.324219 134.382812 C 174.308594 134.933594 174.261719 135.480469 174.191406 136.027344 C 174.117188 136.574219 174.019531 137.117188 173.894531 137.652344 C 173.769531 138.191406 173.617188 138.71875 173.441406 139.242188 C 173.265625 139.765625 173.0625 140.277344 172.835938 140.777344 C 172.609375 141.28125 172.355469 141.773438 172.082031 142.25 C 171.804688 142.726562 171.507812 143.191406 171.1875 143.636719 C 170.863281 144.085938 170.523438 144.519531 170.160156 144.933594 C 169.796875 145.347656 169.414062 145.742188 169.011719 146.121094 C 168.609375 146.496094 168.1875 146.851562 167.75 147.1875 C 167.3125 147.523438 166.859375 147.839844 166.390625 148.128906 C 165.925781 148.421875 165.441406 148.6875 164.949219 148.933594 C 164.453125 149.175781 163.949219 149.394531 163.433594 149.589844 C 162.917969 149.785156 162.390625 149.953125 161.859375 150.097656 C 161.328125 150.238281 160.789062 150.355469 160.246094 150.445312 C 159.699219 150.535156 159.152344 150.597656 158.601562 150.632812 C 158.054688 150.671875 157.503906 150.679688 156.949219 150.660156 C 156.398438 150.644531 155.851562 150.597656 155.304688 150.527344 C 154.757812 150.457031 154.214844 150.355469 153.679688 150.230469 C 153.140625 150.105469 152.613281 149.957031 152.089844 149.777344 C 151.566406 149.601562 151.054688 149.398438 150.550781 149.171875 C 150.050781 148.945312 149.558594 148.691406 149.082031 148.417969 C 148.605469 148.140625 148.140625 147.84375 147.695312 147.523438 C 147.246094 147.203125 146.8125 146.859375 146.398438 146.496094 C 145.984375 146.132812 145.589844 145.75 145.210938 145.347656 C 144.835938 144.945312 144.476562 144.523438 144.140625 144.085938 C 143.804688 143.648438 143.492188 143.199219 143.203125 142.730469 C 142.910156 142.261719 142.640625 141.78125 142.398438 141.285156 C 142.15625 140.789062 141.933594 140.285156 141.742188 139.769531 C 141.546875 139.253906 141.378906 138.730469 141.234375 138.195312 C 141.09375 137.664062 140.976562 137.125 140.886719 136.582031 C 140.796875 136.039062 140.734375 135.492188 140.695312 134.941406 C 140.660156 134.390625 140.652344 133.839844 140.667969 133.289062 C 140.6875 132.738281 140.730469 132.1875 140.804688 131.640625 C 140.875 131.09375 140.972656 130.554688 141.097656 130.015625 C 141.222656 129.480469 141.375 128.949219 141.550781 128.425781 C 141.730469 127.90625 141.929688 127.394531 142.160156 126.890625 C 142.386719 126.386719 142.636719 125.898438 142.914062 125.421875 C 143.1875 124.945312 143.488281 124.480469 143.808594 124.03125 C 144.128906 123.582031 144.472656 123.152344 144.835938 122.738281 C 145.199219 122.324219 145.582031 121.925781 145.984375 121.550781 C 146.386719 121.171875 146.804688 120.816406 147.242188 120.480469 C 147.679688 120.144531 148.132812 119.832031 148.601562 119.539062 C 149.070312 119.25 149.550781 118.980469 150.046875 118.738281 C 150.539062 118.492188 151.046875 118.273438 151.5625 118.078125 C 152.078125 117.886719 152.601562 117.71875 153.132812 117.574219 C 153.667969 117.429688 154.207031 117.316406 154.75 117.226562 C 155.292969 117.136719 155.839844 117.070312 156.390625 117.035156 C 156.941406 117 157.492188 116.992188 158.042969 117.007812 C 158.59375 117.027344 159.144531 117.070312 159.691406 117.144531 C 160.234375 117.214844 160.777344 117.3125 161.316406 117.4375 Z M 161.316406 117.4375 " fill-opacity="1" fill-rule="nonzero"/><g clip-path="url(#5501e6621a)"><path fill="#264653" d="M 119.621094 225.351562 L 112.578125 260.902344 L 157.484375 260.902344 L 150.441406 225.351562 Z M 119.621094 225.351562 " fill-opacity="1" fill-rule="nonzero"/></g><g clip-path="url(#4791825acd)"><path fill="#264653" d="M 181.1875 190.984375 L 188.363281 190.984375 L 188.363281 207.371094 C 188.148438 206.984375 187.914062 206.605469 187.644531 206.246094 C 185.871094 203.902344 183.117188 202.535156 180.179688 202.535156 L 157.277344 202.535156 C 156.488281 194.785156 157.085938 186.550781 157.847656 179.253906 C 149.003906 176.539062 143.761719 172.710938 142.917969 172.0625 C 139.652344 169.519531 139.066406 164.804688 141.601562 161.550781 C 143.035156 159.71875 145.1875 158.667969 147.511719 158.667969 C 149.191406 158.667969 150.78125 159.214844 152.109375 160.25 L 152.289062 160.378906 C 152.492188 160.515625 152.855469 160.757812 153.355469 161.0625 C 154.316406 161.648438 155.90625 162.53125 158.058594 163.441406 C 158.34375 163.558594 158.640625 163.679688 158.949219 163.800781 C 158.105469 158.386719 154.933594 153.691406 150.246094 152.953125 C 143.742188 151.925781 134.820312 156.195312 132.027344 167.441406 C 128.277344 182.929688 128.050781 192.816406 131.4375 209.210938 C 132.636719 213.386719 134.457031 216.144531 136.609375 217.941406 C 138.328125 219.960938 140.882812 221.246094 143.738281 221.246094 L 167.808594 221.246094 L 159.828125 249.445312 C 158.417969 254.417969 161.308594 259.585938 166.28125 260.996094 C 167.132812 261.238281 167.988281 261.351562 168.832031 261.351562 C 172.914062 261.351562 176.664062 258.660156 177.832031 254.542969 L 188.363281 217.339844 L 188.363281 260.902344 L 196.347656 260.902344 L 196.347656 190.984375 L 247.242188 190.984375 L 247.242188 260.902344 L 255.226562 260.902344 L 255.226562 190.984375 L 262.398438 190.984375 L 262.398438 183.496094 L 181.191406 183.496094 L 181.191406 190.984375 Z M 181.1875 190.984375 " fill-opacity="1" fill-rule="nonzero"/></g><path fill="#264653" d="M 198.390625 178.539062 C 195.429688 179.460938 192.472656 180.191406 189.523438 180.75 L 228.15625 180.75 L 228.15625 176.71875 L 243.5625 142.460938 L 238.785156 140.3125 L 222.953125 175.507812 L 202.40625 175.507812 C 201.488281 176.90625 200.101562 178.003906 198.390625 178.539062 Z M 198.390625 178.539062 " fill-opacity="1" fill-rule="nonzero"/><path fill="#264653" d="M 152.578125 162.34375 C 152.042969 162.019531 151.65625 161.757812 151.421875 161.597656 C 151.304688 161.515625 151.226562 161.457031 151.1875 161.429688 C 148.582031 159.398438 144.820312 159.863281 142.785156 162.472656 C 140.75 165.078125 141.214844 168.84375 143.824219 170.875 C 144.4375 171.34375 156.339844 180.484375 176.445312 180.511719 C 176.453125 180.511719 176.457031 180.511719 176.464844 180.511719 C 182.886719 180.511719 190.105469 179.554688 197.941406 177.109375 C 201.097656 176.125 202.859375 172.765625 201.875 169.609375 C 200.886719 166.453125 197.53125 164.691406 194.371094 165.675781 C 187.679688 167.765625 181.695312 168.53125 176.445312 168.535156 C 168.265625 168.53125 161.835938 166.65625 157.476562 164.820312 C 155.300781 163.902344 153.648438 162.996094 152.578125 162.34375 Z M 152.578125 162.34375 " fill-opacity="1" fill-rule="nonzero"/></svg>