<svg xmlns="http://www.w3.org/2000/svg" xmlns:xlink="http://www.w3.org/1999/xlink" width="500" zoomAndPan="magnify" viewBox="0 0 375 374.999991" height="500" preserveAspectRatio="xMidYMid meet" version="1.0"><defs><clipPath id="761d16cc97"><path d="M 41.78125 41.78125 L 333.21875 41.78125 L 333.21875 333.21875 L 41.78125 333.21875 Z M 41.78125 41.78125 " clip-rule="nonzero"/></clipPath><clipPath id="996069b6f4"><path d="M 187.5 41.78125 C 107.019531 41.78125 41.78125 107.019531 41.78125 187.5 C 41.78125 267.980469 107.019531 333.21875 187.5 333.21875 C 267.980469 333.21875 333.21875 267.980469 333.21875 187.5 C 333.21875 107.019531 267.980469 41.78125 187.5 41.78125 Z M 187.5 41.78125 " clip-rule="nonzero"/></clipPath><clipPath id="7ff9958e9d"><path d="M 231.929688 277.769531 L 330.820312 277.769531 L 330.820312 314.351562 L 231.929688 314.351562 Z M 231.929688 277.769531 " clip-rule="nonzero"/></clipPath><clipPath id="f38968ab9c"><path d="M 249.179688 277.769531 L 313.5625 277.769531 C 323.089844 277.769531 330.8125 285.492188 330.8125 295.019531 L 330.8125 297.101562 C 330.8125 306.628906 323.089844 314.351562 313.5625 314.351562 L 249.179688 314.351562 C 239.652344 314.351562 231.929688 306.628906 231.929688 297.101562 L 231.929688 295.019531 C 231.929688 285.492188 239.652344 277.769531 249.179688 277.769531 Z M 249.179688 277.769531 " clip-rule="nonzero"/></clipPath><clipPath id="b24ed9fccf"><path d="M 266.523438 281.210938 L 296.523438 281.210938 L 296.523438 311 L 266.523438 311 Z M 266.523438 281.210938 " clip-rule="nonzero"/></clipPath><clipPath id="f55bf49b0a"><path d="M 226 128 L 262.5 128 L 262.5 165 L 226 165 Z M 226 128 " clip-rule="nonzero"/></clipPath><clipPath id="3bc7769a85"><path d="M 198 112.5 L 223 112.5 L 223 165 L 198 165 Z M 198 112.5 " clip-rule="nonzero"/></clipPath><clipPath id="97ebc5dbe5"><path d="M 112.5 138 L 236 138 L 236 262.5 L 112.5 262.5 Z M 112.5 138 " clip-rule="nonzero"/></clipPath><clipPath id="9ade4dee13"><path d="M 174 229 L 208 229 L 208 262.5 L 174 262.5 Z M 174 229 " clip-rule="nonzero"/></clipPath><clipPath id="28febd16c7"><path d="M 171 168 L 260 168 L 260 262.5 L 171 262.5 Z M 171 168 " clip-rule="nonzero"/></clipPath></defs><g clip-path="url(#761d16cc97)"><g clip-path="url(#996069b6f4)"><path fill="#264653" d="M 41.78125 41.78125 L 333.21875 41.78125 L 333.21875 333.21875 L 41.78125 333.21875 Z M 41.78125 41.78125 " fill-opacity="1" fill-rule="nonzero"/></g></g><g clip-path="url(#7ff9958e9d)"><g clip-path="url(#f38968ab9c)"><path fill="#2a9d8f" d="M 231.929688 277.769531 L 330.820312 277.769531 L 330.820312 314.351562 L 231.929688 314.351562 Z M 231.929688 277.769531 " fill-opacity="1" fill-rule="nonzero"/></g></g><g clip-path="url(#b24ed9fccf)"><path fill="#ffffff" d="M 281.371094 281.210938 C 273.203125 281.210938 266.523438 287.894531 266.523438 296.058594 C 266.523438 304.226562 273.203125 310.90625 281.371094 310.90625 C 289.535156 310.90625 296.21875 304.226562 296.21875 296.058594 C 296.21875 287.894531 289.535156 281.210938 281.371094 281.210938 Z M 287.308594 297.542969 L 282.855469 297.542969 L 282.855469 302 C 282.855469 302.890625 282.261719 303.484375 281.371094 303.484375 C 280.476562 303.484375 279.882812 302.890625 279.882812 302 L 279.882812 297.542969 L 275.429688 297.542969 C 274.539062 297.542969 273.945312 296.949219 273.945312 296.058594 C 273.945312 295.167969 274.539062 294.574219 275.429688 294.574219 L 279.882812 294.574219 L 279.882812 290.121094 C 279.882812 289.230469 280.476562 288.636719 281.371094 288.636719 C 282.261719 288.636719 282.855469 289.230469 282.855469 290.121094 L 282.855469 294.574219 L 287.308594 294.574219 C 288.199219 294.574219 288.792969 295.167969 288.792969 296.058594 C 288.792969 296.949219 288.199219 297.542969 287.308594 297.542969 Z M 287.308594 297.542969 " fill-opacity="1" fill-rule="nonzero"/></g><g clip-path="url(#f55bf49b0a)"><path fill="#ffffff" d="M 260.863281 134.773438 C 259.929688 133.367188 258.40625 132.199219 256.769531 131.5 L 250.339844 128.808594 C 249.171875 128.339844 247.886719 128.109375 246.714844 128.109375 C 243.675781 128.109375 241.222656 129.628906 240.167969 132.199219 L 226.957031 164.117188 L 231.984375 164.117188 L 239.351562 146.230469 L 252.210938 151.722656 L 247.183594 164.117188 L 252.210938 164.117188 L 261.679688 141.085938 C 262.5 139.097656 262.265625 136.757812 260.863281 134.773438 Z M 260.863281 134.773438 " fill-opacity="1" fill-rule="nonzero"/></g><g clip-path="url(#3bc7769a85)"><path fill="#ffffff" d="M 203.339844 164.117188 L 207.667969 145.058594 C 208.484375 145.292969 209.421875 145.410156 210.355469 145.410156 C 211.292969 145.410156 212.109375 145.292969 213.046875 145.058594 L 217.371094 164.117188 L 222.164062 164.117188 L 217.371094 143.074219 C 220.175781 140.96875 222.046875 137.578125 222.046875 133.71875 C 222.046875 128.109375 218.074219 123.316406 212.695312 122.261719 L 212.695312 115.011719 C 212.695312 113.726562 211.644531 112.675781 210.355469 112.675781 C 209.070312 112.675781 208.019531 113.726562 208.019531 115.011719 L 208.019531 122.261719 C 202.757812 123.316406 198.664062 128.109375 198.664062 133.71875 C 198.664062 137.578125 200.535156 140.96875 203.339844 143.074219 L 198.546875 164.117188 Z M 203.339844 164.117188 " fill-opacity="1" fill-rule="nonzero"/></g><path fill="#ffffff" d="M 168.5 164.117188 L 173.527344 164.117188 L 167.449219 149.503906 L 171.773438 147.75 L 178.554688 164.117188 L 183.582031 164.117188 L 176.101562 145.996094 L 180.425781 144.242188 L 188.609375 164.117188 L 193.636719 164.117188 L 183.699219 140.03125 C 183.464844 139.332031 183 138.746094 182.414062 138.28125 L 170.957031 128.226562 C 170.136719 127.523438 168.96875 127.054688 167.917969 127.054688 C 167.332031 127.054688 166.746094 127.171875 166.164062 127.40625 L 165.695312 127.640625 C 164.058594 128.339844 163.007812 129.863281 162.890625 131.617188 L 161.835938 146.8125 C 161.835938 147.515625 161.953125 148.21875 162.1875 148.917969 Z M 168.5 164.117188 " fill-opacity="1" fill-rule="nonzero"/><g clip-path="url(#97ebc5dbe5)"><path fill="#ffffff" d="M 235.960938 241.980469 C 235.960938 240.695312 235.492188 239.527344 234.558594 238.707031 L 136 139.800781 C 135.0625 138.863281 133.894531 138.394531 132.726562 138.394531 C 131.441406 138.394531 130.269531 138.863281 129.453125 139.800781 L 113.902344 155.464844 C 112.96875 156.285156 112.5 157.453125 112.5 158.738281 C 112.5 160.023438 112.96875 161.195312 113.902344 162.011719 L 212.460938 260.921875 C 213.394531 261.855469 214.566406 262.324219 215.734375 262.324219 C 217.019531 262.324219 218.191406 261.855469 219.007812 260.921875 L 234.558594 245.253906 C 235.492188 244.4375 235.960938 243.269531 235.960938 241.980469 Z M 215.734375 257.648438 L 205.09375 246.890625 L 210.238281 241.746094 C 211.175781 240.8125 211.175781 239.410156 210.238281 238.472656 C 209.304688 237.539062 207.902344 237.539062 206.964844 238.472656 L 201.820312 243.617188 L 196.910156 238.707031 L 202.054688 233.5625 C 202.992188 232.628906 202.992188 231.226562 202.054688 230.289062 C 201.121094 229.355469 199.71875 229.355469 198.78125 230.289062 L 193.636719 235.433594 L 188.726562 230.523438 L 193.871094 225.378906 C 194.808594 224.445312 194.808594 223.042969 193.871094 222.105469 C 192.9375 221.171875 191.535156 221.171875 190.597656 222.105469 L 185.453125 227.25 L 180.542969 222.339844 L 185.6875 217.195312 C 186.625 216.261719 186.625 214.859375 185.6875 213.921875 C 184.753906 212.988281 183.347656 212.988281 182.414062 213.921875 L 177.269531 219.066406 L 172.125 213.921875 L 177.269531 208.777344 C 178.207031 207.84375 178.207031 206.441406 177.269531 205.503906 C 176.335938 204.570312 174.933594 204.570312 173.996094 205.503906 L 168.851562 210.648438 L 163.941406 205.738281 L 169.085938 200.59375 C 170.019531 199.660156 170.019531 198.257812 169.085938 197.320312 C 168.152344 196.386719 166.746094 196.386719 165.8125 197.320312 L 160.667969 202.464844 L 155.757812 197.4375 L 160.902344 192.292969 C 161.835938 191.359375 161.835938 189.957031 160.902344 189.019531 C 159.96875 188.085938 158.5625 188.085938 157.628906 189.019531 L 152.484375 194.164062 L 147.574219 189.253906 L 152.71875 184.109375 C 153.652344 183.175781 153.652344 181.769531 152.71875 180.835938 C 151.78125 179.902344 150.378906 179.902344 149.445312 180.835938 L 144.300781 185.980469 L 139.390625 181.070312 L 144.535156 175.925781 C 145.46875 174.992188 145.46875 173.585938 144.535156 172.652344 C 143.597656 171.714844 142.195312 171.714844 141.261719 172.652344 L 136.117188 177.796875 L 131.207031 172.886719 L 136.351562 167.742188 C 137.285156 166.804688 137.285156 165.402344 136.351562 164.46875 C 135.414062 163.53125 134.011719 163.53125 133.078125 164.46875 L 127.933594 169.613281 L 117.175781 158.738281 L 132.726562 143.074219 L 231.285156 241.980469 Z M 215.734375 257.648438 " fill-opacity="1" fill-rule="nonzero"/></g><g clip-path="url(#9ade4dee13)"><path fill="#ffffff" d="M 179.960938 258.464844 C 180.425781 260.6875 182.414062 262.324219 184.636719 262.324219 L 207.199219 262.324219 L 174.464844 229.472656 Z M 179.960938 258.464844 " fill-opacity="1" fill-rule="nonzero"/></g><g clip-path="url(#28febd16c7)"><path fill="#ffffff" d="M 254.433594 168.792969 L 171.542969 168.792969 L 237.832031 235.433594 C 239.585938 237.1875 240.519531 239.527344 240.519531 241.980469 C 240.519531 244.4375 239.585938 246.773438 237.832031 248.527344 L 224.269531 262.324219 L 238.300781 262.324219 C 240.636719 262.324219 242.625 260.6875 242.976562 258.464844 L 259.109375 174.289062 C 259.34375 173.003906 258.992188 171.601562 258.175781 170.546875 C 257.238281 169.378906 255.953125 168.792969 254.433594 168.792969 Z M 254.433594 168.792969 " fill-opacity="1" fill-rule="nonzero"/></g></svg>