<svg xmlns="http://www.w3.org/2000/svg" xmlns:xlink="http://www.w3.org/1999/xlink" width="500" zoomAndPan="magnify" viewBox="0 0 375 374.999991" height="500" preserveAspectRatio="xMidYMid meet" version="1.0"><defs><clipPath id="55acd81750"><path d="M 0 51.421875 L 375 51.421875 L 375 323.578125 L 0 323.578125 Z M 0 51.421875 " clip-rule="nonzero"/></clipPath><clipPath id="670f54ac50"><path d="M 17.25 51.421875 L 357.75 51.421875 C 362.324219 51.421875 366.710938 53.238281 369.949219 56.472656 C 373.183594 59.710938 375 64.097656 375 68.671875 L 375 306.328125 C 375 310.902344 373.183594 315.289062 369.949219 318.527344 C 366.710938 321.761719 362.324219 323.578125 357.75 323.578125 L 17.25 323.578125 C 12.675781 323.578125 8.289062 321.761719 5.050781 318.527344 C 1.816406 315.289062 0 310.902344 0 306.328125 L 0 68.671875 C 0 64.097656 1.816406 59.710938 5.050781 56.472656 C 8.289062 53.238281 12.675781 51.421875 17.25 51.421875 Z M 17.25 51.421875 " clip-rule="nonzero"/></clipPath><clipPath id="0079bbbd72"><path d="M 0 209.203125 L 375 209.203125 L 375 323.578125 L 0 323.578125 Z M 0 209.203125 " clip-rule="nonzero"/></clipPath><clipPath id="07bd456034"><path d="M 17.25 209.203125 L 357.75 209.203125 C 362.324219 209.203125 366.710938 211.019531 369.949219 214.253906 C 373.183594 217.492188 375 221.878906 375 226.453125 L 375 306.328125 C 375 310.902344 373.183594 315.289062 369.949219 318.527344 C 366.710938 321.761719 362.324219 323.578125 357.75 323.578125 L 17.25 323.578125 C 12.675781 323.578125 8.289062 321.761719 5.050781 318.527344 C 1.816406 315.289062 0 310.902344 0 306.328125 L 0 226.453125 C 0 221.878906 1.816406 217.492188 5.050781 214.253906 C 8.289062 211.019531 12.675781 209.203125 17.25 209.203125 Z M 17.25 209.203125 " clip-rule="nonzero"/></clipPath><clipPath id="01e9f5bae3"><path d="M 0 124.175781 L 375 124.175781 L 375 266.390625 L 0 266.390625 Z M 0 124.175781 " clip-rule="nonzero"/></clipPath><clipPath id="f50779e33a"><path d="M 148.304688 289.703125 L 226.734375 289.703125 L 226.734375 300.078125 L 148.304688 300.078125 Z M 148.304688 289.703125 " clip-rule="nonzero"/></clipPath><clipPath id="e73517a6d9"><path d="M 153.492188 289.703125 L 221.507812 289.703125 C 224.371094 289.703125 226.695312 292.027344 226.695312 294.890625 C 226.695312 297.757812 224.371094 300.078125 221.507812 300.078125 L 153.492188 300.078125 C 150.628906 300.078125 148.304688 297.757812 148.304688 294.890625 C 148.304688 292.027344 150.628906 289.703125 153.492188 289.703125 Z M 153.492188 289.703125 " clip-rule="nonzero"/></clipPath><clipPath id="5c28ff5a7d"><path d="M 16.957031 87.058594 L 358.042969 87.058594 L 358.042969 266.101562 L 16.957031 266.101562 Z M 16.957031 87.058594 " clip-rule="nonzero"/></clipPath><clipPath id="8defaa7bdc"><path d="M 42.746094 97.164062 L 120 97.164062 L 120 226 L 42.746094 226 Z M 42.746094 97.164062 " clip-rule="nonzero"/></clipPath><clipPath id="878908d1a5"><path d="M 63 97.164062 L 194.621094 97.164062 L 194.621094 249.039062 L 63 249.039062 Z M 63 97.164062 " clip-rule="nonzero"/></clipPath><clipPath id="b4c8b68427"><path d="M 219.167969 97.164062 L 332.417969 97.164062 L 332.417969 144.695312 L 219.167969 144.695312 Z M 219.167969 97.164062 " clip-rule="nonzero"/></clipPath><clipPath id="4ea925e2e0"><path d="M 225.167969 97.164062 L 326.253906 97.164062 C 329.566406 97.164062 332.253906 99.851562 332.253906 103.164062 L 332.253906 138.695312 C 332.253906 142.007812 329.566406 144.695312 326.253906 144.695312 L 225.167969 144.695312 C 221.855469 144.695312 219.167969 142.007812 219.167969 138.695312 L 219.167969 103.164062 C 219.167969 99.851562 221.855469 97.164062 225.167969 97.164062 Z M 225.167969 97.164062 " clip-rule="nonzero"/></clipPath><clipPath id="96687cafcc"><path d="M 219.167969 154.40625 L 294.933594 154.40625 L 294.933594 173.496094 L 219.167969 173.496094 Z M 219.167969 154.40625 " clip-rule="nonzero"/></clipPath><clipPath id="d75f144075"><path d="M 220.667969 154.40625 L 293.363281 154.40625 C 293.761719 154.40625 294.140625 154.5625 294.421875 154.84375 C 294.703125 155.125 294.863281 155.507812 294.863281 155.90625 L 294.863281 171.996094 C 294.863281 172.394531 294.703125 172.773438 294.421875 173.054688 C 294.140625 173.335938 293.761719 173.496094 293.363281 173.496094 L 220.667969 173.496094 C 220.269531 173.496094 219.886719 173.335938 219.605469 173.054688 C 219.324219 172.773438 219.167969 172.394531 219.167969 171.996094 L 219.167969 155.90625 C 219.167969 155.507812 219.324219 155.125 219.605469 154.84375 C 219.886719 154.5625 220.269531 154.40625 220.667969 154.40625 Z M 220.667969 154.40625 " clip-rule="nonzero"/></clipPath><clipPath id="b6d7d99464"><path d="M 219.167969 184.835938 L 321.929688 184.835938 L 321.929688 203.925781 L 219.167969 203.925781 Z M 219.167969 184.835938 " clip-rule="nonzero"/></clipPath><clipPath id="092c224a3c"><path d="M 220.667969 184.835938 L 320.417969 184.835938 C 320.816406 184.835938 321.199219 184.992188 321.480469 185.273438 C 321.761719 185.554688 321.917969 185.9375 321.917969 186.335938 L 321.917969 202.425781 C 321.917969 202.824219 321.761719 203.203125 321.480469 203.488281 C 321.199219 203.769531 320.816406 203.925781 320.417969 203.925781 L 220.667969 203.925781 C 220.269531 203.925781 219.886719 203.769531 219.605469 203.488281 C 219.324219 203.203125 219.167969 202.824219 219.167969 202.425781 L 219.167969 186.335938 C 219.167969 185.9375 219.324219 185.554688 219.605469 185.273438 C 219.886719 184.992188 220.269531 184.835938 220.667969 184.835938 Z M 220.667969 184.835938 " clip-rule="nonzero"/></clipPath><clipPath id="0eb060dd0c"><path d="M 219.167969 215.609375 L 263.945312 215.609375 L 263.945312 256.695312 L 219.167969 256.695312 Z M 219.167969 215.609375 " clip-rule="nonzero"/></clipPath><clipPath id="7371bb2857"><path d="M 222.917969 215.609375 L 260.105469 215.609375 C 261.097656 215.609375 262.054688 216.003906 262.757812 216.707031 C 263.460938 217.410156 263.855469 218.363281 263.855469 219.359375 L 263.855469 252.945312 C 263.855469 253.9375 263.460938 254.890625 262.757812 255.59375 C 262.054688 256.296875 261.097656 256.695312 260.105469 256.695312 L 222.917969 256.695312 C 221.921875 256.695312 220.96875 256.296875 220.265625 255.59375 C 219.5625 254.890625 219.167969 253.9375 219.167969 252.945312 L 219.167969 219.359375 C 219.167969 218.363281 219.5625 217.410156 220.265625 216.707031 C 220.96875 216.003906 221.921875 215.609375 222.917969 215.609375 Z M 222.917969 215.609375 " clip-rule="nonzero"/></clipPath><clipPath id="e018b0bef2"><path d="M 277.230469 215.609375 L 322 215.609375 L 322 256.695312 L 277.230469 256.695312 Z M 277.230469 215.609375 " clip-rule="nonzero"/></clipPath><clipPath id="4f9fba7492"><path d="M 280.980469 215.609375 L 318.167969 215.609375 C 319.164062 215.609375 320.117188 216.003906 320.820312 216.707031 C 321.523438 217.410156 321.917969 218.363281 321.917969 219.359375 L 321.917969 252.945312 C 321.917969 253.9375 321.523438 254.890625 320.820312 255.59375 C 320.117188 256.296875 319.164062 256.695312 318.167969 256.695312 L 280.980469 256.695312 C 279.988281 256.695312 279.035156 256.296875 278.328125 255.59375 C 277.625 254.890625 277.230469 253.9375 277.230469 252.945312 L 277.230469 219.359375 C 277.230469 218.363281 277.625 217.410156 278.328125 216.707031 C 279.035156 216.003906 279.988281 215.609375 280.980469 215.609375 Z M 280.980469 215.609375 " clip-rule="nonzero"/></clipPath></defs><g clip-path="url(#55acd81750)"><g clip-path="url(#670f54ac50)"><path fill="#a6a6a6" d="M 0 51.421875 L 375.277344 51.421875 L 375.277344 323.578125 L 0 323.578125 Z M 0 51.421875 " fill-opacity="1" fill-rule="nonzero"/></g></g><g clip-path="url(#0079bbbd72)"><g clip-path="url(#07bd456034)"><path fill="#d9d9d9" d="M 0 209.203125 L 374.847656 209.203125 L 374.847656 323.578125 L 0 323.578125 Z M 0 209.203125 " fill-opacity="1" fill-rule="nonzero"/></g></g><g clip-path="url(#01e9f5bae3)"><path fill="#a6a6a6" d="M 0 124.175781 L 374.980469 124.175781 L 374.980469 266.390625 L 0 266.390625 Z M 0 124.175781 " fill-opacity="1" fill-rule="nonzero"/></g><g clip-path="url(#f50779e33a)"><g clip-path="url(#e73517a6d9)"><path fill="#a6a6a6" d="M 148.304688 289.703125 L 226.695312 289.703125 L 226.695312 300.082031 L 148.304688 300.082031 Z M 148.304688 289.703125 " fill-opacity="1" fill-rule="nonzero"/></g></g><g clip-path="url(#5c28ff5a7d)"><path fill="#264653" d="M 16.957031 87.058594 L 358.257812 87.058594 L 358.257812 266.101562 L 16.957031 266.101562 Z M 16.957031 87.058594 " fill-opacity="1" fill-rule="nonzero"/></g><g clip-path="url(#8defaa7bdc)"><path fill="#2a9d8f" d="M 73.308594 173.46875 C 73.308594 171.96875 73.382812 170.472656 73.527344 168.980469 C 73.675781 167.488281 73.894531 166.007812 74.1875 164.535156 C 74.480469 163.066406 74.84375 161.613281 75.28125 160.179688 C 75.714844 158.742188 76.21875 157.332031 76.792969 155.949219 C 77.367188 154.5625 78.007812 153.210938 78.714844 151.886719 C 79.421875 150.566406 80.191406 149.28125 81.023438 148.035156 C 81.855469 146.789062 82.75 145.585938 83.699219 144.425781 C 84.652344 143.265625 85.65625 142.15625 86.71875 141.097656 C 87.777344 140.039062 88.886719 139.03125 90.046875 138.082031 C 91.203125 137.128906 92.40625 136.238281 93.65625 135.40625 C 94.902344 134.570312 96.183594 133.800781 97.507812 133.09375 C 98.828125 132.386719 100.183594 131.746094 101.570312 131.175781 C 102.953125 130.601562 104.363281 130.09375 105.796875 129.660156 C 107.234375 129.226562 108.6875 128.859375 110.15625 128.570312 C 111.625 128.277344 113.109375 128.054688 114.601562 127.910156 C 116.09375 127.761719 117.585938 127.6875 119.085938 127.6875 L 119.09375 127.6875 L 119.09375 97.164062 L 119.085938 97.164062 C 76.953125 97.164062 42.792969 131.328125 42.792969 173.46875 C 42.785156 178.257812 43.230469 183.007812 44.121094 187.714844 C 45.015625 192.421875 46.339844 197.003906 48.101562 201.460938 C 49.859375 205.917969 52.019531 210.167969 54.582031 214.21875 C 57.144531 218.265625 60.0625 222.039062 63.339844 225.535156 L 85.65625 204.671875 C 83.691406 202.578125 81.9375 200.320312 80.398438 197.894531 C 78.859375 195.46875 77.5625 192.917969 76.503906 190.25 C 75.449219 187.578125 74.652344 184.832031 74.113281 182.007812 C 73.574219 179.1875 73.308594 176.339844 73.308594 173.46875 Z M 73.308594 173.46875 " fill-opacity="1" fill-rule="nonzero"/></g><g clip-path="url(#878908d1a5)"><path fill="#f4a261" d="M 119.09375 97.164062 L 119.09375 127.6875 C 120.042969 127.6875 120.984375 127.714844 121.929688 127.773438 C 122.875 127.828125 123.8125 127.917969 124.753906 128.03125 C 125.691406 128.148438 126.625 128.292969 127.554688 128.464844 C 128.484375 128.636719 129.40625 128.839844 130.324219 129.070312 C 131.242188 129.300781 132.148438 129.558594 133.050781 129.847656 C 133.953125 130.132812 134.84375 130.449219 135.722656 130.789062 C 136.605469 131.132812 137.476562 131.503906 138.332031 131.898438 C 139.191406 132.292969 140.039062 132.714844 140.871094 133.164062 C 141.703125 133.613281 142.519531 134.085938 143.324219 134.585938 C 144.125 135.085938 144.914062 135.609375 145.683594 136.15625 C 146.453125 136.703125 147.207031 137.273438 147.941406 137.871094 C 148.675781 138.464844 149.394531 139.082031 150.089844 139.71875 C 150.789062 140.359375 151.464844 141.019531 152.121094 141.699219 C 152.777344 142.378906 153.410156 143.078125 154.023438 143.800781 C 154.636719 144.519531 155.226562 145.257812 155.792969 146.015625 C 156.359375 146.773438 156.902344 147.546875 157.421875 148.335938 C 157.941406 149.125 158.433594 149.929688 158.90625 150.75 C 159.375 151.574219 159.816406 152.40625 160.234375 153.253906 C 160.652344 154.105469 161.042969 154.964844 161.40625 155.835938 C 161.769531 156.710938 162.109375 157.59375 162.417969 158.484375 C 162.726562 159.378906 163.007812 160.28125 163.261719 161.191406 C 163.515625 162.101562 163.742188 163.019531 163.9375 163.945312 C 164.132812 164.871094 164.300781 165.800781 164.441406 166.734375 C 164.578125 167.671875 164.691406 168.609375 164.769531 169.550781 C 164.851562 170.492188 164.902344 171.4375 164.925781 172.382812 C 164.949219 173.328125 164.941406 174.273438 164.90625 175.21875 C 164.871094 176.160156 164.804688 177.105469 164.710938 178.046875 C 164.617188 178.984375 164.492188 179.921875 164.339844 180.855469 C 164.1875 181.789062 164.003906 182.714844 163.796875 183.636719 C 163.585938 184.558594 163.347656 185.472656 163.082031 186.382812 C 162.8125 187.289062 162.519531 188.1875 162.195312 189.074219 C 161.875 189.964844 161.527344 190.84375 161.148438 191.710938 C 160.773438 192.578125 160.367188 193.429688 159.9375 194.273438 C 159.507812 195.117188 159.054688 195.945312 158.574219 196.757812 C 158.09375 197.570312 157.585938 198.371094 157.054688 199.152344 C 156.527344 199.9375 155.972656 200.703125 155.394531 201.449219 C 154.816406 202.199219 154.214844 202.925781 153.59375 203.640625 C 152.96875 204.351562 152.324219 205.042969 151.660156 205.710938 C 150.992188 206.382812 150.308594 207.035156 149.601562 207.664062 C 148.894531 208.289062 148.171875 208.898438 147.425781 209.480469 C 146.683594 210.066406 145.921875 210.625 145.144531 211.160156 C 144.367188 211.699219 143.570312 212.210938 142.761719 212.699219 C 141.949219 213.183594 141.125 213.648438 140.289062 214.082031 C 139.449219 214.519531 138.597656 214.929688 137.734375 215.3125 C 136.871094 215.699219 135.996094 216.054688 135.109375 216.382812 C 134.222656 216.710938 133.324219 217.015625 132.421875 217.289062 C 131.515625 217.5625 130.605469 217.808594 129.683594 218.023438 C 128.761719 218.242188 127.835938 218.429688 126.90625 218.589844 C 125.972656 218.75 125.039062 218.882812 124.097656 218.984375 C 123.15625 219.085938 122.214844 219.160156 121.269531 219.203125 C 120.328125 219.246094 119.382812 219.261719 118.4375 219.246094 C 117.492188 219.230469 116.546875 219.1875 115.605469 219.113281 C 114.664062 219.039062 113.722656 218.9375 112.785156 218.804688 C 111.851562 218.675781 110.917969 218.515625 109.992188 218.324219 C 109.066406 218.136719 108.148438 217.917969 107.234375 217.671875 C 106.320312 217.425781 105.417969 217.152344 104.519531 216.847656 C 103.625 216.546875 102.738281 216.21875 101.863281 215.859375 C 100.988281 215.503906 100.125 215.117188 99.273438 214.707031 C 98.421875 214.296875 97.582031 213.859375 96.757812 213.398438 C 95.933594 212.9375 95.125 212.449219 94.332031 211.9375 C 93.535156 211.421875 92.757812 210.886719 91.996094 210.324219 C 91.234375 209.765625 90.492188 209.179688 89.769531 208.574219 C 89.042969 207.964844 88.339844 207.335938 87.652344 206.6875 C 86.964844 206.035156 86.300781 205.367188 85.65625 204.671875 L 63.339844 225.535156 C 65.117188 227.441406 66.988281 229.253906 68.949219 230.972656 C 70.914062 232.6875 72.960938 234.296875 75.089844 235.804688 C 77.21875 237.3125 79.417969 238.703125 81.691406 239.984375 C 83.964844 241.261719 86.296875 242.421875 88.6875 243.460938 C 91.078125 244.503906 93.519531 245.417969 96.003906 246.207031 C 98.488281 246.996094 101.007812 247.65625 103.5625 248.183594 C 106.117188 248.714844 108.6875 249.113281 111.285156 249.378906 C 113.878906 249.644531 116.480469 249.773438 119.085938 249.773438 C 161.230469 249.773438 195.386719 215.605469 195.386719 173.46875 C 195.386719 131.328125 161.230469 97.164062 119.09375 97.164062 Z M 119.09375 97.164062 " fill-opacity="1" fill-rule="nonzero"/></g><g clip-path="url(#b4c8b68427)"><g clip-path="url(#4ea925e2e0)"><path fill="#e76f51" d="M 219.167969 97.164062 L 332.230469 97.164062 L 332.230469 144.695312 L 219.167969 144.695312 Z M 219.167969 97.164062 " fill-opacity="1" fill-rule="nonzero"/></g></g><g clip-path="url(#96687cafcc)"><g clip-path="url(#d75f144075)"><path fill="#2a9d8f" d="M 219.167969 154.40625 L 294.859375 154.40625 L 294.859375 173.496094 L 219.167969 173.496094 Z M 219.167969 154.40625 " fill-opacity="1" fill-rule="nonzero"/></g></g><g clip-path="url(#b6d7d99464)"><g clip-path="url(#092c224a3c)"><path fill="#e9c46a" d="M 219.167969 184.835938 L 321.929688 184.835938 L 321.929688 203.925781 L 219.167969 203.925781 Z M 219.167969 184.835938 " fill-opacity="1" fill-rule="nonzero"/></g></g><g clip-path="url(#0eb060dd0c)"><g clip-path="url(#7371bb2857)"><path fill="#2a9d8f" d="M 219.167969 215.609375 L 263.785156 215.609375 L 263.785156 256.695312 L 219.167969 256.695312 Z M 219.167969 215.609375 " fill-opacity="1" fill-rule="nonzero"/></g></g><g clip-path="url(#e018b0bef2)"><g clip-path="url(#4f9fba7492)"><path fill="#f4a261" d="M 277.230469 215.609375 L 321.847656 215.609375 L 321.847656 256.695312 L 277.230469 256.695312 Z M 277.230469 215.609375 " fill-opacity="1" fill-rule="nonzero"/></g></g></svg>