<svg xmlns="http://www.w3.org/2000/svg" xmlns:xlink="http://www.w3.org/1999/xlink" width="500" zoomAndPan="magnify" viewBox="0 0 375 374.999991" height="500" preserveAspectRatio="xMidYMid meet" version="1.0"><defs><g/></defs><g fill="#264653" fill-opacity="1"><g transform="translate(3.338057, 199.830685)"><g><path d="M 49.0625 0 L 24.375 -32.4375 L 24.375 0 L 6.484375 0 L 6.484375 -73.453125 L 24.375 -73.453125 L 24.375 -41.21875 L 48.859375 -73.453125 L 69.890625 -73.453125 L 41.4375 -37.453125 L 70.9375 0 Z M 49.0625 0 "/></g></g></g><g fill="#264653" fill-opacity="1"><g transform="translate(76.26007, 199.830685)"><g><path d="M 24.0625 -73.453125 L 24.0625 -29.5 C 24.0625 -25.101562 25.140625 -21.71875 27.296875 -19.34375 C 29.460938 -16.976562 32.640625 -15.796875 36.828125 -15.796875 C 41.015625 -15.796875 44.222656 -16.976562 46.453125 -19.34375 C 48.679688 -21.71875 49.796875 -25.101562 49.796875 -29.5 L 49.796875 -73.453125 L 67.6875 -73.453125 L 67.6875 -29.609375 C 67.6875 -23.054688 66.289062 -17.507812 63.5 -12.96875 C 60.71875 -8.4375 56.972656 -5.019531 52.265625 -2.71875 C 47.554688 -0.414062 42.304688 0.734375 36.515625 0.734375 C 30.722656 0.734375 25.539062 -0.394531 20.96875 -2.65625 C 16.40625 -4.925781 12.796875 -8.347656 10.140625 -12.921875 C 7.492188 -17.492188 6.171875 -23.054688 6.171875 -29.609375 L 6.171875 -73.453125 Z M 24.0625 -73.453125 "/></g></g></g><g fill="#e76f51" fill-opacity="1"><g transform="translate(150.029457, 199.830685)"><g><path d="M 24.375 -59.109375 L 24.375 -44.25 L 48.34375 -44.25 L 48.34375 -30.453125 L 24.375 -30.453125 L 24.375 -14.328125 L 51.46875 -14.328125 L 51.46875 0 L 6.484375 0 L 6.484375 -73.453125 L 51.46875 -73.453125 L 51.46875 -59.109375 Z M 24.375 -59.109375 "/></g></g></g><g fill="#f4a261" fill-opacity="1"><g transform="translate(206.649329, 199.830685)"><g><path d="M 50.953125 -37.671875 C 55.203125 -36.765625 58.617188 -34.648438 61.203125 -31.328125 C 63.785156 -28.015625 65.078125 -24.234375 65.078125 -19.984375 C 65.078125 -13.847656 62.929688 -8.984375 58.640625 -5.390625 C 54.347656 -1.796875 48.367188 0 40.703125 0 L 6.484375 0 L 6.484375 -73.453125 L 39.546875 -73.453125 C 47.015625 -73.453125 52.859375 -71.738281 57.078125 -68.3125 C 61.296875 -64.894531 63.40625 -60.257812 63.40625 -54.40625 C 63.40625 -50.082031 62.269531 -46.488281 60 -43.625 C 57.738281 -40.769531 54.722656 -38.785156 50.953125 -37.671875 Z M 24.375 -43.734375 L 36.09375 -43.734375 C 39.019531 -43.734375 41.269531 -44.378906 42.84375 -45.671875 C 44.414062 -46.960938 45.203125 -48.863281 45.203125 -51.375 C 45.203125 -53.882812 44.414062 -55.800781 42.84375 -57.125 C 41.269531 -58.445312 39.019531 -59.109375 36.09375 -59.109375 L 24.375 -59.109375 Z M 37.5625 -14.4375 C 40.5625 -14.4375 42.878906 -15.113281 44.515625 -16.46875 C 46.160156 -17.832031 46.984375 -19.804688 46.984375 -22.390625 C 46.984375 -24.972656 46.125 -26.992188 44.40625 -28.453125 C 42.695312 -29.921875 40.34375 -30.65625 37.34375 -30.65625 L 24.375 -30.65625 L 24.375 -14.4375 Z M 37.5625 -14.4375 "/></g></g></g><g fill="#e9c46a" fill-opacity="1"><g transform="translate(275.605268, 199.830685)"><g><path d="M 89.65625 -73.453125 L 89.65625 0 L 71.765625 0 L 71.765625 -44.046875 L 55.34375 0 L 40.90625 0 L 24.375 -44.15625 L 24.375 0 L 6.484375 0 L 6.484375 -73.453125 L 27.625 -73.453125 L 48.234375 -22.59375 L 68.640625 -73.453125 Z M 89.65625 -73.453125 "/></g></g></g><g fill="#264653" fill-opacity="1"><g transform="translate(0.0609735, 261.161046)"><g><path d="M 6.90625 -25.578125 L 6.90625 -16.015625 L 17.328125 -16.015625 L 17.328125 -12.9375 L 6.90625 -12.9375 L 6.90625 -3.078125 L 18.5625 -3.078125 L 18.5625 0 L 3.15625 0 L 3.15625 -28.65625 L 18.5625 -28.65625 L 18.5625 -25.578125 Z M 6.90625 -25.578125 "/></g></g></g><g fill="#264653" fill-opacity="1"><g transform="translate(21.120918, 261.161046)"><g><path d="M 1.765625 -11.328125 C 1.765625 -13.628906 2.226562 -15.648438 3.15625 -17.390625 C 4.09375 -19.128906 5.375 -20.476562 7 -21.4375 C 8.625 -22.394531 10.453125 -22.875 12.484375 -22.875 C 14.429688 -22.875 16.132812 -22.441406 17.59375 -21.578125 C 19.0625 -20.710938 20.132812 -19.648438 20.8125 -18.390625 L 20.8125 -22.5 L 24.59375 -22.5 L 24.59375 10.671875 L 20.8125 10.671875 L 20.8125 -4.140625 C 20.101562 -2.890625 19.007812 -1.820312 17.53125 -0.9375 C 16.050781 -0.0625 14.328125 0.375 12.359375 0.375 C 10.390625 0.375 8.597656 -0.117188 6.984375 -1.109375 C 5.367188 -2.097656 4.09375 -3.476562 3.15625 -5.25 C 2.226562 -7.03125 1.765625 -9.054688 1.765625 -11.328125 Z M 20.8125 -11.296875 C 20.8125 -12.992188 20.46875 -14.46875 19.78125 -15.71875 C 19.101562 -16.976562 18.179688 -17.941406 17.015625 -18.609375 C 15.859375 -19.285156 14.582031 -19.625 13.1875 -19.625 C 11.789062 -19.625 10.515625 -19.296875 9.359375 -18.640625 C 8.210938 -17.984375 7.296875 -17.023438 6.609375 -15.765625 C 5.921875 -14.503906 5.578125 -13.023438 5.578125 -11.328125 C 5.578125 -9.609375 5.921875 -8.109375 6.609375 -6.828125 C 7.296875 -5.554688 8.210938 -4.585938 9.359375 -3.921875 C 10.515625 -3.253906 11.789062 -2.921875 13.1875 -2.921875 C 14.582031 -2.921875 15.859375 -3.253906 17.015625 -3.921875 C 18.179688 -4.585938 19.101562 -5.554688 19.78125 -6.828125 C 20.46875 -8.109375 20.8125 -9.597656 20.8125 -11.296875 Z M 20.8125 -11.296875 "/></g></g></g><g fill="#264653" fill-opacity="1"><g transform="translate(48.872428, 261.161046)"><g><path d="M 23.125 -22.5 L 23.125 0 L 19.375 0 L 19.375 -3.328125 C 18.664062 -2.171875 17.675781 -1.269531 16.40625 -0.625 C 15.132812 0.0078125 13.734375 0.328125 12.203125 0.328125 C 10.441406 0.328125 8.863281 -0.03125 7.46875 -0.75 C 6.070312 -1.476562 4.96875 -2.566406 4.15625 -4.015625 C 3.351562 -5.472656 2.953125 -7.242188 2.953125 -9.328125 L 2.953125 -22.5 L 6.65625 -22.5 L 6.65625 -9.8125 C 6.65625 -7.59375 7.210938 -5.890625 8.328125 -4.703125 C 9.453125 -3.515625 10.988281 -2.921875 12.9375 -2.921875 C 14.9375 -2.921875 16.507812 -3.535156 17.65625 -4.765625 C 18.800781 -5.992188 19.375 -7.785156 19.375 -10.140625 L 19.375 -22.5 Z M 23.125 -22.5 "/></g></g></g><g fill="#264653" fill-opacity="1"><g transform="translate(75.146056, 261.161046)"><g><path d="M 5.09375 -26.15625 C 4.382812 -26.15625 3.78125 -26.398438 3.28125 -26.890625 C 2.789062 -27.390625 2.546875 -27.992188 2.546875 -28.703125 C 2.546875 -29.410156 2.789062 -30.007812 3.28125 -30.5 C 3.78125 -31 4.382812 -31.25 5.09375 -31.25 C 5.78125 -31.25 6.363281 -31 6.84375 -30.5 C 7.320312 -30.007812 7.5625 -29.410156 7.5625 -28.703125 C 7.5625 -27.992188 7.320312 -27.390625 6.84375 -26.890625 C 6.363281 -26.398438 5.78125 -26.15625 5.09375 -26.15625 Z M 6.90625 -22.5 L 6.90625 0 L 3.15625 0 L 3.15625 -22.5 Z M 6.90625 -22.5 "/></g></g></g><g fill="#264653" fill-opacity="1"><g transform="translate(85.244978, 261.161046)"><g><path d="M 6.90625 -18.359375 C 7.632812 -19.640625 8.734375 -20.710938 10.203125 -21.578125 C 11.671875 -22.441406 13.375 -22.875 15.3125 -22.875 C 17.3125 -22.875 19.125 -22.394531 20.75 -21.4375 C 22.382812 -20.476562 23.664062 -19.128906 24.59375 -17.390625 C 25.53125 -15.648438 26 -13.628906 26 -11.328125 C 26 -9.054688 25.53125 -7.03125 24.59375 -5.25 C 23.664062 -3.476562 22.382812 -2.097656 20.75 -1.109375 C 19.125 -0.117188 17.3125 0.375 15.3125 0.375 C 13.394531 0.375 11.703125 -0.0546875 10.234375 -0.921875 C 8.773438 -1.785156 7.664062 -2.859375 6.90625 -4.140625 L 6.90625 10.671875 L 3.15625 10.671875 L 3.15625 -22.5 L 6.90625 -22.5 Z M 22.171875 -11.328125 C 22.171875 -13.023438 21.828125 -14.503906 21.140625 -15.765625 C 20.460938 -17.023438 19.539062 -17.984375 18.375 -18.640625 C 17.207031 -19.296875 15.925781 -19.625 14.53125 -19.625 C 13.164062 -19.625 11.898438 -19.285156 10.734375 -18.609375 C 9.578125 -17.941406 8.648438 -16.972656 7.953125 -15.703125 C 7.253906 -14.429688 6.90625 -12.960938 6.90625 -11.296875 C 6.90625 -9.597656 7.253906 -8.109375 7.953125 -6.828125 C 8.648438 -5.554688 9.578125 -4.585938 10.734375 -3.921875 C 11.898438 -3.253906 13.164062 -2.921875 14.53125 -2.921875 C 15.925781 -2.921875 17.207031 -3.253906 18.375 -3.921875 C 19.539062 -4.585938 20.460938 -5.554688 21.140625 -6.828125 C 21.828125 -8.109375 22.171875 -9.609375 22.171875 -11.328125 Z M 22.171875 -11.328125 "/></g></g></g><g fill="#264653" fill-opacity="1"><g transform="translate(112.996488, 261.161046)"><g><path d="M 30.21875 -22.90625 C 31.96875 -22.90625 33.523438 -22.539062 34.890625 -21.8125 C 36.265625 -21.09375 37.347656 -20.007812 38.140625 -18.5625 C 38.941406 -17.113281 39.34375 -15.347656 39.34375 -13.265625 L 39.34375 0 L 35.640625 0 L 35.640625 -12.734375 C 35.640625 -14.972656 35.082031 -16.6875 33.96875 -17.875 C 32.863281 -19.070312 31.367188 -19.671875 29.484375 -19.671875 C 27.535156 -19.671875 25.988281 -19.046875 24.84375 -17.796875 C 23.695312 -16.554688 23.125 -14.757812 23.125 -12.40625 L 23.125 0 L 19.421875 0 L 19.421875 -12.734375 C 19.421875 -14.972656 18.863281 -16.6875 17.75 -17.875 C 16.644531 -19.070312 15.148438 -19.671875 13.265625 -19.671875 C 11.316406 -19.671875 9.769531 -19.046875 8.625 -17.796875 C 7.476562 -16.554688 6.90625 -14.757812 6.90625 -12.40625 L 6.90625 0 L 3.15625 0 L 3.15625 -22.5 L 6.90625 -22.5 L 6.90625 -19.265625 C 7.632812 -20.441406 8.625 -21.34375 9.875 -21.96875 C 11.125 -22.59375 12.5 -22.90625 14 -22.90625 C 15.882812 -22.90625 17.550781 -22.476562 19 -21.625 C 20.457031 -20.78125 21.539062 -19.539062 22.25 -17.90625 C 22.882812 -19.488281 23.925781 -20.71875 25.375 -21.59375 C 26.820312 -22.46875 28.4375 -22.90625 30.21875 -22.90625 Z M 30.21875 -22.90625 "/></g></g></g><g fill="#264653" fill-opacity="1"><g transform="translate(155.280609, 261.161046)"><g><path d="M 23.6875 -12.109375 C 23.6875 -11.398438 23.644531 -10.648438 23.5625 -9.859375 L 5.578125 -9.859375 C 5.722656 -7.640625 6.484375 -5.90625 7.859375 -4.65625 C 9.242188 -3.414062 10.921875 -2.796875 12.890625 -2.796875 C 14.503906 -2.796875 15.851562 -3.171875 16.9375 -3.921875 C 18.019531 -4.671875 18.78125 -5.675781 19.21875 -6.9375 L 23.234375 -6.9375 C 22.640625 -4.78125 21.4375 -3.019531 19.625 -1.65625 C 17.820312 -0.300781 15.578125 0.375 12.890625 0.375 C 10.753906 0.375 8.84375 -0.101562 7.15625 -1.0625 C 5.476562 -2.019531 4.160156 -3.378906 3.203125 -5.140625 C 2.242188 -6.910156 1.765625 -8.960938 1.765625 -11.296875 C 1.765625 -13.617188 2.226562 -15.65625 3.15625 -17.40625 C 4.09375 -19.15625 5.398438 -20.503906 7.078125 -21.453125 C 8.765625 -22.398438 10.703125 -22.875 12.890625 -22.875 C 15.023438 -22.875 16.914062 -22.40625 18.5625 -21.46875 C 20.207031 -20.539062 21.472656 -19.257812 22.359375 -17.625 C 23.242188 -16 23.6875 -14.160156 23.6875 -12.109375 Z M 19.828125 -12.890625 C 19.828125 -14.316406 19.507812 -15.539062 18.875 -16.5625 C 18.25 -17.59375 17.394531 -18.375 16.3125 -18.90625 C 15.238281 -19.4375 14.046875 -19.703125 12.734375 -19.703125 C 10.835938 -19.703125 9.222656 -19.097656 7.890625 -17.890625 C 6.566406 -16.691406 5.8125 -15.023438 5.625 -12.890625 Z M 19.828125 -12.890625 "/></g></g></g><g fill="#264653" fill-opacity="1"><g transform="translate(180.73318, 261.161046)"><g><path d="M 14.125 -22.90625 C 16.863281 -22.90625 19.082031 -22.078125 20.78125 -20.421875 C 22.476562 -18.765625 23.328125 -16.378906 23.328125 -13.265625 L 23.328125 0 L 19.625 0 L 19.625 -12.734375 C 19.625 -14.972656 19.0625 -16.6875 17.9375 -17.875 C 16.820312 -19.070312 15.289062 -19.671875 13.34375 -19.671875 C 11.375 -19.671875 9.804688 -19.050781 8.640625 -17.8125 C 7.484375 -16.582031 6.90625 -14.789062 6.90625 -12.4375 L 6.90625 0 L 3.15625 0 L 3.15625 -22.5 L 6.90625 -22.5 L 6.90625 -19.296875 C 7.632812 -20.453125 8.632812 -21.34375 9.90625 -21.96875 C 11.1875 -22.59375 12.59375 -22.90625 14.125 -22.90625 Z M 14.125 -22.90625 "/></g></g></g><g fill="#264653" fill-opacity="1"><g transform="translate(207.006807, 261.161046)"><g><path d="M 7.71875 -19.421875 L 7.71875 -6.15625 C 7.71875 -5.0625 7.945312 -4.285156 8.40625 -3.828125 C 8.875 -3.378906 9.6875 -3.15625 10.84375 -3.15625 L 13.59375 -3.15625 L 13.59375 0 L 10.21875 0 C 8.144531 0 6.585938 -0.476562 5.546875 -1.4375 C 4.503906 -2.394531 3.984375 -3.96875 3.984375 -6.15625 L 3.984375 -19.421875 L 1.0625 -19.421875 L 1.0625 -22.5 L 3.984375 -22.5 L 3.984375 -28.171875 L 7.71875 -28.171875 L 7.71875 -22.5 L 13.59375 -22.5 L 13.59375 -19.421875 Z M 7.71875 -19.421875 "/></g></g></g><g fill="#264653" fill-opacity="1"><g transform="translate(221.949927, 261.161046)"><g/></g></g><g fill="#264653" fill-opacity="1"><g transform="translate(232.910949, 261.161046)"><g><path d="M 17.5 -14.734375 C 18.53125 -14.578125 19.476562 -14.15625 20.34375 -13.46875 C 21.207031 -12.78125 21.890625 -11.929688 22.390625 -10.921875 C 22.898438 -9.910156 23.15625 -8.828125 23.15625 -7.671875 C 23.15625 -6.222656 22.785156 -4.914062 22.046875 -3.75 C 21.304688 -2.59375 20.234375 -1.675781 18.828125 -1 C 17.421875 -0.332031 15.757812 0 13.84375 0 L 3.15625 0 L 3.15625 -28.625 L 13.421875 -28.625 C 15.367188 -28.625 17.023438 -28.300781 18.390625 -27.65625 C 19.765625 -27.007812 20.789062 -26.140625 21.46875 -25.046875 C 22.15625 -23.953125 22.5 -22.722656 22.5 -21.359375 C 22.5 -19.660156 22.039062 -18.253906 21.125 -17.140625 C 20.207031 -16.035156 19 -15.234375 17.5 -14.734375 Z M 6.90625 -16.265625 L 13.1875 -16.265625 C 14.9375 -16.265625 16.289062 -16.671875 17.25 -17.484375 C 18.207031 -18.304688 18.6875 -19.445312 18.6875 -20.90625 C 18.6875 -22.351562 18.207031 -23.488281 17.25 -24.3125 C 16.289062 -25.132812 14.90625 -25.546875 13.09375 -25.546875 L 6.90625 -25.546875 Z M 13.515625 -3.078125 C 15.367188 -3.078125 16.816406 -3.515625 17.859375 -4.390625 C 18.898438 -5.265625 19.421875 -6.484375 19.421875 -8.046875 C 19.421875 -9.640625 18.875 -10.894531 17.78125 -11.8125 C 16.6875 -12.726562 15.222656 -13.1875 13.390625 -13.1875 L 6.90625 -13.1875 L 6.90625 -3.078125 Z M 13.515625 -3.078125 "/></g></g></g><g fill="#264653" fill-opacity="1"><g transform="translate(258.07616, 261.161046)"><g><path d="M 12.96875 0.375 C 10.863281 0.375 8.957031 -0.101562 7.25 -1.0625 C 5.539062 -2.019531 4.195312 -3.378906 3.21875 -5.140625 C 2.25 -6.910156 1.765625 -8.960938 1.765625 -11.296875 C 1.765625 -13.585938 2.265625 -15.613281 3.265625 -17.375 C 4.265625 -19.144531 5.625 -20.503906 7.34375 -21.453125 C 9.070312 -22.398438 11.003906 -22.875 13.140625 -22.875 C 15.273438 -22.875 17.203125 -22.398438 18.921875 -21.453125 C 20.648438 -20.503906 22.015625 -19.15625 23.015625 -17.40625 C 24.015625 -15.65625 24.515625 -13.617188 24.515625 -11.296875 C 24.515625 -8.960938 24 -6.910156 22.96875 -5.140625 C 21.945312 -3.378906 20.554688 -2.019531 18.796875 -1.0625 C 17.046875 -0.101562 15.101562 0.375 12.96875 0.375 Z M 12.96875 -2.921875 C 14.3125 -2.921875 15.570312 -3.234375 16.75 -3.859375 C 17.925781 -4.484375 18.878906 -5.425781 19.609375 -6.6875 C 20.335938 -7.945312 20.703125 -9.484375 20.703125 -11.296875 C 20.703125 -13.097656 20.34375 -14.628906 19.625 -15.890625 C 18.914062 -17.148438 17.984375 -18.085938 16.828125 -18.703125 C 15.679688 -19.316406 14.4375 -19.625 13.09375 -19.625 C 11.726562 -19.625 10.476562 -19.316406 9.34375 -18.703125 C 8.207031 -18.085938 7.296875 -17.148438 6.609375 -15.890625 C 5.921875 -14.628906 5.578125 -13.097656 5.578125 -11.296875 C 5.578125 -9.460938 5.910156 -7.914062 6.578125 -6.65625 C 7.253906 -5.394531 8.15625 -4.457031 9.28125 -3.84375 C 10.40625 -3.226562 11.632812 -2.921875 12.96875 -2.921875 Z M 12.96875 -2.921875 "/></g></g></g><g fill="#264653" fill-opacity="1"><g transform="translate(284.349788, 261.161046)"><g><path d="M 6.90625 -18.84375 C 7.5625 -20.132812 8.492188 -21.132812 9.703125 -21.84375 C 10.921875 -22.550781 12.410156 -22.90625 14.171875 -22.90625 L 14.171875 -19.046875 L 13.1875 -19.046875 C 9 -19.046875 6.90625 -16.773438 6.90625 -12.234375 L 6.90625 0 L 3.15625 0 L 3.15625 -22.5 L 6.90625 -22.5 Z M 6.90625 -18.84375 "/></g></g></g><g fill="#264653" fill-opacity="1"><g transform="translate(299.662393, 261.161046)"><g><path d="M 6.90625 -18.84375 C 7.5625 -20.132812 8.492188 -21.132812 9.703125 -21.84375 C 10.921875 -22.550781 12.410156 -22.90625 14.171875 -22.90625 L 14.171875 -19.046875 L 13.1875 -19.046875 C 9 -19.046875 6.90625 -16.773438 6.90625 -12.234375 L 6.90625 0 L 3.15625 0 L 3.15625 -22.5 L 6.90625 -22.5 Z M 6.90625 -18.84375 "/></g></g></g><g fill="#264653" fill-opacity="1"><g transform="translate(314.974998, 261.161046)"><g><path d="M 12.96875 0.375 C 10.863281 0.375 8.957031 -0.101562 7.25 -1.0625 C 5.539062 -2.019531 4.195312 -3.378906 3.21875 -5.140625 C 2.25 -6.910156 1.765625 -8.960938 1.765625 -11.296875 C 1.765625 -13.585938 2.265625 -15.613281 3.265625 -17.375 C 4.265625 -19.144531 5.625 -20.503906 7.34375 -21.453125 C 9.070312 -22.398438 11.003906 -22.875 13.140625 -22.875 C 15.273438 -22.875 17.203125 -22.398438 18.921875 -21.453125 C 20.648438 -20.503906 22.015625 -19.15625 23.015625 -17.40625 C 24.015625 -15.65625 24.515625 -13.617188 24.515625 -11.296875 C 24.515625 -8.960938 24 -6.910156 22.96875 -5.140625 C 21.945312 -3.378906 20.554688 -2.019531 18.796875 -1.0625 C 17.046875 -0.101562 15.101562 0.375 12.96875 0.375 Z M 12.96875 -2.921875 C 14.3125 -2.921875 15.570312 -3.234375 16.75 -3.859375 C 17.925781 -4.484375 18.878906 -5.425781 19.609375 -6.6875 C 20.335938 -7.945312 20.703125 -9.484375 20.703125 -11.296875 C 20.703125 -13.097656 20.34375 -14.628906 19.625 -15.890625 C 18.914062 -17.148438 17.984375 -18.085938 16.828125 -18.703125 C 15.679688 -19.316406 14.4375 -19.625 13.09375 -19.625 C 11.726562 -19.625 10.476562 -19.316406 9.34375 -18.703125 C 8.207031 -18.085938 7.296875 -17.148438 6.609375 -15.890625 C 5.921875 -14.628906 5.578125 -13.097656 5.578125 -11.296875 C 5.578125 -9.460938 5.910156 -7.914062 6.578125 -6.65625 C 7.253906 -5.394531 8.15625 -4.457031 9.28125 -3.84375 C 10.40625 -3.226562 11.632812 -2.921875 12.96875 -2.921875 Z M 12.96875 -2.921875 "/></g></g></g><g fill="#264653" fill-opacity="1"><g transform="translate(341.248626, 261.161046)"><g><path d="M 33.140625 -22.5 L 26.109375 0 L 22.25 0 L 16.828125 -17.859375 L 11.421875 0 L 7.5625 0 L 0.5 -22.5 L 4.3125 -22.5 L 9.484375 -3.609375 L 15.0625 -22.5 L 18.890625 -22.5 L 24.34375 -3.578125 L 29.4375 -22.5 Z M 33.140625 -22.5 "/></g></g></g></svg>