<svg xmlns="http://www.w3.org/2000/svg" xmlns:xlink="http://www.w3.org/1999/xlink" width="500" zoomAndPan="magnify" viewBox="0 0 375 374.999991" height="500" preserveAspectRatio="xMidYMid meet" version="1.0"><defs><clipPath id="96f4503c3c"><path d="M 41.78125 41.78125 L 333.21875 41.78125 L 333.21875 333.21875 L 41.78125 333.21875 Z M 41.78125 41.78125 " clip-rule="nonzero"/></clipPath><clipPath id="6007b0cd75"><path d="M 187.5 41.78125 C 107.019531 41.78125 41.78125 107.019531 41.78125 187.5 C 41.78125 267.980469 107.019531 333.21875 187.5 333.21875 C 267.980469 333.21875 333.21875 267.980469 333.21875 187.5 C 333.21875 107.019531 267.980469 41.78125 187.5 41.78125 Z M 187.5 41.78125 " clip-rule="nonzero"/></clipPath><clipPath id="6c9b2f7af2"><path d="M 101 101.277344 L 274 101.277344 L 274 273.777344 L 101 273.777344 Z M 101 101.277344 " clip-rule="nonzero"/></clipPath></defs><g clip-path="url(#96f4503c3c)"><g clip-path="url(#6007b0cd75)"><path fill="#e76f51" d="M 41.78125 41.78125 L 333.21875 41.78125 L 333.21875 333.21875 L 41.78125 333.21875 Z M 41.78125 41.78125 " fill-opacity="1" fill-rule="nonzero"/></g></g><path fill="#ffffff" d="M 218.824219 189.535156 C 234.964844 178.832031 227.492188 153.292969 207.859375 153.210938 C 188.234375 153.292969 180.757812 178.828125 196.890625 189.53125 C 191.492188 192.011719 187.066406 196.25 184.371094 201.527344 C 181.695312 196.25 177.277344 192.011719 171.878906 189.53125 C 188.011719 178.824219 180.535156 153.292969 160.910156 153.210938 C 141.277344 153.292969 133.804688 178.835938 149.949219 189.535156 C 143.445312 192.523438 138.347656 198.0625 135.996094 204.886719 C 147.417969 205.402344 156.914062 213.464844 159.609375 224.167969 C 165.675781 200.554688 198.160156 198.03125 207.871094 220.324219 C 211.933594 210.785156 221.863281 204.261719 232.777344 204.886719 C 230.425781 198.0625 225.324219 192.523438 218.824219 189.535156 Z M 146.824219 173.035156 C 147.417969 154.417969 174.40625 154.421875 174.996094 173.035156 C 174.402344 191.644531 147.414062 191.640625 146.824219 173.035156 Z M 193.773438 173.035156 C 194.367188 154.417969 221.355469 154.421875 221.945312 173.035156 C 221.355469 191.644531 194.363281 191.640625 193.773438 173.035156 Z M 193.773438 173.035156 " fill-opacity="1" fill-rule="nonzero"/><g clip-path="url(#6c9b2f7af2)"><path fill="#ffffff" d="M 241.898438 101.5625 C 232.121094 101.5625 223.367188 106.035156 217.570312 113.042969 L 115.652344 113.042969 C 107.734375 113.042969 101.308594 119.46875 101.308594 127.386719 L 101.308594 259.371094 C 101.308594 267.292969 107.734375 273.71875 115.652344 273.71875 L 250.507812 273.71875 C 258.425781 273.71875 264.855469 267.292969 264.855469 259.371094 L 264.855469 154.71875 C 283.75 135.164062 269.347656 101.355469 241.898438 101.5625 Z M 228.394531 128.226562 C 229.515625 127.105469 231.332031 127.105469 232.453125 128.226562 L 240.464844 136.242188 L 255.652344 121.054688 C 255.753906 120.953125 255.886719 120.90625 256 120.824219 C 257.511719 122.09375 258.59375 123.84375 258.960938 125.859375 L 242.496094 142.328125 C 241.375 143.449219 239.558594 143.449219 238.4375 142.328125 L 228.394531 132.285156 C 227.273438 131.164062 227.273438 129.347656 228.394531 128.226562 Z M 134.824219 244.5 C 116.210938 243.910156 116.21875 216.921875 134.824219 216.332031 C 153.4375 216.925781 153.4375 243.910156 134.824219 244.5 Z M 184.386719 244.5 C 165.769531 243.910156 165.777344 216.921875 184.386719 216.332031 C 203 216.925781 202.996094 243.910156 184.386719 244.5 Z M 217.25 230.417969 C 217.84375 211.804688 244.832031 211.808594 245.421875 230.417969 C 244.828125 249.03125 217.839844 249.023438 217.25 230.417969 Z M 259.117188 259.371094 C 259.117188 261.523438 258.285156 263.476562 256.992188 264.996094 C 255.160156 256.9375 249.644531 250.285156 242.316406 246.910156 C 258.4375 236.195312 250.957031 210.675781 231.335938 210.59375 C 211.703125 210.679688 204.234375 236.21875 220.375 246.917969 C 214.972656 249.40625 210.546875 253.660156 207.871094 258.941406 C 205.175781 253.660156 200.753906 249.40625 195.351562 246.917969 C 211.488281 236.214844 204.015625 210.679688 184.386719 210.59375 C 164.746094 210.679688 157.28125 236.230469 173.433594 246.925781 C 167.039062 249.875 162.003906 255.308594 159.609375 261.984375 C 157.214844 255.308594 152.183594 249.875 145.777344 246.925781 C 161.929688 236.226562 154.460938 210.679688 134.824219 210.59375 C 115.199219 210.679688 107.722656 236.207031 123.851562 246.914062 C 116.53125 250.296875 111.03125 256.957031 109.199219 264.996094 C 107.878906 263.476562 107.046875 261.523438 107.046875 259.371094 L 107.046875 127.386719 C 107.046875 122.652344 110.917969 118.78125 115.652344 118.78125 L 213.820312 118.78125 C 199.25 147.457031 232.207031 177.019531 259.117188 159.542969 Z M 259.117188 259.371094 " fill-opacity="1" fill-rule="nonzero"/></g></svg>