<svg xmlns="http://www.w3.org/2000/svg" xmlns:xlink="http://www.w3.org/1999/xlink" width="500" zoomAndPan="magnify" viewBox="0 0 375 374.999991" height="500" preserveAspectRatio="xMidYMid meet" version="1.0"><defs><g/><clipPath id="7678963959"><path d="M 71.738281 27.253906 L 303.433594 27.253906 L 303.433594 195.28125 L 71.738281 195.28125 Z M 71.738281 27.253906 " clip-rule="nonzero"/></clipPath><clipPath id="7f7e2a3ae7"><path d="M 88.988281 27.253906 L 286.011719 27.253906 C 295.539062 27.253906 303.261719 34.976562 303.261719 44.503906 L 303.261719 178.03125 C 303.261719 187.558594 295.539062 195.28125 286.011719 195.28125 L 88.988281 195.28125 C 79.460938 195.28125 71.738281 187.558594 71.738281 178.03125 L 71.738281 44.503906 C 71.738281 34.976562 79.460938 27.253906 88.988281 27.253906 Z M 88.988281 27.253906 " clip-rule="nonzero"/></clipPath><clipPath id="7b82c65f49"><path d="M 71.738281 124.667969 L 303.445312 124.667969 L 303.445312 195.28125 L 71.738281 195.28125 Z M 71.738281 124.667969 " clip-rule="nonzero"/></clipPath><clipPath id="8f24666d79"><path d="M 88.988281 124.667969 L 286.011719 124.667969 C 295.539062 124.667969 303.261719 132.390625 303.261719 141.917969 L 303.261719 178.03125 C 303.261719 187.558594 295.539062 195.28125 286.011719 195.28125 L 88.988281 195.28125 C 79.460938 195.28125 71.738281 187.558594 71.738281 178.03125 L 71.738281 141.917969 C 71.738281 132.390625 79.460938 124.667969 88.988281 124.667969 Z M 88.988281 124.667969 " clip-rule="nonzero"/></clipPath><clipPath id="c8e49ed7a2"><path d="M 71.738281 72.171875 L 303.261719 72.171875 L 303.261719 159.976562 L 71.738281 159.976562 Z M 71.738281 72.171875 " clip-rule="nonzero"/></clipPath><clipPath id="e9b90520bc"><path d="M 163.300781 174.367188 L 211.722656 174.367188 L 211.722656 180.773438 L 163.300781 180.773438 Z M 163.300781 174.367188 " clip-rule="nonzero"/></clipPath><clipPath id="1491739cb8"><path d="M 166.503906 174.367188 L 208.496094 174.367188 C 210.265625 174.367188 211.699219 175.804688 211.699219 177.570312 C 211.699219 179.339844 210.265625 180.773438 208.496094 180.773438 L 166.503906 180.773438 C 164.734375 180.773438 163.300781 179.339844 163.300781 177.570312 C 163.300781 175.804688 164.734375 174.367188 166.503906 174.367188 Z M 166.503906 174.367188 " clip-rule="nonzero"/></clipPath><clipPath id="cb098785dd"><path d="M 82.207031 49.253906 L 292.792969 49.253906 L 292.792969 159.796875 L 82.207031 159.796875 Z M 82.207031 49.253906 " clip-rule="nonzero"/></clipPath><clipPath id="009d606a53"><path d="M 98.128906 55.496094 L 146 55.496094 L 146 135 L 98.128906 135 Z M 98.128906 55.496094 " clip-rule="nonzero"/></clipPath><clipPath id="015b8d52bf"><path d="M 110 55.496094 L 191.898438 55.496094 L 191.898438 149.261719 L 110 149.261719 Z M 110 55.496094 " clip-rule="nonzero"/></clipPath><clipPath id="7f784721d4"><path d="M 207.050781 55.496094 L 276.972656 55.496094 L 276.972656 84.839844 L 207.050781 84.839844 Z M 207.050781 55.496094 " clip-rule="nonzero"/></clipPath><clipPath id="08e80c75ed"><path d="M 213.050781 55.496094 L 270.871094 55.496094 C 274.183594 55.496094 276.871094 58.179688 276.871094 61.496094 L 276.871094 78.839844 C 276.871094 82.152344 274.183594 84.839844 270.871094 84.839844 L 213.050781 84.839844 C 209.738281 84.839844 207.050781 82.152344 207.050781 78.839844 L 207.050781 61.496094 C 207.050781 58.179688 209.738281 55.496094 213.050781 55.496094 Z M 213.050781 55.496094 " clip-rule="nonzero"/></clipPath><clipPath id="34a39a0559"><path d="M 207.050781 90.835938 L 253.828125 90.835938 L 253.828125 102.621094 L 207.050781 102.621094 Z M 207.050781 90.835938 " clip-rule="nonzero"/></clipPath><clipPath id="6d021bebbc"><path d="M 208.550781 90.835938 L 252.285156 90.835938 C 253.113281 90.835938 253.785156 91.507812 253.785156 92.335938 L 253.785156 101.121094 C 253.785156 101.949219 253.113281 102.621094 252.285156 102.621094 L 208.550781 102.621094 C 207.722656 102.621094 207.050781 101.949219 207.050781 101.121094 L 207.050781 92.335938 C 207.050781 91.507812 207.722656 90.835938 208.550781 90.835938 Z M 208.550781 90.835938 " clip-rule="nonzero"/></clipPath><clipPath id="55d8f008f9"><path d="M 207.050781 109.621094 L 270.496094 109.621094 L 270.496094 121.410156 L 207.050781 121.410156 Z M 207.050781 109.621094 " clip-rule="nonzero"/></clipPath><clipPath id="92436796c1"><path d="M 208.550781 109.621094 L 268.992188 109.621094 C 269.820312 109.621094 270.492188 110.292969 270.492188 111.121094 L 270.492188 119.910156 C 270.492188 120.738281 269.820312 121.410156 268.992188 121.410156 L 208.550781 121.410156 C 207.722656 121.410156 207.050781 120.738281 207.050781 119.910156 L 207.050781 111.121094 C 207.050781 110.292969 207.722656 109.621094 208.550781 109.621094 Z M 208.550781 109.621094 " clip-rule="nonzero"/></clipPath><clipPath id="61dd744a3d"><path d="M 207.050781 128.621094 L 234.695312 128.621094 L 234.695312 153.988281 L 207.050781 153.988281 Z M 207.050781 128.621094 " clip-rule="nonzero"/></clipPath><clipPath id="4899653ba9"><path d="M 210.800781 128.621094 L 230.890625 128.621094 C 232.960938 128.621094 234.640625 130.300781 234.640625 132.371094 L 234.640625 150.238281 C 234.640625 152.308594 232.960938 153.988281 230.890625 153.988281 L 210.800781 153.988281 C 208.730469 153.988281 207.050781 152.308594 207.050781 150.238281 L 207.050781 132.371094 C 207.050781 130.300781 208.730469 128.621094 210.800781 128.621094 Z M 210.800781 128.621094 " clip-rule="nonzero"/></clipPath><clipPath id="c4b459e11c"><path d="M 242.902344 128.621094 L 270.546875 128.621094 L 270.546875 153.988281 L 242.902344 153.988281 Z M 242.902344 128.621094 " clip-rule="nonzero"/></clipPath><clipPath id="50a2dfed3f"><path d="M 246.652344 128.621094 L 266.742188 128.621094 C 268.8125 128.621094 270.492188 130.300781 270.492188 132.371094 L 270.492188 150.238281 C 270.492188 152.308594 268.8125 153.988281 266.742188 153.988281 L 246.652344 153.988281 C 244.578125 153.988281 242.902344 152.308594 242.902344 150.238281 L 242.902344 132.371094 C 242.902344 130.300781 244.578125 128.621094 246.652344 128.621094 Z M 246.652344 128.621094 " clip-rule="nonzero"/></clipPath></defs><g fill="#264653" fill-opacity="1"><g transform="translate(48.931074, 292.947011)"><g><path d="M 36.921875 0 L 18.34375 -24.40625 L 18.34375 0 L 4.875 0 L 4.875 -55.265625 L 18.34375 -55.265625 L 18.34375 -31.015625 L 36.765625 -55.265625 L 52.578125 -55.265625 L 31.171875 -28.1875 L 53.375 0 Z M 36.921875 0 "/></g></g></g><g fill="#264653" fill-opacity="1"><g transform="translate(103.799765, 292.947011)"><g><path d="M 18.109375 -55.265625 L 18.109375 -22.203125 C 18.109375 -18.890625 18.921875 -16.34375 20.546875 -14.5625 C 22.171875 -12.78125 24.554688 -11.890625 27.703125 -11.890625 C 30.859375 -11.890625 33.273438 -12.78125 34.953125 -14.5625 C 36.628906 -16.34375 37.46875 -18.890625 37.46875 -22.203125 L 37.46875 -55.265625 L 50.9375 -55.265625 L 50.9375 -22.28125 C 50.9375 -17.34375 49.882812 -13.164062 47.78125 -9.75 C 45.6875 -6.34375 42.863281 -3.773438 39.3125 -2.046875 C 35.769531 -0.316406 31.820312 0.546875 27.46875 0.546875 C 23.113281 0.546875 19.21875 -0.300781 15.78125 -2 C 12.34375 -3.707031 9.625 -6.28125 7.625 -9.71875 C 5.632812 -13.15625 4.640625 -17.34375 4.640625 -22.28125 L 4.640625 -55.265625 Z M 18.109375 -55.265625 "/></g></g></g><g fill="#e76f51" fill-opacity="1"><g transform="translate(159.306047, 292.947011)"><g><path d="M 18.34375 -44.46875 L 18.34375 -33.296875 L 36.375 -33.296875 L 36.375 -22.90625 L 18.34375 -22.90625 L 18.34375 -10.78125 L 38.734375 -10.78125 L 38.734375 0 L 4.875 0 L 4.875 -55.265625 L 38.734375 -55.265625 L 38.734375 -44.46875 Z M 18.34375 -44.46875 "/></g></g></g><g fill="#f4a261" fill-opacity="1"><g transform="translate(201.908523, 292.947011)"><g><path d="M 38.34375 -28.34375 C 41.539062 -27.65625 44.109375 -26.066406 46.046875 -23.578125 C 47.992188 -21.085938 48.96875 -18.238281 48.96875 -15.03125 C 48.96875 -10.414062 47.351562 -6.753906 44.125 -4.046875 C 40.894531 -1.347656 36.394531 0 30.625 0 L 4.875 0 L 4.875 -55.265625 L 29.75 -55.265625 C 35.363281 -55.265625 39.757812 -53.976562 42.9375 -51.40625 C 46.113281 -48.832031 47.703125 -45.34375 47.703125 -40.9375 C 47.703125 -37.675781 46.847656 -34.96875 45.140625 -32.8125 C 43.441406 -30.664062 41.175781 -29.175781 38.34375 -28.34375 Z M 18.34375 -32.90625 L 27.15625 -32.90625 C 29.363281 -32.90625 31.054688 -33.390625 32.234375 -34.359375 C 33.410156 -35.328125 34 -36.757812 34 -38.65625 C 34 -40.539062 33.410156 -41.976562 32.234375 -42.96875 C 31.054688 -43.96875 29.363281 -44.46875 27.15625 -44.46875 L 18.34375 -44.46875 Z M 28.265625 -10.859375 C 30.515625 -10.859375 32.253906 -11.367188 33.484375 -12.390625 C 34.722656 -13.421875 35.34375 -14.90625 35.34375 -16.84375 C 35.34375 -18.789062 34.695312 -20.3125 33.40625 -21.40625 C 32.125 -22.507812 30.359375 -23.0625 28.109375 -23.0625 L 18.34375 -23.0625 L 18.34375 -10.859375 Z M 28.265625 -10.859375 "/></g></g></g><g fill="#e9c46a" fill-opacity="1"><g transform="translate(253.793023, 292.947011)"><g><path d="M 67.46875 -55.265625 L 67.46875 0 L 54 0 L 54 -33.140625 L 41.640625 0 L 30.78125 0 L 18.34375 -33.21875 L 18.34375 0 L 4.875 0 L 4.875 -55.265625 L 20.78125 -55.265625 L 36.296875 -17 L 51.640625 -55.265625 Z M 67.46875 -55.265625 "/></g></g></g><g fill="#264653" fill-opacity="1"><g transform="translate(46.465299, 339.093796)"><g><path d="M 5.1875 -19.25 L 5.1875 -12.046875 L 13.03125 -12.046875 L 13.03125 -9.734375 L 5.1875 -9.734375 L 5.1875 -2.3125 L 13.96875 -2.3125 L 13.96875 0 L 2.375 0 L 2.375 -21.5625 L 13.96875 -21.5625 L 13.96875 -19.25 Z M 5.1875 -19.25 "/></g></g></g><g fill="#264653" fill-opacity="1"><g transform="translate(62.311428, 339.093796)"><g><path d="M 1.328125 -8.53125 C 1.328125 -10.257812 1.675781 -11.773438 2.375 -13.078125 C 3.070312 -14.390625 4.035156 -15.40625 5.265625 -16.125 C 6.492188 -16.84375 7.867188 -17.203125 9.390625 -17.203125 C 10.847656 -17.203125 12.128906 -16.878906 13.234375 -16.234375 C 14.335938 -15.585938 15.144531 -14.789062 15.65625 -13.84375 L 15.65625 -16.921875 L 18.5 -16.921875 L 18.5 8.03125 L 15.65625 8.03125 L 15.65625 -3.125 C 15.125 -2.175781 14.300781 -1.367188 13.1875 -0.703125 C 12.070312 -0.046875 10.773438 0.28125 9.296875 0.28125 C 7.816406 0.28125 6.46875 -0.0859375 5.25 -0.828125 C 4.03125 -1.578125 3.070312 -2.617188 2.375 -3.953125 C 1.675781 -5.296875 1.328125 -6.820312 1.328125 -8.53125 Z M 15.65625 -8.5 C 15.65625 -9.769531 15.394531 -10.878906 14.875 -11.828125 C 14.363281 -12.773438 13.671875 -13.5 12.796875 -14 C 11.921875 -14.507812 10.960938 -14.765625 9.921875 -14.765625 C 8.867188 -14.765625 7.910156 -14.515625 7.046875 -14.015625 C 6.179688 -13.523438 5.488281 -12.804688 4.96875 -11.859375 C 4.457031 -10.910156 4.203125 -9.800781 4.203125 -8.53125 C 4.203125 -7.226562 4.457031 -6.097656 4.96875 -5.140625 C 5.488281 -4.179688 6.179688 -3.445312 7.046875 -2.9375 C 7.910156 -2.4375 8.867188 -2.1875 9.921875 -2.1875 C 10.960938 -2.1875 11.921875 -2.4375 12.796875 -2.9375 C 13.671875 -3.445312 14.363281 -4.179688 14.875 -5.140625 C 15.394531 -6.097656 15.65625 -7.21875 15.65625 -8.5 Z M 15.65625 -8.5 "/></g></g></g><g fill="#264653" fill-opacity="1"><g transform="translate(83.192489, 339.093796)"><g><path d="M 17.390625 -16.921875 L 17.390625 0 L 14.578125 0 L 14.578125 -2.5 C 14.046875 -1.632812 13.300781 -0.957031 12.34375 -0.46875 C 11.382812 0.0078125 10.328125 0.25 9.171875 0.25 C 7.859375 0.25 6.675781 -0.0195312 5.625 -0.5625 C 4.570312 -1.113281 3.738281 -1.9375 3.125 -3.03125 C 2.519531 -4.125 2.21875 -5.453125 2.21875 -7.015625 L 2.21875 -16.921875 L 5 -16.921875 L 5 -7.390625 C 5 -5.710938 5.421875 -4.425781 6.265625 -3.53125 C 7.109375 -2.632812 8.265625 -2.1875 9.734375 -2.1875 C 11.234375 -2.1875 12.414062 -2.648438 13.28125 -3.578125 C 14.144531 -4.503906 14.578125 -5.851562 14.578125 -7.625 L 14.578125 -16.921875 Z M 17.390625 -16.921875 "/></g></g></g><g fill="#264653" fill-opacity="1"><g transform="translate(102.961548, 339.093796)"><g><path d="M 3.828125 -19.671875 C 3.296875 -19.671875 2.84375 -19.859375 2.46875 -20.234375 C 2.101562 -20.609375 1.921875 -21.0625 1.921875 -21.59375 C 1.921875 -22.125 2.101562 -22.578125 2.46875 -22.953125 C 2.84375 -23.328125 3.296875 -23.515625 3.828125 -23.515625 C 4.347656 -23.515625 4.785156 -23.328125 5.140625 -22.953125 C 5.503906 -22.578125 5.6875 -22.125 5.6875 -21.59375 C 5.6875 -21.0625 5.503906 -20.609375 5.140625 -20.234375 C 4.785156 -19.859375 4.347656 -19.671875 3.828125 -19.671875 Z M 5.1875 -16.921875 L 5.1875 0 L 2.375 0 L 2.375 -16.921875 Z M 5.1875 -16.921875 "/></g></g></g><g fill="#264653" fill-opacity="1"><g transform="translate(110.560278, 339.093796)"><g><path d="M 5.1875 -13.8125 C 5.75 -14.78125 6.578125 -15.585938 7.671875 -16.234375 C 8.773438 -16.878906 10.054688 -17.203125 11.515625 -17.203125 C 13.023438 -17.203125 14.390625 -16.84375 15.609375 -16.125 C 16.835938 -15.40625 17.800781 -14.390625 18.5 -13.078125 C 19.195312 -11.773438 19.546875 -10.257812 19.546875 -8.53125 C 19.546875 -6.820312 19.195312 -5.296875 18.5 -3.953125 C 17.800781 -2.617188 16.835938 -1.578125 15.609375 -0.828125 C 14.390625 -0.0859375 13.023438 0.28125 11.515625 0.28125 C 10.078125 0.28125 8.804688 -0.0390625 7.703125 -0.6875 C 6.597656 -1.34375 5.757812 -2.15625 5.1875 -3.125 L 5.1875 8.03125 L 2.375 8.03125 L 2.375 -16.921875 L 5.1875 -16.921875 Z M 16.6875 -8.53125 C 16.6875 -9.800781 16.425781 -10.910156 15.90625 -11.859375 C 15.394531 -12.804688 14.703125 -13.523438 13.828125 -14.015625 C 12.953125 -14.515625 11.988281 -14.765625 10.9375 -14.765625 C 9.90625 -14.765625 8.953125 -14.507812 8.078125 -14 C 7.203125 -13.5 6.5 -12.769531 5.96875 -11.8125 C 5.445312 -10.851562 5.1875 -9.75 5.1875 -8.5 C 5.1875 -7.21875 5.445312 -6.097656 5.96875 -5.140625 C 6.5 -4.179688 7.203125 -3.445312 8.078125 -2.9375 C 8.953125 -2.4375 9.90625 -2.1875 10.9375 -2.1875 C 11.988281 -2.1875 12.953125 -2.4375 13.828125 -2.9375 C 14.703125 -3.445312 15.394531 -4.179688 15.90625 -5.140625 C 16.425781 -6.097656 16.6875 -7.226562 16.6875 -8.53125 Z M 16.6875 -8.53125 "/></g></g></g><g fill="#264653" fill-opacity="1"><g transform="translate(131.441339, 339.093796)"><g><path d="M 22.734375 -17.234375 C 24.054688 -17.234375 25.226562 -16.957031 26.25 -16.40625 C 27.28125 -15.863281 28.09375 -15.046875 28.6875 -13.953125 C 29.289062 -12.867188 29.59375 -11.546875 29.59375 -9.984375 L 29.59375 0 L 26.8125 0 L 26.8125 -9.578125 C 26.8125 -11.265625 26.394531 -12.554688 25.5625 -13.453125 C 24.726562 -14.347656 23.597656 -14.796875 22.171875 -14.796875 C 20.710938 -14.796875 19.550781 -14.328125 18.6875 -13.390625 C 17.820312 -12.453125 17.390625 -11.097656 17.390625 -9.328125 L 17.390625 0 L 14.609375 0 L 14.609375 -9.578125 C 14.609375 -11.265625 14.191406 -12.554688 13.359375 -13.453125 C 12.523438 -14.347656 11.398438 -14.796875 9.984375 -14.796875 C 8.515625 -14.796875 7.347656 -14.328125 6.484375 -13.390625 C 5.617188 -12.453125 5.1875 -11.097656 5.1875 -9.328125 L 5.1875 0 L 2.375 0 L 2.375 -16.921875 L 5.1875 -16.921875 L 5.1875 -14.484375 C 5.75 -15.367188 6.492188 -16.046875 7.421875 -16.515625 C 8.359375 -16.992188 9.394531 -17.234375 10.53125 -17.234375 C 11.957031 -17.234375 13.210938 -16.914062 14.296875 -16.28125 C 15.390625 -15.644531 16.207031 -14.707031 16.75 -13.46875 C 17.21875 -14.664062 18 -15.59375 19.09375 -16.25 C 20.1875 -16.90625 21.398438 -17.234375 22.734375 -17.234375 Z M 22.734375 -17.234375 "/></g></g></g><g fill="#264653" fill-opacity="1"><g transform="translate(163.257169, 339.093796)"><g><path d="M 17.828125 -9.109375 C 17.828125 -8.578125 17.796875 -8.007812 17.734375 -7.40625 L 4.203125 -7.40625 C 4.304688 -5.738281 4.875 -4.4375 5.90625 -3.5 C 6.945312 -2.5625 8.210938 -2.09375 9.703125 -2.09375 C 10.910156 -2.09375 11.921875 -2.375 12.734375 -2.9375 C 13.554688 -3.507812 14.128906 -4.269531 14.453125 -5.21875 L 17.484375 -5.21875 C 17.023438 -3.59375 16.117188 -2.269531 14.765625 -1.25 C 13.410156 -0.226562 11.722656 0.28125 9.703125 0.28125 C 8.097656 0.28125 6.660156 -0.078125 5.390625 -0.796875 C 4.117188 -1.523438 3.125 -2.550781 2.40625 -3.875 C 1.6875 -5.207031 1.328125 -6.75 1.328125 -8.5 C 1.328125 -10.25 1.675781 -11.78125 2.375 -13.09375 C 3.070312 -14.414062 4.054688 -15.429688 5.328125 -16.140625 C 6.597656 -16.847656 8.054688 -17.203125 9.703125 -17.203125 C 11.304688 -17.203125 12.722656 -16.851562 13.953125 -16.15625 C 15.191406 -15.457031 16.144531 -14.492188 16.8125 -13.265625 C 17.488281 -12.035156 17.828125 -10.648438 17.828125 -9.109375 Z M 14.921875 -9.703125 C 14.921875 -10.773438 14.679688 -11.695312 14.203125 -12.46875 C 13.734375 -13.238281 13.09375 -13.820312 12.28125 -14.21875 C 11.46875 -14.625 10.566406 -14.828125 9.578125 -14.828125 C 8.148438 -14.828125 6.9375 -14.375 5.9375 -13.46875 C 4.945312 -12.5625 4.378906 -11.304688 4.234375 -9.703125 Z M 14.921875 -9.703125 "/></g></g></g><g fill="#264653" fill-opacity="1"><g transform="translate(182.408441, 339.093796)"><g><path d="M 10.625 -17.234375 C 12.6875 -17.234375 14.351562 -16.609375 15.625 -15.359375 C 16.90625 -14.117188 17.546875 -12.328125 17.546875 -9.984375 L 17.546875 0 L 14.765625 0 L 14.765625 -9.578125 C 14.765625 -11.265625 14.34375 -12.554688 13.5 -13.453125 C 12.65625 -14.347656 11.503906 -14.796875 10.046875 -14.796875 C 8.554688 -14.796875 7.375 -14.332031 6.5 -13.40625 C 5.625 -12.476562 5.1875 -11.128906 5.1875 -9.359375 L 5.1875 0 L 2.375 0 L 2.375 -16.921875 L 5.1875 -16.921875 L 5.1875 -14.515625 C 5.75 -15.378906 6.503906 -16.046875 7.453125 -16.515625 C 8.410156 -16.992188 9.46875 -17.234375 10.625 -17.234375 Z M 10.625 -17.234375 "/></g></g></g><g fill="#264653" fill-opacity="1"><g transform="translate(202.1775, 339.093796)"><g><path d="M 5.8125 -14.609375 L 5.8125 -4.640625 C 5.8125 -3.804688 5.984375 -3.21875 6.328125 -2.875 C 6.679688 -2.539062 7.289062 -2.375 8.15625 -2.375 L 10.21875 -2.375 L 10.21875 0 L 7.6875 0 C 6.125 0 4.953125 -0.359375 4.171875 -1.078125 C 3.390625 -1.796875 3 -2.984375 3 -4.640625 L 3 -14.609375 L 0.796875 -14.609375 L 0.796875 -16.921875 L 3 -16.921875 L 3 -21.1875 L 5.8125 -21.1875 L 5.8125 -16.921875 L 10.21875 -16.921875 L 10.21875 -14.609375 Z M 5.8125 -14.609375 "/></g></g></g><g fill="#264653" fill-opacity="1"><g transform="translate(213.421147, 339.093796)"><g/></g></g><g fill="#264653" fill-opacity="1"><g transform="translate(221.668547, 339.093796)"><g><path d="M 13.15625 -11.09375 C 13.9375 -10.96875 14.648438 -10.644531 15.296875 -10.125 C 15.953125 -9.613281 16.46875 -8.976562 16.84375 -8.21875 C 17.226562 -7.457031 17.421875 -6.644531 17.421875 -5.78125 C 17.421875 -4.6875 17.140625 -3.703125 16.578125 -2.828125 C 16.023438 -1.953125 15.21875 -1.257812 14.15625 -0.75 C 13.101562 -0.25 11.851562 0 10.40625 0 L 2.375 0 L 2.375 -21.53125 L 10.09375 -21.53125 C 11.5625 -21.53125 12.8125 -21.285156 13.84375 -20.796875 C 14.875 -20.316406 15.644531 -19.664062 16.15625 -18.84375 C 16.664062 -18.019531 16.921875 -17.09375 16.921875 -16.0625 C 16.921875 -14.78125 16.578125 -13.722656 15.890625 -12.890625 C 15.203125 -12.054688 14.289062 -11.457031 13.15625 -11.09375 Z M 5.1875 -12.234375 L 9.921875 -12.234375 C 11.234375 -12.234375 12.25 -12.539062 12.96875 -13.15625 C 13.695312 -13.78125 14.0625 -14.632812 14.0625 -15.71875 C 14.0625 -16.8125 13.695312 -17.664062 12.96875 -18.28125 C 12.25 -18.90625 11.210938 -19.21875 9.859375 -19.21875 L 5.1875 -19.21875 Z M 10.15625 -2.3125 C 11.5625 -2.3125 12.65625 -2.640625 13.4375 -3.296875 C 14.21875 -3.960938 14.609375 -4.878906 14.609375 -6.046875 C 14.609375 -7.242188 14.195312 -8.1875 13.375 -8.875 C 12.550781 -9.570312 11.453125 -9.921875 10.078125 -9.921875 L 5.1875 -9.921875 L 5.1875 -2.3125 Z M 10.15625 -2.3125 "/></g></g></g><g fill="#264653" fill-opacity="1"><g transform="translate(240.6036, 339.093796)"><g><path d="M 9.765625 0.28125 C 8.179688 0.28125 6.742188 -0.078125 5.453125 -0.796875 C 4.160156 -1.523438 3.148438 -2.550781 2.421875 -3.875 C 1.691406 -5.207031 1.328125 -6.75 1.328125 -8.5 C 1.328125 -10.226562 1.703125 -11.753906 2.453125 -13.078125 C 3.203125 -14.410156 4.222656 -15.429688 5.515625 -16.140625 C 6.816406 -16.847656 8.273438 -17.203125 9.890625 -17.203125 C 11.492188 -17.203125 12.941406 -16.847656 14.234375 -16.140625 C 15.535156 -15.429688 16.5625 -14.414062 17.3125 -13.09375 C 18.0625 -11.78125 18.4375 -10.25 18.4375 -8.5 C 18.4375 -6.75 18.050781 -5.207031 17.28125 -3.875 C 16.507812 -2.550781 15.460938 -1.523438 14.140625 -0.796875 C 12.828125 -0.078125 11.367188 0.28125 9.765625 0.28125 Z M 9.765625 -2.1875 C 10.773438 -2.1875 11.722656 -2.421875 12.609375 -2.890625 C 13.492188 -3.367188 14.207031 -4.082031 14.75 -5.03125 C 15.289062 -5.976562 15.5625 -7.132812 15.5625 -8.5 C 15.5625 -9.851562 15.296875 -11.003906 14.765625 -11.953125 C 14.234375 -12.898438 13.535156 -13.601562 12.671875 -14.0625 C 11.804688 -14.53125 10.867188 -14.765625 9.859375 -14.765625 C 8.828125 -14.765625 7.882812 -14.53125 7.03125 -14.0625 C 6.175781 -13.601562 5.488281 -12.898438 4.96875 -11.953125 C 4.457031 -11.003906 4.203125 -9.851562 4.203125 -8.5 C 4.203125 -7.113281 4.453125 -5.945312 4.953125 -5 C 5.460938 -4.050781 6.140625 -3.34375 6.984375 -2.875 C 7.828125 -2.414062 8.753906 -2.1875 9.765625 -2.1875 Z M 9.765625 -2.1875 "/></g></g></g><g fill="#264653" fill-opacity="1"><g transform="translate(260.372659, 339.093796)"><g><path d="M 5.1875 -14.171875 C 5.6875 -15.140625 6.394531 -15.890625 7.3125 -16.421875 C 8.226562 -16.960938 9.34375 -17.234375 10.65625 -17.234375 L 10.65625 -14.328125 L 9.921875 -14.328125 C 6.765625 -14.328125 5.1875 -12.617188 5.1875 -9.203125 L 5.1875 0 L 2.375 0 L 2.375 -16.921875 L 5.1875 -16.921875 Z M 5.1875 -14.171875 "/></g></g></g><g fill="#264653" fill-opacity="1"><g transform="translate(271.894319, 339.093796)"><g><path d="M 5.1875 -14.171875 C 5.6875 -15.140625 6.394531 -15.890625 7.3125 -16.421875 C 8.226562 -16.960938 9.34375 -17.234375 10.65625 -17.234375 L 10.65625 -14.328125 L 9.921875 -14.328125 C 6.765625 -14.328125 5.1875 -12.617188 5.1875 -9.203125 L 5.1875 0 L 2.375 0 L 2.375 -16.921875 L 5.1875 -16.921875 Z M 5.1875 -14.171875 "/></g></g></g><g fill="#264653" fill-opacity="1"><g transform="translate(283.415978, 339.093796)"><g><path d="M 9.765625 0.28125 C 8.179688 0.28125 6.742188 -0.078125 5.453125 -0.796875 C 4.160156 -1.523438 3.148438 -2.550781 2.421875 -3.875 C 1.691406 -5.207031 1.328125 -6.75 1.328125 -8.5 C 1.328125 -10.226562 1.703125 -11.753906 2.453125 -13.078125 C 3.203125 -14.410156 4.222656 -15.429688 5.515625 -16.140625 C 6.816406 -16.847656 8.273438 -17.203125 9.890625 -17.203125 C 11.492188 -17.203125 12.941406 -16.847656 14.234375 -16.140625 C 15.535156 -15.429688 16.5625 -14.414062 17.3125 -13.09375 C 18.0625 -11.78125 18.4375 -10.25 18.4375 -8.5 C 18.4375 -6.75 18.050781 -5.207031 17.28125 -3.875 C 16.507812 -2.550781 15.460938 -1.523438 14.140625 -0.796875 C 12.828125 -0.078125 11.367188 0.28125 9.765625 0.28125 Z M 9.765625 -2.1875 C 10.773438 -2.1875 11.722656 -2.421875 12.609375 -2.890625 C 13.492188 -3.367188 14.207031 -4.082031 14.75 -5.03125 C 15.289062 -5.976562 15.5625 -7.132812 15.5625 -8.5 C 15.5625 -9.851562 15.296875 -11.003906 14.765625 -11.953125 C 14.234375 -12.898438 13.535156 -13.601562 12.671875 -14.0625 C 11.804688 -14.53125 10.867188 -14.765625 9.859375 -14.765625 C 8.828125 -14.765625 7.882812 -14.53125 7.03125 -14.0625 C 6.175781 -13.601562 5.488281 -12.898438 4.96875 -11.953125 C 4.457031 -11.003906 4.203125 -9.851562 4.203125 -8.5 C 4.203125 -7.113281 4.453125 -5.945312 4.953125 -5 C 5.460938 -4.050781 6.140625 -3.34375 6.984375 -2.875 C 7.828125 -2.414062 8.753906 -2.1875 9.765625 -2.1875 Z M 9.765625 -2.1875 "/></g></g></g><g fill="#264653" fill-opacity="1"><g transform="translate(303.185037, 339.093796)"><g><path d="M 24.921875 -16.921875 L 19.640625 0 L 16.75 0 L 12.671875 -13.4375 L 8.59375 0 L 5.6875 0 L 0.375 -16.921875 L 3.25 -16.921875 L 7.140625 -2.71875 L 11.34375 -16.921875 L 14.203125 -16.921875 L 18.3125 -2.6875 L 22.15625 -16.921875 Z M 24.921875 -16.921875 "/></g></g></g><g clip-path="url(#7678963959)"><g clip-path="url(#7f7e2a3ae7)"><path fill="#a6a6a6" d="M 71.738281 27.253906 L 303.433594 27.253906 L 303.433594 195.28125 L 71.738281 195.28125 Z M 71.738281 27.253906 " fill-opacity="1" fill-rule="nonzero"/></g></g><g clip-path="url(#7b82c65f49)"><g clip-path="url(#8f24666d79)"><path fill="#d9d9d9" d="M 71.738281 124.667969 L 303.167969 124.667969 L 303.167969 195.28125 L 71.738281 195.28125 Z M 71.738281 124.667969 " fill-opacity="1" fill-rule="nonzero"/></g></g><g clip-path="url(#c8e49ed7a2)"><path fill="#a6a6a6" d="M 71.738281 72.171875 L 303.25 72.171875 L 303.25 159.976562 L 71.738281 159.976562 Z M 71.738281 72.171875 " fill-opacity="1" fill-rule="nonzero"/></g><g clip-path="url(#e9b90520bc)"><g clip-path="url(#1491739cb8)"><path fill="#a6a6a6" d="M 163.300781 174.367188 L 211.699219 174.367188 L 211.699219 180.773438 L 163.300781 180.773438 Z M 163.300781 174.367188 " fill-opacity="1" fill-rule="nonzero"/></g></g><g clip-path="url(#cb098785dd)"><path fill="#264653" d="M 82.207031 49.253906 L 292.925781 49.253906 L 292.925781 159.796875 L 82.207031 159.796875 Z M 82.207031 49.253906 " fill-opacity="1" fill-rule="nonzero"/></g><g clip-path="url(#009d606a53)"><path fill="#2a9d8f" d="M 116.996094 102.605469 C 116.996094 101.679688 117.042969 100.753906 117.132812 99.832031 C 117.226562 98.914062 117.359375 97.996094 117.542969 97.089844 C 117.722656 96.183594 117.945312 95.285156 118.214844 94.398438 C 118.484375 93.515625 118.796875 92.644531 119.148438 91.789062 C 119.503906 90.933594 119.898438 90.097656 120.335938 89.28125 C 120.773438 88.464844 121.246094 87.671875 121.761719 86.902344 C 122.277344 86.132812 122.828125 85.390625 123.414062 84.675781 C 124 83.957031 124.621094 83.273438 125.277344 82.617188 C 125.929688 81.964844 126.617188 81.34375 127.332031 80.757812 C 128.046875 80.167969 128.789062 79.617188 129.558594 79.105469 C 130.328125 78.589844 131.121094 78.113281 131.9375 77.679688 C 132.753906 77.242188 133.589844 76.847656 134.445312 76.492188 C 135.300781 76.136719 136.171875 75.828125 137.058594 75.558594 C 137.941406 75.289062 138.839844 75.0625 139.746094 74.882812 C 140.65625 74.703125 141.570312 74.566406 142.492188 74.476562 C 143.414062 74.386719 144.335938 74.339844 145.261719 74.339844 L 145.265625 74.339844 L 145.265625 55.496094 L 145.261719 55.496094 C 119.246094 55.496094 98.15625 76.585938 98.15625 102.605469 C 98.152344 105.5625 98.425781 108.492188 98.976562 111.398438 C 99.53125 114.304688 100.347656 117.136719 101.433594 119.886719 C 102.519531 122.636719 103.855469 125.265625 105.4375 127.761719 C 107.019531 130.261719 108.820312 132.589844 110.84375 134.75 L 124.621094 121.871094 C 123.40625 120.578125 122.324219 119.183594 121.375 117.683594 C 120.425781 116.1875 119.625 114.613281 118.972656 112.964844 C 118.320312 111.316406 117.828125 109.621094 117.496094 107.878906 C 117.164062 106.136719 116.996094 104.378906 116.996094 102.605469 Z M 116.996094 102.605469 " fill-opacity="1" fill-rule="nonzero"/></g><g clip-path="url(#015b8d52bf)"><path fill="#f4a261" d="M 145.265625 55.496094 L 145.265625 74.339844 C 145.851562 74.339844 146.433594 74.355469 147.015625 74.390625 C 147.597656 74.425781 148.179688 74.480469 148.757812 74.550781 C 149.339844 74.625 149.914062 74.710938 150.488281 74.820312 C 151.0625 74.925781 151.632812 75.050781 152.199219 75.195312 C 152.765625 75.335938 153.328125 75.496094 153.882812 75.671875 C 154.4375 75.851562 154.988281 76.042969 155.535156 76.253906 C 156.078125 76.464844 156.613281 76.695312 157.144531 76.9375 C 157.675781 77.183594 158.195312 77.445312 158.710938 77.722656 C 159.222656 77.996094 159.730469 78.289062 160.226562 78.597656 C 160.722656 78.90625 161.207031 79.230469 161.683594 79.566406 C 162.15625 79.90625 162.621094 80.257812 163.078125 80.625 C 163.53125 80.992188 163.972656 81.375 164.402344 81.769531 C 164.832031 82.164062 165.25 82.570312 165.65625 82.988281 C 166.0625 83.410156 166.453125 83.84375 166.832031 84.289062 C 167.210938 84.730469 167.574219 85.1875 167.925781 85.65625 C 168.273438 86.121094 168.609375 86.597656 168.929688 87.085938 C 169.25 87.574219 169.554688 88.074219 169.84375 88.578125 C 170.132812 89.085938 170.410156 89.601562 170.667969 90.125 C 170.925781 90.648438 171.164062 91.179688 171.390625 91.71875 C 171.613281 92.257812 171.824219 92.800781 172.015625 93.355469 C 172.203125 93.90625 172.378906 94.460938 172.535156 95.023438 C 172.691406 95.585938 172.832031 96.152344 172.953125 96.726562 C 173.074219 97.296875 173.175781 97.871094 173.261719 98.449219 C 173.347656 99.023438 173.417969 99.605469 173.46875 100.1875 C 173.515625 100.769531 173.550781 101.351562 173.5625 101.933594 C 173.578125 102.515625 173.574219 103.101562 173.550781 103.683594 C 173.527344 104.265625 173.488281 104.847656 173.429688 105.429688 C 173.371094 106.011719 173.292969 106.589844 173.199219 107.164062 C 173.105469 107.742188 172.996094 108.3125 172.863281 108.882812 C 172.734375 109.453125 172.589844 110.015625 172.421875 110.578125 C 172.257812 111.136719 172.078125 111.691406 171.878906 112.242188 C 171.679688 112.789062 171.464844 113.332031 171.230469 113.867188 C 171 114.402344 170.75 114.929688 170.484375 115.449219 C 170.21875 115.96875 169.9375 116.480469 169.640625 116.984375 C 169.34375 117.484375 169.03125 117.980469 168.703125 118.460938 C 168.375 118.945312 168.035156 119.417969 167.679688 119.878906 C 167.320312 120.34375 166.949219 120.792969 166.566406 121.230469 C 166.179688 121.671875 165.78125 122.097656 165.371094 122.511719 C 164.960938 122.925781 164.539062 123.328125 164.101562 123.714844 C 163.664062 124.105469 163.21875 124.480469 162.757812 124.839844 C 162.300781 125.199219 161.828125 125.546875 161.347656 125.875 C 160.867188 126.207031 160.378906 126.523438 159.878906 126.824219 C 159.378906 127.125 158.867188 127.410156 158.351562 127.679688 C 157.832031 127.949219 157.308594 128.203125 156.773438 128.441406 C 156.242188 128.675781 155.699219 128.898438 155.152344 129.101562 C 154.605469 129.304688 154.054688 129.488281 153.496094 129.660156 C 152.933594 129.828125 152.371094 129.980469 151.804688 130.113281 C 151.234375 130.25 150.664062 130.363281 150.089844 130.464844 C 149.511719 130.5625 148.9375 130.644531 148.355469 130.707031 C 147.773438 130.769531 147.195312 130.8125 146.609375 130.839844 C 146.027344 130.867188 145.445312 130.878906 144.859375 130.867188 C 144.277344 130.859375 143.695312 130.832031 143.113281 130.785156 C 142.53125 130.742188 141.949219 130.675781 141.371094 130.597656 C 140.792969 130.515625 140.21875 130.417969 139.648438 130.300781 C 139.074219 130.183594 138.507812 130.046875 137.945312 129.894531 C 137.378906 129.742188 136.820312 129.574219 136.269531 129.386719 C 135.714844 129.203125 135.167969 128.996094 134.628906 128.777344 C 134.085938 128.558594 133.554688 128.320312 133.027344 128.066406 C 132.503906 127.8125 131.984375 127.542969 131.476562 127.257812 C 130.96875 126.972656 130.46875 126.671875 129.976562 126.355469 C 129.488281 126.039062 129.007812 125.707031 128.535156 125.359375 C 128.066406 125.015625 127.609375 124.652344 127.160156 124.277344 C 126.710938 123.902344 126.277344 123.515625 125.851562 123.113281 C 125.429688 122.710938 125.019531 122.296875 124.621094 121.871094 L 110.84375 134.75 C 113.042969 137.113281 115.460938 139.226562 118.097656 141.089844 C 120.734375 142.957031 123.53125 144.53125 126.492188 145.820312 C 129.453125 147.105469 132.515625 148.078125 135.675781 148.734375 C 138.835938 149.390625 142.03125 149.71875 145.261719 149.714844 C 171.28125 149.714844 192.371094 128.621094 192.371094 102.605469 C 192.371094 76.589844 171.28125 55.496094 145.265625 55.496094 Z M 145.265625 55.496094 " fill-opacity="1" fill-rule="nonzero"/></g><g clip-path="url(#7f784721d4)"><g clip-path="url(#08e80c75ed)"><path fill="#e76f51" d="M 207.050781 55.496094 L 276.859375 55.496094 L 276.859375 84.839844 L 207.050781 84.839844 Z M 207.050781 55.496094 " fill-opacity="1" fill-rule="nonzero"/></g></g><g clip-path="url(#34a39a0559)"><g clip-path="url(#6d021bebbc)"><path fill="#2a9d8f" d="M 207.050781 90.835938 L 253.785156 90.835938 L 253.785156 102.621094 L 207.050781 102.621094 Z M 207.050781 90.835938 " fill-opacity="1" fill-rule="nonzero"/></g></g><g clip-path="url(#55d8f008f9)"><g clip-path="url(#92436796c1)"><path fill="#e9c46a" d="M 207.050781 109.621094 L 270.496094 109.621094 L 270.496094 121.410156 L 207.050781 121.410156 Z M 207.050781 109.621094 " fill-opacity="1" fill-rule="nonzero"/></g></g><g clip-path="url(#61dd744a3d)"><g clip-path="url(#4899653ba9)"><path fill="#2a9d8f" d="M 207.050781 128.621094 L 234.597656 128.621094 L 234.597656 153.988281 L 207.050781 153.988281 Z M 207.050781 128.621094 " fill-opacity="1" fill-rule="nonzero"/></g></g><g clip-path="url(#c4b459e11c)"><g clip-path="url(#50a2dfed3f)"><path fill="#f4a261" d="M 242.902344 128.621094 L 270.445312 128.621094 L 270.445312 153.988281 L 242.902344 153.988281 Z M 242.902344 128.621094 " fill-opacity="1" fill-rule="nonzero"/></g></g></svg>