<svg xmlns="http://www.w3.org/2000/svg" xmlns:xlink="http://www.w3.org/1999/xlink" width="500" zoomAndPan="magnify" viewBox="0 0 375 374.999991" height="500" preserveAspectRatio="xMidYMid meet" version="1.0"><defs><clipPath id="ed36550f75"><path d="M 41.78125 41.78125 L 333.21875 41.78125 L 333.21875 333.21875 L 41.78125 333.21875 Z M 41.78125 41.78125 " clip-rule="nonzero"/></clipPath><clipPath id="333751b65a"><path d="M 187.5 41.78125 C 107.019531 41.78125 41.78125 107.019531 41.78125 187.5 C 41.78125 267.980469 107.019531 333.21875 187.5 333.21875 C 267.980469 333.21875 333.21875 267.980469 333.21875 187.5 C 333.21875 107.019531 267.980469 41.78125 187.5 41.78125 Z M 187.5 41.78125 " clip-rule="nonzero"/></clipPath><clipPath id="c3d90b5bb2"><path d="M 231.929688 277.769531 L 330.820312 277.769531 L 330.820312 314.351562 L 231.929688 314.351562 Z M 231.929688 277.769531 " clip-rule="nonzero"/></clipPath><clipPath id="dc39304fbf"><path d="M 249.179688 277.769531 L 313.5625 277.769531 C 323.089844 277.769531 330.8125 285.492188 330.8125 295.019531 L 330.8125 297.101562 C 330.8125 306.628906 323.089844 314.351562 313.5625 314.351562 L 249.179688 314.351562 C 239.652344 314.351562 231.929688 306.628906 231.929688 297.101562 L 231.929688 295.019531 C 231.929688 285.492188 239.652344 277.769531 249.179688 277.769531 Z M 249.179688 277.769531 " clip-rule="nonzero"/></clipPath><clipPath id="fad519ed16"><path d="M 266.523438 281.210938 L 296.523438 281.210938 L 296.523438 311 L 266.523438 311 Z M 266.523438 281.210938 " clip-rule="nonzero"/></clipPath><clipPath id="566a9a7e97"><path d="M 116.019531 103.652344 L 258 103.652344 L 258 271.652344 L 116.019531 271.652344 Z M 116.019531 103.652344 " clip-rule="nonzero"/></clipPath></defs><g clip-path="url(#ed36550f75)"><g clip-path="url(#333751b65a)"><path fill="#2a9d8f" d="M 41.78125 41.78125 L 333.21875 41.78125 L 333.21875 333.21875 L 41.78125 333.21875 Z M 41.78125 41.78125 " fill-opacity="1" fill-rule="nonzero"/></g></g><g clip-path="url(#c3d90b5bb2)"><g clip-path="url(#dc39304fbf)"><path fill="#264653" d="M 231.929688 277.769531 L 330.820312 277.769531 L 330.820312 314.351562 L 231.929688 314.351562 Z M 231.929688 277.769531 " fill-opacity="1" fill-rule="nonzero"/></g></g><g clip-path="url(#fad519ed16)"><path fill="#ffffff" d="M 281.371094 281.210938 C 273.203125 281.210938 266.523438 287.894531 266.523438 296.058594 C 266.523438 304.226562 273.203125 310.90625 281.371094 310.90625 C 289.535156 310.90625 296.21875 304.226562 296.21875 296.058594 C 296.21875 287.894531 289.535156 281.210938 281.371094 281.210938 Z M 287.308594 297.542969 L 282.855469 297.542969 L 282.855469 302 C 282.855469 302.890625 282.261719 303.484375 281.371094 303.484375 C 280.476562 303.484375 279.882812 302.890625 279.882812 302 L 279.882812 297.542969 L 275.429688 297.542969 C 274.539062 297.542969 273.945312 296.949219 273.945312 296.058594 C 273.945312 295.167969 274.539062 294.574219 275.429688 294.574219 L 279.882812 294.574219 L 279.882812 290.121094 C 279.882812 289.230469 280.476562 288.636719 281.371094 288.636719 C 282.261719 288.636719 282.855469 289.230469 282.855469 290.121094 L 282.855469 294.574219 L 287.308594 294.574219 C 288.199219 294.574219 288.792969 295.167969 288.792969 296.058594 C 288.792969 296.949219 288.199219 297.542969 287.308594 297.542969 Z M 287.308594 297.542969 " fill-opacity="1" fill-rule="nonzero"/></g><g clip-path="url(#566a9a7e97)"><path fill="#ffffff" d="M 170.351562 120.050781 L 204.503906 120.050781 C 206.273438 120.050781 207.796875 120.683594 209.050781 121.933594 L 236.101562 148.984375 C 237.351562 150.238281 237.984375 151.761719 237.984375 153.535156 L 237.984375 183.210938 C 236.851562 184.109375 235.8125 185.207031 234.90625 186.5 L 231.253906 191.714844 C 230.355469 193 229.855469 194.433594 229.71875 195.886719 C 229.613281 195.933594 229.511719 195.984375 229.40625 196.039062 L 229.40625 154.855469 L 212.222656 154.855469 C 207.242188 154.855469 203.183594 150.792969 203.183594 145.8125 L 203.183594 128.628906 L 171.394531 128.628906 C 171.398438 128.441406 171.402344 128.257812 171.402344 128.070312 C 171.402344 125.296875 171.035156 122.609375 170.351562 120.050781 Z M 140.441406 103.652344 C 153.925781 103.652344 164.859375 114.585938 164.859375 128.070312 C 164.859375 141.558594 153.925781 152.492188 140.441406 152.492188 C 126.953125 152.492188 116.019531 141.558594 116.019531 128.070312 C 116.019531 114.585938 126.953125 103.652344 140.441406 103.652344 Z M 123.558594 125.726562 L 124.632812 124.652344 C 125.460938 123.824219 126.8125 123.824219 127.640625 124.652344 L 136.214844 133.222656 L 153.207031 116.230469 C 154.035156 115.402344 155.386719 115.402344 156.214844 116.230469 L 157.320312 117.332031 C 158.148438 118.160156 158.148438 119.511719 157.320312 120.339844 L 137.746094 139.914062 C 136.917969 140.742188 135.566406 140.742188 134.738281 139.914062 L 123.558594 128.734375 C 122.730469 127.90625 122.730469 126.554688 123.558594 125.726562 Z M 246.488281 210.167969 L 240.671875 206.09375 L 234.851562 202.023438 C 233.808594 201.289062 232.390625 201.5 231.703125 202.488281 L 202.019531 244.886719 C 201.882812 245.085938 201.886719 245.335938 202.03125 245.53125 C 202.175781 245.722656 202.417969 245.796875 202.644531 245.71875 C 205.4375 244.773438 206.835938 247.324219 207.949219 250.421875 C 208.121094 250.902344 208.433594 251.300781 208.832031 251.578125 C 209.226562 251.855469 209.710938 252.015625 210.21875 252.011719 C 213.511719 251.996094 216.386719 252.4375 216.457031 255.386719 C 216.460938 255.625 216.613281 255.828125 216.84375 255.894531 C 217.074219 255.964844 217.3125 255.882812 217.449219 255.6875 L 247.128906 213.285156 C 247.820312 212.300781 247.53125 210.898438 246.488281 210.167969 Z M 213.414062 259.890625 L 213.402344 257.183594 C 213.398438 256.460938 213.074219 255.820312 212.480469 255.355469 C 211.882812 254.890625 211.195312 254.847656 210.472656 254.902344 L 208.578125 255.042969 C 207.894531 255.089844 207.253906 255.070312 206.671875 254.660156 C 206.089844 254.253906 205.847656 253.664062 205.664062 253 L 205.148438 251.175781 C 204.949219 250.472656 204.671875 249.847656 204.03125 249.445312 C 203.394531 249.046875 202.683594 248.960938 202 249.203125 L 199.453125 250.117188 C 198.523438 250.449219 197.886719 251.1875 197.691406 252.152344 L 194.441406 268.402344 C 194.265625 269.289062 194.640625 270.183594 195.425781 270.730469 C 196.210938 271.28125 197.175781 271.328125 197.949219 270.855469 L 212.105469 262.242188 C 212.949219 261.726562 213.421875 260.878906 213.414062 259.890625 Z M 248.691406 206.75 L 237.3125 198.78125 C 236.199219 198.003906 235.882812 196.511719 236.617188 195.46875 L 240.265625 190.253906 C 243.558594 185.550781 249.050781 185.882812 252.90625 188.566406 C 256.773438 191.261719 259 196.332031 255.691406 201.050781 L 252.042969 206.265625 C 251.3125 207.308594 249.804688 207.527344 248.691406 206.75 Z M 156.085938 156.175781 L 214.414062 156.175781 C 218.8125 156.175781 222.410156 159.773438 222.410156 164.171875 C 222.410156 168.570312 218.8125 172.167969 214.414062 172.167969 L 156.085938 172.167969 C 151.6875 172.167969 148.089844 168.570312 148.089844 164.171875 C 148.089844 159.773438 151.6875 156.175781 156.085938 156.175781 Z M 156.085938 187.09375 L 214.414062 187.09375 C 218.8125 187.09375 222.410156 190.695312 222.410156 195.09375 C 222.410156 199.492188 218.8125 203.089844 214.414062 203.089844 L 156.085938 203.089844 C 151.6875 203.089844 148.089844 199.492188 148.089844 195.09375 C 148.089844 190.695312 151.6875 187.09375 156.085938 187.09375 Z M 156.085938 218.4375 L 212.550781 218.4375 L 201.355469 234.429688 L 156.085938 234.429688 C 151.6875 234.429688 148.089844 230.832031 148.089844 226.433594 C 148.089844 222.035156 151.6875 218.4375 156.085938 218.4375 Z M 141.089844 159.027344 L 141.089844 246.046875 C 141.089844 247 141.835938 247.746094 142.789062 247.746094 L 192.515625 247.746094 C 191.925781 248.683594 191.503906 249.738281 191.277344 250.871094 L 190.183594 256.320312 L 142.789062 256.320312 C 137.148438 256.320312 132.515625 251.6875 132.515625 246.046875 L 132.515625 158.007812 C 135.042969 158.675781 137.699219 159.035156 140.441406 159.035156 C 140.65625 159.035156 140.875 159.03125 141.089844 159.027344 Z M 237.984375 237.761719 L 237.984375 246.046875 C 237.984375 251.710938 233.375 256.320312 227.710938 256.320312 L 224.992188 256.320312 Z M 237.984375 237.761719 " fill-opacity="1" fill-rule="evenodd"/></g></svg>