<svg xmlns="http://www.w3.org/2000/svg" xmlns:xlink="http://www.w3.org/1999/xlink" width="500" zoomAndPan="magnify" viewBox="0 0 375 225" height="300" preserveAspectRatio="xMidYMid meet" version="1.0"><defs><g/><clipPath id="7f54e4a3ac"><path d="M 0 29.292969 L 375 29.292969 L 375 196.988281 L 0 196.988281 Z M 0 29.292969 " clip-rule="nonzero"/></clipPath><clipPath id="5190dc04d5"><path d="M 10.5 29.292969 L 364.5 29.292969 C 370.300781 29.292969 375 33.996094 375 39.792969 L 375 186.488281 C 375 192.285156 370.300781 196.988281 364.5 196.988281 L 10.5 196.988281 C 4.699219 196.988281 0 192.285156 0 186.488281 L 0 39.792969 C 0 33.996094 4.699219 29.292969 10.5 29.292969 Z M 10.5 29.292969 " clip-rule="nonzero"/></clipPath></defs><g clip-path="url(#7f54e4a3ac)"><g clip-path="url(#5190dc04d5)"><path fill="#ffffff" d="M 0 29.292969 L 374.691406 29.292969 L 374.691406 196.988281 L 0 196.988281 Z M 0 29.292969 " fill-opacity="1" fill-rule="nonzero"/></g></g><g fill="#264653" fill-opacity="1"><g transform="translate(16.341073, 116.858918)"><g><path d="M 45.609375 0 L 22.65625 -30.140625 L 22.65625 0 L 6.03125 0 L 6.03125 -68.265625 L 22.65625 -68.265625 L 22.65625 -38.3125 L 45.40625 -68.265625 L 64.953125 -68.265625 L 38.5 -34.8125 L 65.921875 0 Z M 45.609375 0 "/></g></g></g><g fill="#264653" fill-opacity="1"><g transform="translate(84.114328, 116.858918)"><g><path d="M 22.359375 -68.265625 L 22.359375 -27.421875 C 22.359375 -23.335938 23.363281 -20.191406 25.375 -17.984375 C 27.382812 -15.785156 30.332031 -14.6875 34.21875 -14.6875 C 38.113281 -14.6875 41.097656 -15.785156 43.171875 -17.984375 C 45.242188 -20.191406 46.28125 -23.335938 46.28125 -27.421875 L 46.28125 -68.265625 L 62.90625 -68.265625 L 62.90625 -27.515625 C 62.90625 -21.421875 61.609375 -16.265625 59.015625 -12.046875 C 56.421875 -7.835938 52.9375 -4.660156 48.5625 -2.515625 C 44.1875 -0.378906 39.3125 0.6875 33.9375 0.6875 C 28.550781 0.6875 23.734375 -0.363281 19.484375 -2.46875 C 15.242188 -4.582031 11.890625 -7.757812 9.421875 -12 C 6.960938 -16.25 5.734375 -21.421875 5.734375 -27.515625 L 5.734375 -68.265625 Z M 22.359375 -68.265625 "/></g></g></g><g fill="#e76f51" fill-opacity="1"><g transform="translate(152.675128, 116.858918)"><g><path d="M 22.65625 -54.9375 L 22.65625 -41.125 L 44.921875 -41.125 L 44.921875 -28.296875 L 22.65625 -28.296875 L 22.65625 -13.328125 L 47.84375 -13.328125 L 47.84375 0 L 6.03125 0 L 6.03125 -68.265625 L 47.84375 -68.265625 L 47.84375 -54.9375 Z M 22.65625 -54.9375 "/></g></g></g><g fill="#f4a261" fill-opacity="1"><g transform="translate(205.297277, 116.858918)"><g><path d="M 47.359375 -35 C 51.304688 -34.15625 54.476562 -32.191406 56.875 -29.109375 C 59.28125 -26.035156 60.484375 -22.523438 60.484375 -18.578125 C 60.484375 -12.867188 58.488281 -8.34375 54.5 -5 C 50.507812 -1.664062 44.953125 0 37.828125 0 L 6.03125 0 L 6.03125 -68.265625 L 36.75 -68.265625 C 43.6875 -68.265625 49.113281 -66.675781 53.03125 -63.5 C 56.957031 -60.320312 58.921875 -56.007812 58.921875 -50.5625 C 58.921875 -46.539062 57.867188 -43.203125 55.765625 -40.546875 C 53.660156 -37.890625 50.859375 -36.039062 47.359375 -35 Z M 22.65625 -40.640625 L 33.546875 -40.640625 C 36.265625 -40.640625 38.351562 -41.238281 39.8125 -42.4375 C 41.269531 -43.632812 42 -45.398438 42 -47.734375 C 42 -50.078125 41.269531 -51.863281 39.8125 -53.09375 C 38.351562 -54.320312 36.265625 -54.9375 33.546875 -54.9375 L 22.65625 -54.9375 Z M 34.90625 -13.421875 C 37.695312 -13.421875 39.851562 -14.050781 41.375 -15.3125 C 42.894531 -16.570312 43.65625 -18.40625 43.65625 -20.8125 C 43.65625 -23.207031 42.859375 -25.082031 41.265625 -26.4375 C 39.679688 -27.800781 37.5 -28.484375 34.71875 -28.484375 L 22.65625 -28.484375 L 22.65625 -13.421875 Z M 34.90625 -13.421875 "/></g></g></g><g fill="#e9c46a" fill-opacity="1"><g transform="translate(269.384489, 116.858918)"><g><path d="M 83.328125 -68.265625 L 83.328125 0 L 66.703125 0 L 66.703125 -40.9375 L 51.4375 0 L 38.015625 0 L 22.65625 -41.03125 L 22.65625 0 L 6.03125 0 L 6.03125 -68.265625 L 25.671875 -68.265625 L 44.828125 -21 L 63.78125 -68.265625 Z M 83.328125 -68.265625 "/></g></g></g><g fill="#264653" fill-opacity="1"><g transform="translate(13.295374, 173.858939)"><g><path d="M 6.40625 -23.765625 L 6.40625 -14.875 L 16.109375 -14.875 L 16.109375 -12.015625 L 6.40625 -12.015625 L 6.40625 -2.859375 L 17.25 -2.859375 L 17.25 0 L 2.9375 0 L 2.9375 -26.640625 L 17.25 -26.640625 L 17.25 -23.765625 Z M 6.40625 -23.765625 "/></g></g></g><g fill="#264653" fill-opacity="1"><g transform="translate(32.868353, 173.858939)"><g><path d="M 1.640625 -10.53125 C 1.640625 -12.664062 2.070312 -14.539062 2.9375 -16.15625 C 3.800781 -17.769531 4.988281 -19.019531 6.5 -19.90625 C 8.019531 -20.800781 9.71875 -21.25 11.59375 -21.25 C 13.40625 -21.25 14.988281 -20.847656 16.34375 -20.046875 C 17.707031 -19.242188 18.707031 -18.257812 19.34375 -17.09375 L 19.34375 -20.90625 L 22.859375 -20.90625 L 22.859375 9.921875 L 19.34375 9.921875 L 19.34375 -3.859375 C 18.6875 -2.679688 17.671875 -1.6875 16.296875 -0.875 C 14.921875 -0.0625 13.316406 0.34375 11.484375 0.34375 C 9.648438 0.34375 7.984375 -0.113281 6.484375 -1.03125 C 4.984375 -1.945312 3.800781 -3.226562 2.9375 -4.875 C 2.070312 -6.53125 1.640625 -8.414062 1.640625 -10.53125 Z M 19.34375 -10.5 C 19.34375 -12.070312 19.023438 -13.441406 18.390625 -14.609375 C 17.753906 -15.785156 16.894531 -16.679688 15.8125 -17.296875 C 14.726562 -17.921875 13.539062 -18.234375 12.25 -18.234375 C 10.945312 -18.234375 9.757812 -17.925781 8.6875 -17.3125 C 7.625 -16.707031 6.773438 -15.816406 6.140625 -14.640625 C 5.503906 -13.472656 5.1875 -12.101562 5.1875 -10.53125 C 5.1875 -8.925781 5.503906 -7.53125 6.140625 -6.34375 C 6.773438 -5.164062 7.625 -4.265625 8.6875 -3.640625 C 9.757812 -3.015625 10.945312 -2.703125 12.25 -2.703125 C 13.539062 -2.703125 14.726562 -3.015625 15.8125 -3.640625 C 16.894531 -4.265625 17.753906 -5.164062 18.390625 -6.34375 C 19.023438 -7.53125 19.34375 -8.914062 19.34375 -10.5 Z M 19.34375 -10.5 "/></g></g></g><g fill="#264653" fill-opacity="1"><g transform="translate(58.66043, 173.858939)"><g><path d="M 21.484375 -20.90625 L 21.484375 0 L 18.015625 0 L 18.015625 -3.09375 C 17.347656 -2.019531 16.421875 -1.179688 15.234375 -0.578125 C 14.054688 0.015625 12.753906 0.3125 11.328125 0.3125 C 9.703125 0.3125 8.238281 -0.0234375 6.9375 -0.703125 C 5.644531 -1.378906 4.625 -2.390625 3.875 -3.734375 C 3.125 -5.085938 2.75 -6.726562 2.75 -8.65625 L 2.75 -20.90625 L 6.1875 -20.90625 L 6.1875 -9.125 C 6.1875 -7.0625 6.707031 -5.472656 7.75 -4.359375 C 8.789062 -3.253906 10.210938 -2.703125 12.015625 -2.703125 C 13.867188 -2.703125 15.332031 -3.273438 16.40625 -4.421875 C 17.476562 -5.566406 18.015625 -7.234375 18.015625 -9.421875 L 18.015625 -20.90625 Z M 21.484375 -20.90625 "/></g></g></g><g fill="#264653" fill-opacity="1"><g transform="translate(83.078972, 173.858939)"><g><path d="M 4.734375 -24.3125 C 4.066406 -24.3125 3.503906 -24.535156 3.046875 -24.984375 C 2.585938 -25.441406 2.359375 -26.003906 2.359375 -26.671875 C 2.359375 -27.328125 2.585938 -27.882812 3.046875 -28.34375 C 3.503906 -28.800781 4.066406 -29.03125 4.734375 -29.03125 C 5.367188 -29.03125 5.90625 -28.800781 6.34375 -28.34375 C 6.789062 -27.882812 7.015625 -27.328125 7.015625 -26.671875 C 7.015625 -26.003906 6.789062 -25.441406 6.34375 -24.984375 C 5.90625 -24.535156 5.367188 -24.3125 4.734375 -24.3125 Z M 6.40625 -20.90625 L 6.40625 0 L 2.9375 0 L 2.9375 -20.90625 Z M 6.40625 -20.90625 "/></g></g></g><g fill="#264653" fill-opacity="1"><g transform="translate(92.464847, 173.858939)"><g><path d="M 6.40625 -17.0625 C 7.09375 -18.25 8.113281 -19.242188 9.46875 -20.046875 C 10.832031 -20.847656 12.421875 -21.25 14.234375 -21.25 C 16.085938 -21.25 17.769531 -20.800781 19.28125 -19.90625 C 20.800781 -19.019531 21.992188 -17.769531 22.859375 -16.15625 C 23.722656 -14.539062 24.15625 -12.664062 24.15625 -10.53125 C 24.15625 -8.414062 23.722656 -6.53125 22.859375 -4.875 C 21.992188 -3.226562 20.800781 -1.945312 19.28125 -1.03125 C 17.769531 -0.113281 16.085938 0.34375 14.234375 0.34375 C 12.453125 0.34375 10.878906 -0.0546875 9.515625 -0.859375 C 8.160156 -1.660156 7.125 -2.660156 6.40625 -3.859375 L 6.40625 9.921875 L 2.9375 9.921875 L 2.9375 -20.90625 L 6.40625 -20.90625 Z M 20.609375 -10.53125 C 20.609375 -12.101562 20.289062 -13.472656 19.65625 -14.640625 C 19.019531 -15.816406 18.160156 -16.707031 17.078125 -17.3125 C 15.992188 -17.925781 14.800781 -18.234375 13.5 -18.234375 C 12.226562 -18.234375 11.050781 -17.921875 9.96875 -17.296875 C 8.894531 -16.679688 8.03125 -15.78125 7.375 -14.59375 C 6.726562 -13.414062 6.40625 -12.050781 6.40625 -10.5 C 6.40625 -8.914062 6.726562 -7.53125 7.375 -6.34375 C 8.03125 -5.164062 8.894531 -4.265625 9.96875 -3.640625 C 11.050781 -3.015625 12.226562 -2.703125 13.5 -2.703125 C 14.800781 -2.703125 15.992188 -3.015625 17.078125 -3.640625 C 18.160156 -4.265625 19.019531 -5.164062 19.65625 -6.34375 C 20.289062 -7.53125 20.609375 -8.925781 20.609375 -10.53125 Z M 20.609375 -10.53125 "/></g></g></g><g fill="#264653" fill-opacity="1"><g transform="translate(118.256923, 173.858939)"><g><path d="M 28.078125 -21.296875 C 29.710938 -21.296875 31.164062 -20.957031 32.4375 -20.28125 C 33.707031 -19.601562 34.707031 -18.585938 35.4375 -17.234375 C 36.175781 -15.890625 36.546875 -14.253906 36.546875 -12.328125 L 36.546875 0 L 33.125 0 L 33.125 -11.828125 C 33.125 -13.910156 32.609375 -15.503906 31.578125 -16.609375 C 30.546875 -17.722656 29.148438 -18.28125 27.390625 -18.28125 C 25.585938 -18.28125 24.148438 -17.695312 23.078125 -16.53125 C 22.015625 -15.375 21.484375 -13.703125 21.484375 -11.515625 L 21.484375 0 L 18.046875 0 L 18.046875 -11.828125 C 18.046875 -13.910156 17.53125 -15.503906 16.5 -16.609375 C 15.46875 -17.722656 14.078125 -18.28125 12.328125 -18.28125 C 10.515625 -18.28125 9.070312 -17.695312 8 -16.53125 C 6.9375 -15.375 6.40625 -13.703125 6.40625 -11.515625 L 6.40625 0 L 2.9375 0 L 2.9375 -20.90625 L 6.40625 -20.90625 L 6.40625 -17.890625 C 7.09375 -18.984375 8.015625 -19.820312 9.171875 -20.40625 C 10.328125 -21 11.609375 -21.296875 13.015625 -21.296875 C 14.765625 -21.296875 16.3125 -20.898438 17.65625 -20.109375 C 19.007812 -19.316406 20.019531 -18.160156 20.6875 -16.640625 C 21.269531 -18.109375 22.234375 -19.25 23.578125 -20.0625 C 24.929688 -20.882812 26.429688 -21.296875 28.078125 -21.296875 Z M 28.078125 -21.296875 "/></g></g></g><g fill="#264653" fill-opacity="1"><g transform="translate(157.555517, 173.858939)"><g><path d="M 22.015625 -11.25 C 22.015625 -10.59375 21.976562 -9.894531 21.90625 -9.15625 L 5.1875 -9.15625 C 5.3125 -7.09375 6.015625 -5.484375 7.296875 -4.328125 C 8.585938 -3.171875 10.148438 -2.59375 11.984375 -2.59375 C 13.484375 -2.59375 14.734375 -2.941406 15.734375 -3.640625 C 16.742188 -4.335938 17.453125 -5.273438 17.859375 -6.453125 L 21.59375 -6.453125 C 21.03125 -4.441406 19.910156 -2.804688 18.234375 -1.546875 C 16.554688 -0.285156 14.472656 0.34375 11.984375 0.34375 C 9.992188 0.34375 8.21875 -0.0976562 6.65625 -0.984375 C 5.09375 -1.878906 3.863281 -3.144531 2.96875 -4.78125 C 2.082031 -6.425781 1.640625 -8.332031 1.640625 -10.5 C 1.640625 -12.65625 2.070312 -14.546875 2.9375 -16.171875 C 3.800781 -17.804688 5.015625 -19.0625 6.578125 -19.9375 C 8.140625 -20.8125 9.941406 -21.25 11.984375 -21.25 C 13.960938 -21.25 15.710938 -20.816406 17.234375 -19.953125 C 18.765625 -19.085938 19.941406 -17.898438 20.765625 -16.390625 C 21.597656 -14.878906 22.015625 -13.164062 22.015625 -11.25 Z M 18.421875 -11.984375 C 18.421875 -13.304688 18.128906 -14.441406 17.546875 -15.390625 C 16.960938 -16.347656 16.164062 -17.070312 15.15625 -17.5625 C 14.15625 -18.0625 13.046875 -18.3125 11.828125 -18.3125 C 10.078125 -18.3125 8.582031 -17.75 7.34375 -16.625 C 6.113281 -15.507812 5.410156 -13.960938 5.234375 -11.984375 Z M 18.421875 -11.984375 "/></g></g></g><g fill="#264653" fill-opacity="1"><g transform="translate(181.210974, 173.858939)"><g><path d="M 13.125 -21.296875 C 15.664062 -21.296875 17.722656 -20.523438 19.296875 -18.984375 C 20.878906 -17.441406 21.671875 -15.222656 21.671875 -12.328125 L 21.671875 0 L 18.234375 0 L 18.234375 -11.828125 C 18.234375 -13.910156 17.710938 -15.503906 16.671875 -16.609375 C 15.628906 -17.722656 14.207031 -18.28125 12.40625 -18.28125 C 10.570312 -18.28125 9.113281 -17.707031 8.03125 -16.5625 C 6.945312 -15.414062 6.40625 -13.75 6.40625 -11.5625 L 6.40625 0 L 2.9375 0 L 2.9375 -20.90625 L 6.40625 -20.90625 L 6.40625 -17.9375 C 7.09375 -19 8.023438 -19.820312 9.203125 -20.40625 C 10.390625 -21 11.695312 -21.296875 13.125 -21.296875 Z M 13.125 -21.296875 "/></g></g></g><g fill="#264653" fill-opacity="1"><g transform="translate(205.629517, 173.858939)"><g><path d="M 7.171875 -18.046875 L 7.171875 -5.71875 C 7.171875 -4.707031 7.382812 -3.988281 7.8125 -3.5625 C 8.25 -3.144531 9.003906 -2.9375 10.078125 -2.9375 L 12.625 -2.9375 L 12.625 0 L 9.5 0 C 7.5625 0 6.109375 -0.441406 5.140625 -1.328125 C 4.179688 -2.222656 3.703125 -3.6875 3.703125 -5.71875 L 3.703125 -18.046875 L 0.984375 -18.046875 L 0.984375 -20.90625 L 3.703125 -20.90625 L 3.703125 -26.171875 L 7.171875 -26.171875 L 7.171875 -20.90625 L 12.625 -20.90625 L 12.625 -18.046875 Z M 7.171875 -18.046875 "/></g></g></g><g fill="#264653" fill-opacity="1"><g transform="translate(219.517557, 173.858939)"><g/></g></g><g fill="#264653" fill-opacity="1"><g transform="translate(229.704662, 173.858939)"><g><path d="M 16.25 -13.703125 C 17.21875 -13.546875 18.101562 -13.148438 18.90625 -12.515625 C 19.707031 -11.878906 20.34375 -11.085938 20.8125 -10.140625 C 21.28125 -9.203125 21.515625 -8.203125 21.515625 -7.140625 C 21.515625 -5.785156 21.171875 -4.566406 20.484375 -3.484375 C 19.796875 -2.410156 18.796875 -1.5625 17.484375 -0.9375 C 16.179688 -0.3125 14.640625 0 12.859375 0 L 2.9375 0 L 2.9375 -26.59375 L 12.484375 -26.59375 C 14.285156 -26.59375 15.820312 -26.289062 17.09375 -25.6875 C 18.363281 -25.09375 19.316406 -24.285156 19.953125 -23.265625 C 20.585938 -22.253906 20.90625 -21.113281 20.90625 -19.84375 C 20.90625 -18.257812 20.476562 -16.953125 19.625 -15.921875 C 18.78125 -14.898438 17.65625 -14.160156 16.25 -13.703125 Z M 6.40625 -15.109375 L 12.25 -15.109375 C 13.875 -15.109375 15.128906 -15.488281 16.015625 -16.25 C 16.910156 -17.019531 17.359375 -18.078125 17.359375 -19.421875 C 17.359375 -20.765625 16.910156 -21.816406 16.015625 -22.578125 C 15.128906 -23.347656 13.847656 -23.734375 12.171875 -23.734375 L 6.40625 -23.734375 Z M 12.546875 -2.859375 C 14.273438 -2.859375 15.625 -3.265625 16.59375 -4.078125 C 17.5625 -4.890625 18.046875 -6.023438 18.046875 -7.484375 C 18.046875 -8.953125 17.535156 -10.113281 16.515625 -10.96875 C 15.503906 -11.820312 14.144531 -12.25 12.4375 -12.25 L 6.40625 -12.25 L 6.40625 -2.859375 Z M 12.546875 -2.859375 "/></g></g></g><g fill="#264653" fill-opacity="1"><g transform="translate(253.093049, 173.858939)"><g><path d="M 12.0625 0.34375 C 10.101562 0.34375 8.328125 -0.0976562 6.734375 -0.984375 C 5.140625 -1.878906 3.890625 -3.144531 2.984375 -4.78125 C 2.085938 -6.425781 1.640625 -8.332031 1.640625 -10.5 C 1.640625 -12.632812 2.101562 -14.519531 3.03125 -16.15625 C 3.957031 -17.800781 5.222656 -19.0625 6.828125 -19.9375 C 8.429688 -20.8125 10.222656 -21.25 12.203125 -21.25 C 14.191406 -21.25 15.988281 -20.8125 17.59375 -19.9375 C 19.195312 -19.0625 20.460938 -17.804688 21.390625 -16.171875 C 22.316406 -14.546875 22.78125 -12.65625 22.78125 -10.5 C 22.78125 -8.332031 22.300781 -6.425781 21.34375 -4.78125 C 20.394531 -3.144531 19.101562 -1.878906 17.46875 -0.984375 C 15.84375 -0.0976562 14.039062 0.34375 12.0625 0.34375 Z M 12.0625 -2.703125 C 13.300781 -2.703125 14.46875 -2.992188 15.5625 -3.578125 C 16.65625 -4.171875 17.539062 -5.050781 18.21875 -6.21875 C 18.894531 -7.382812 19.234375 -8.8125 19.234375 -10.5 C 19.234375 -12.175781 18.898438 -13.597656 18.234375 -14.765625 C 17.578125 -15.929688 16.710938 -16.800781 15.640625 -17.375 C 14.578125 -17.945312 13.421875 -18.234375 12.171875 -18.234375 C 10.898438 -18.234375 9.734375 -17.945312 8.671875 -17.375 C 7.617188 -16.800781 6.773438 -15.929688 6.140625 -14.765625 C 5.503906 -13.597656 5.1875 -12.175781 5.1875 -10.5 C 5.1875 -8.789062 5.5 -7.347656 6.125 -6.171875 C 6.75 -5.003906 7.582031 -4.132812 8.625 -3.5625 C 9.664062 -2.988281 10.8125 -2.703125 12.0625 -2.703125 Z M 12.0625 -2.703125 "/></g></g></g><g fill="#264653" fill-opacity="1"><g transform="translate(277.511591, 173.858939)"><g><path d="M 6.40625 -17.515625 C 7.019531 -18.710938 7.890625 -19.640625 9.015625 -20.296875 C 10.148438 -20.960938 11.53125 -21.296875 13.15625 -21.296875 L 13.15625 -17.703125 L 12.25 -17.703125 C 8.351562 -17.703125 6.40625 -15.59375 6.40625 -11.375 L 6.40625 0 L 2.9375 0 L 2.9375 -20.90625 L 6.40625 -20.90625 Z M 6.40625 -17.515625 "/></g></g></g><g fill="#264653" fill-opacity="1"><g transform="translate(291.743029, 173.858939)"><g><path d="M 6.40625 -17.515625 C 7.019531 -18.710938 7.890625 -19.640625 9.015625 -20.296875 C 10.148438 -20.960938 11.53125 -21.296875 13.15625 -21.296875 L 13.15625 -17.703125 L 12.25 -17.703125 C 8.351562 -17.703125 6.40625 -15.59375 6.40625 -11.375 L 6.40625 0 L 2.9375 0 L 2.9375 -20.90625 L 6.40625 -20.90625 Z M 6.40625 -17.515625 "/></g></g></g><g fill="#264653" fill-opacity="1"><g transform="translate(305.974467, 173.858939)"><g><path d="M 12.0625 0.34375 C 10.101562 0.34375 8.328125 -0.0976562 6.734375 -0.984375 C 5.140625 -1.878906 3.890625 -3.144531 2.984375 -4.78125 C 2.085938 -6.425781 1.640625 -8.332031 1.640625 -10.5 C 1.640625 -12.632812 2.101562 -14.519531 3.03125 -16.15625 C 3.957031 -17.800781 5.222656 -19.0625 6.828125 -19.9375 C 8.429688 -20.8125 10.222656 -21.25 12.203125 -21.25 C 14.191406 -21.25 15.988281 -20.8125 17.59375 -19.9375 C 19.195312 -19.0625 20.460938 -17.804688 21.390625 -16.171875 C 22.316406 -14.546875 22.78125 -12.65625 22.78125 -10.5 C 22.78125 -8.332031 22.300781 -6.425781 21.34375 -4.78125 C 20.394531 -3.144531 19.101562 -1.878906 17.46875 -0.984375 C 15.84375 -0.0976562 14.039062 0.34375 12.0625 0.34375 Z M 12.0625 -2.703125 C 13.300781 -2.703125 14.46875 -2.992188 15.5625 -3.578125 C 16.65625 -4.171875 17.539062 -5.050781 18.21875 -6.21875 C 18.894531 -7.382812 19.234375 -8.8125 19.234375 -10.5 C 19.234375 -12.175781 18.898438 -13.597656 18.234375 -14.765625 C 17.578125 -15.929688 16.710938 -16.800781 15.640625 -17.375 C 14.578125 -17.945312 13.421875 -18.234375 12.171875 -18.234375 C 10.898438 -18.234375 9.734375 -17.945312 8.671875 -17.375 C 7.617188 -16.800781 6.773438 -15.929688 6.140625 -14.765625 C 5.503906 -13.597656 5.1875 -12.175781 5.1875 -10.5 C 5.1875 -8.789062 5.5 -7.347656 6.125 -6.171875 C 6.75 -5.003906 7.582031 -4.132812 8.625 -3.5625 C 9.664062 -2.988281 10.8125 -2.703125 12.0625 -2.703125 Z M 12.0625 -2.703125 "/></g></g></g><g fill="#264653" fill-opacity="1"><g transform="translate(330.393009, 173.858939)"><g><path d="M 30.796875 -20.90625 L 24.265625 0 L 20.6875 0 L 15.640625 -16.59375 L 10.609375 0 L 7.015625 0 L 0.453125 -20.90625 L 4 -20.90625 L 8.8125 -3.359375 L 14 -20.90625 L 17.546875 -20.90625 L 22.625 -3.3125 L 27.359375 -20.90625 Z M 30.796875 -20.90625 "/></g></g></g></svg>