<svg xmlns="http://www.w3.org/2000/svg" xmlns:xlink="http://www.w3.org/1999/xlink" width="500" zoomAndPan="magnify" viewBox="0 0 375 112.499997" height="150" preserveAspectRatio="xMidYMid meet" version="1.0"><defs><g/><clipPath id="c8c42ab4bd"><path d="M 0.828125 0 L 374.167969 0 L 374.167969 112.003906 L 0.828125 112.003906 Z M 0.828125 0 " clip-rule="nonzero"/></clipPath><clipPath id="f0bd4323ba"><path d="M 70 79 L 93.125 79 L 93.125 102 L 70 102 Z M 70 79 " clip-rule="nonzero"/></clipPath><clipPath id="8c28eac53c"><path d="M 48.324219 73 L 71 73 L 71 96 L 48.324219 96 Z M 48.324219 73 " clip-rule="nonzero"/></clipPath><clipPath id="388947bb6e"><path d="M 63 62.167969 L 78 62.167969 L 78 72 L 63 72 Z M 63 62.167969 " clip-rule="nonzero"/></clipPath><clipPath id="7f604238cc"><path d="M 53 88 L 88 88 L 88 106.96875 L 53 106.96875 Z M 53 88 " clip-rule="nonzero"/></clipPath></defs><g clip-path="url(#c8c42ab4bd)"><path fill="#ffffff" d="M 0.828125 0 L 374.171875 0 L 374.171875 112.003906 L 0.828125 112.003906 Z M 0.828125 0 " fill-opacity="1" fill-rule="nonzero"/><path fill="#e9c46a" d="M 0.828125 0 L 374.171875 0 L 374.171875 112.003906 L 0.828125 112.003906 Z M 0.828125 0 " fill-opacity="1" fill-rule="nonzero"/></g><g clip-path="url(#f0bd4323ba)"><path fill="#ffffff" d="M 92.046875 80.046875 C 90.671875 78.660156 88.238281 78.671875 86.863281 80.046875 L 73.902344 93.011719 C 73.84375 93.050781 73.816406 93.09375 73.761719 93.148438 C 73.761719 93.164062 73.734375 93.164062 73.734375 93.179688 C 73.703125 93.191406 73.703125 93.21875 73.691406 93.234375 C 71.773438 95.25 70.722656 97.882812 70.722656 100.667969 C 70.722656 101.058594 71.03125 101.367188 71.421875 101.367188 C 74.207031 101.367188 76.828125 100.316406 78.855469 98.398438 C 78.871094 98.386719 78.898438 98.386719 78.914062 98.359375 C 78.925781 98.359375 78.925781 98.328125 78.941406 98.328125 C 78.996094 98.273438 79.039062 98.246094 79.082031 98.191406 L 92.046875 85.226562 C 92.746094 84.539062 93.125 83.617188 93.125 82.636719 C 93.125 81.667969 92.730469 80.71875 92.046875 80.046875 Z M 91.066406 84.246094 L 78.421875 96.875 L 75.21875 93.667969 L 87.84375 81.027344 C 88.277344 80.605469 88.851562 80.367188 89.457031 80.367188 C 90.058594 80.367188 90.644531 80.605469 91.066406 81.027344 C 91.484375 81.445312 91.722656 82.035156 91.722656 82.636719 C 91.722656 83.238281 91.484375 83.8125 91.066406 84.246094 Z M 91.066406 84.246094 " fill-opacity="1" fill-rule="nonzero"/></g><g clip-path="url(#8c28eac53c)"><path fill="#ffffff" d="M 69.96875 82.734375 L 68.285156 81.90625 C 68.117188 81.332031 67.878906 80.789062 67.601562 80.253906 L 68.203125 78.476562 C 68.371094 77.988281 68.230469 77.441406 67.867188 77.078125 L 67.027344 76.222656 C 66.761719 75.957031 66.410156 75.816406 66.046875 75.816406 C 65.90625 75.816406 65.753906 75.84375 65.613281 75.886719 L 63.835938 76.488281 C 63.300781 76.210938 62.757812 75.972656 62.183594 75.804688 L 61.355469 74.125 C 61.117188 73.660156 60.644531 73.367188 60.125 73.367188 L 58.921875 73.367188 C 58.402344 73.367188 57.925781 73.660156 57.6875 74.125 L 56.863281 75.804688 C 56.289062 75.972656 55.742188 76.210938 55.210938 76.488281 L 53.433594 75.886719 C 52.929688 75.71875 52.394531 75.859375 52.019531 76.222656 L 51.179688 77.078125 C 50.8125 77.441406 50.675781 77.988281 50.84375 78.476562 L 51.445312 80.253906 C 51.164062 80.789062 50.925781 81.332031 50.757812 81.90625 L 49.078125 82.734375 C 48.617188 82.972656 48.324219 83.449219 48.324219 83.964844 L 48.324219 85.167969 C 48.324219 85.6875 48.617188 86.164062 49.078125 86.402344 L 50.757812 87.226562 C 50.925781 87.800781 51.164062 88.347656 51.445312 88.878906 L 50.84375 90.65625 C 50.675781 91.148438 50.8125 91.695312 51.179688 92.058594 L 52.019531 92.910156 C 52.394531 93.277344 52.929688 93.402344 53.433594 93.246094 L 55.210938 92.644531 C 55.742188 92.925781 56.289062 93.164062 56.863281 93.332031 L 57.6875 95.011719 C 57.925781 95.472656 58.402344 95.769531 58.921875 95.769531 L 60.125 95.769531 C 60.644531 95.769531 61.117188 95.472656 61.355469 95.011719 L 62.183594 93.332031 C 62.757812 93.164062 63.300781 92.925781 63.835938 92.644531 L 65.613281 93.246094 C 66.117188 93.402344 66.648438 93.277344 67.027344 92.910156 L 67.867188 92.058594 C 68.230469 91.695312 68.371094 91.148438 68.203125 90.65625 L 67.601562 88.878906 C 67.878906 88.347656 68.117188 87.800781 68.285156 87.226562 L 69.96875 86.402344 C 70.429688 86.164062 70.722656 85.6875 70.722656 85.167969 L 70.722656 83.964844 C 70.722656 83.449219 70.429688 82.972656 69.96875 82.734375 Z M 65.121094 84.566406 C 65.121094 87.660156 62.617188 90.167969 59.523438 90.167969 C 56.429688 90.167969 53.921875 87.660156 53.921875 84.566406 C 53.921875 81.472656 56.429688 78.96875 59.523438 78.96875 C 62.617188 78.96875 65.121094 81.472656 65.121094 84.566406 Z M 65.121094 84.566406 " fill-opacity="1" fill-rule="nonzero"/></g><path fill="#ffffff" d="M 60.921875 84.566406 C 60.921875 84.753906 60.886719 84.933594 60.816406 85.101562 C 60.746094 85.273438 60.644531 85.425781 60.511719 85.558594 C 60.382812 85.6875 60.230469 85.789062 60.058594 85.859375 C 59.886719 85.933594 59.707031 85.96875 59.523438 85.96875 C 59.335938 85.96875 59.160156 85.933594 58.988281 85.859375 C 58.816406 85.789062 58.664062 85.6875 58.53125 85.558594 C 58.402344 85.425781 58.300781 85.273438 58.230469 85.101562 C 58.15625 84.933594 58.121094 84.753906 58.121094 84.566406 C 58.121094 84.382812 58.15625 84.203125 58.230469 84.03125 C 58.300781 83.859375 58.402344 83.707031 58.53125 83.578125 C 58.664062 83.445312 58.816406 83.34375 58.988281 83.273438 C 59.160156 83.203125 59.335938 83.167969 59.523438 83.167969 C 59.707031 83.167969 59.886719 83.203125 60.058594 83.273438 C 60.230469 83.34375 60.382812 83.445312 60.511719 83.578125 C 60.644531 83.707031 60.746094 83.859375 60.816406 84.03125 C 60.886719 84.203125 60.921875 84.382812 60.921875 84.566406 Z M 60.921875 84.566406 " fill-opacity="1" fill-rule="nonzero"/><g clip-path="url(#388947bb6e)"><path fill="#ffffff" d="M 75.621094 64.96875 L 74.683594 64.96875 C 74.097656 63.316406 72.515625 62.167969 70.722656 62.167969 C 68.929688 62.167969 67.347656 63.316406 66.761719 64.96875 L 65.824219 64.96875 C 64.664062 64.96875 63.722656 65.910156 63.722656 67.066406 L 63.722656 71.265625 C 63.722656 71.652344 64.035156 71.96875 64.421875 71.96875 L 77.023438 71.96875 C 77.410156 71.96875 77.722656 71.652344 77.722656 71.265625 L 77.722656 67.066406 C 77.722656 65.910156 76.78125 64.96875 75.621094 64.96875 Z M 70.722656 67.765625 C 69.949219 67.765625 69.324219 67.140625 69.324219 66.367188 C 69.324219 65.597656 69.949219 64.96875 70.722656 64.96875 C 71.496094 64.96875 72.121094 65.597656 72.121094 66.367188 C 72.121094 67.140625 71.496094 67.765625 70.722656 67.765625 Z M 70.722656 67.765625 " fill-opacity="1" fill-rule="nonzero"/></g><path fill="#ffffff" d="M 84.023438 84.273438 C 83.929688 84.273438 83.835938 84.257812 83.75 84.21875 C 83.488281 84.109375 83.324219 83.855469 83.324219 83.574219 L 83.324219 71.96875 L 58.121094 71.96875 L 58.121094 75.898438 C 58.121094 76.1875 57.949219 76.441406 57.683594 76.550781 L 54.882812 77.675781 C 54.667969 77.761719 54.421875 77.738281 54.230469 77.609375 C 54.039062 77.476562 53.921875 77.257812 53.921875 77.027344 L 53.921875 71.265625 C 53.921875 69.339844 55.492188 67.765625 57.421875 67.765625 L 64.421875 67.765625 C 64.808594 67.765625 65.121094 68.082031 65.121094 68.46875 C 65.121094 68.855469 64.808594 69.167969 64.421875 69.167969 L 57.421875 69.167969 C 56.265625 69.167969 55.324219 70.109375 55.324219 71.265625 L 55.324219 75.988281 L 56.722656 75.425781 L 56.722656 71.265625 C 56.722656 70.882812 57.035156 70.566406 57.421875 70.566406 L 84.023438 70.566406 C 84.410156 70.566406 84.722656 70.882812 84.722656 71.265625 L 84.722656 81.933594 L 86.125 80.589844 L 86.125 71.265625 C 86.125 70.109375 85.179688 69.167969 84.023438 69.167969 L 77.023438 69.167969 C 76.636719 69.167969 76.324219 68.855469 76.324219 68.46875 C 76.324219 68.082031 76.636719 67.765625 77.023438 67.765625 L 84.023438 67.765625 C 85.953125 67.765625 87.523438 69.339844 87.523438 71.265625 L 87.523438 80.886719 C 87.523438 81.078125 87.445312 81.261719 87.308594 81.390625 L 84.507812 84.082031 C 84.375 84.207031 84.199219 84.273438 84.023438 84.273438 Z M 84.023438 84.273438 " fill-opacity="1" fill-rule="nonzero"/><path fill="#ffffff" d="M 79.824219 76.167969 L 74.222656 76.167969 C 73.835938 76.167969 73.523438 75.855469 73.523438 75.46875 C 73.523438 75.082031 73.835938 74.765625 74.222656 74.765625 L 79.824219 74.765625 C 80.210938 74.765625 80.523438 75.082031 80.523438 75.46875 C 80.523438 75.855469 80.210938 76.167969 79.824219 76.167969 Z M 79.824219 76.167969 " fill-opacity="1" fill-rule="nonzero"/><path fill="#ffffff" d="M 79.824219 80.367188 L 67.066406 80.367188 C 66.679688 80.367188 66.363281 80.054688 66.363281 79.667969 C 66.363281 79.28125 66.679688 78.96875 67.066406 78.96875 L 79.824219 78.96875 C 80.210938 78.96875 80.523438 79.28125 80.523438 79.667969 C 80.523438 80.054688 80.210938 80.367188 79.824219 80.367188 Z M 79.824219 80.367188 " fill-opacity="1" fill-rule="nonzero"/><path fill="#ffffff" d="M 79.824219 84.566406 L 70.015625 84.566406 C 69.628906 84.566406 69.3125 84.253906 69.3125 83.867188 C 69.3125 83.480469 69.628906 83.167969 70.015625 83.167969 L 79.824219 83.167969 C 80.210938 83.167969 80.523438 83.480469 80.523438 83.867188 C 80.523438 84.253906 80.210938 84.566406 79.824219 84.566406 Z M 79.824219 84.566406 " fill-opacity="1" fill-rule="nonzero"/><path fill="#ffffff" d="M 68.621094 99.96875 L 61.621094 99.96875 C 61.234375 99.96875 60.921875 99.65625 60.921875 99.269531 C 60.921875 98.882812 61.234375 98.566406 61.621094 98.566406 L 68.621094 98.566406 C 69.007812 98.566406 69.324219 98.882812 69.324219 99.269531 C 69.324219 99.65625 69.007812 99.96875 68.621094 99.96875 Z M 68.621094 99.96875 " fill-opacity="1" fill-rule="nonzero"/><g clip-path="url(#7f604238cc)"><path fill="#ffffff" d="M 84.023438 106.96875 L 57.421875 106.96875 C 55.492188 106.96875 53.921875 105.398438 53.921875 103.46875 L 53.921875 92.109375 C 53.921875 91.890625 54.023438 91.683594 54.199219 91.550781 C 54.375 91.417969 54.601562 91.375 54.8125 91.4375 L 57.613281 92.226562 C 57.914062 92.3125 58.121094 92.585938 58.121094 92.902344 L 58.121094 102.769531 L 83.324219 102.769531 L 83.324219 92.269531 C 83.324219 92.082031 83.398438 91.902344 83.527344 91.773438 L 86.328125 88.972656 C 86.527344 88.773438 86.832031 88.710938 87.089844 88.820312 C 87.351562 88.929688 87.523438 89.183594 87.523438 89.46875 L 87.523438 103.46875 C 87.523438 105.398438 85.953125 106.96875 84.023438 106.96875 Z M 55.324219 93.035156 L 55.324219 103.46875 C 55.324219 104.625 56.265625 105.566406 57.421875 105.566406 L 84.023438 105.566406 C 85.179688 105.566406 86.125 104.625 86.125 103.46875 L 86.125 91.15625 L 84.722656 92.558594 L 84.722656 103.46875 C 84.722656 103.855469 84.410156 104.167969 84.023438 104.167969 L 57.421875 104.167969 C 57.035156 104.167969 56.722656 103.855469 56.722656 103.46875 L 56.722656 93.429688 Z M 55.324219 93.035156 " fill-opacity="1" fill-rule="nonzero"/></g><g fill="#2a9d8f" fill-opacity="1"><g transform="translate(3.849954, 48.449486)"><g><path d="M 21.734375 0 L 14.171875 -13.71875 L 12.0625 -13.71875 L 12.0625 0 L 3.203125 0 L 3.203125 -36.328125 L 18.0625 -36.328125 C 20.925781 -36.328125 23.363281 -35.828125 25.375 -34.828125 C 27.394531 -33.828125 28.90625 -32.453125 29.90625 -30.703125 C 30.90625 -28.960938 31.40625 -27.023438 31.40625 -24.890625 C 31.40625 -22.472656 30.722656 -20.316406 29.359375 -18.421875 C 28.003906 -16.523438 26 -15.179688 23.34375 -14.390625 L 31.71875 0 Z M 12.0625 -19.96875 L 17.546875 -19.96875 C 19.160156 -19.96875 20.375 -20.363281 21.1875 -21.15625 C 22 -21.957031 22.40625 -23.082031 22.40625 -24.53125 C 22.40625 -25.90625 22 -26.988281 21.1875 -27.78125 C 20.375 -28.582031 19.160156 -28.984375 17.546875 -28.984375 L 12.0625 -28.984375 Z M 12.0625 -19.96875 "/></g></g></g><g fill="#2a9d8f" fill-opacity="1"><g transform="translate(37.59377, 48.449486)"><g><path d="M 12.0625 -29.234375 L 12.0625 -21.890625 L 23.90625 -21.890625 L 23.90625 -15.0625 L 12.0625 -15.0625 L 12.0625 -7.09375 L 25.46875 -7.09375 L 25.46875 0 L 3.203125 0 L 3.203125 -36.328125 L 25.46875 -36.328125 L 25.46875 -29.234375 Z M 12.0625 -29.234375 "/></g></g></g><g fill="#2a9d8f" fill-opacity="1"><g transform="translate(65.592854, 48.449486)"><g><path d="M 29.078125 6.203125 L 24.421875 -0.046875 C 23.046875 0.222656 21.703125 0.359375 20.390625 0.359375 C 16.972656 0.359375 13.84375 -0.429688 11 -2.015625 C 8.15625 -3.609375 5.894531 -5.828125 4.21875 -8.671875 C 2.539062 -11.515625 1.703125 -14.710938 1.703125 -18.265625 C 1.703125 -21.816406 2.539062 -25.003906 4.21875 -27.828125 C 5.894531 -30.660156 8.15625 -32.867188 11 -34.453125 C 13.84375 -36.046875 16.972656 -36.84375 20.390625 -36.84375 C 23.804688 -36.84375 26.9375 -36.046875 29.78125 -34.453125 C 32.625 -32.867188 34.863281 -30.660156 36.5 -27.828125 C 38.144531 -25.003906 38.96875 -21.816406 38.96875 -18.265625 C 38.96875 -15.160156 38.335938 -12.320312 37.078125 -9.75 C 35.816406 -7.1875 34.066406 -5.054688 31.828125 -3.359375 L 39.796875 6.203125 Z M 10.765625 -18.265625 C 10.765625 -15.054688 11.632812 -12.492188 13.375 -10.578125 C 15.113281 -8.660156 17.453125 -7.703125 20.390625 -7.703125 C 23.285156 -7.703125 25.601562 -8.664062 27.34375 -10.59375 C 29.09375 -12.53125 29.96875 -15.085938 29.96875 -18.265625 C 29.96875 -21.472656 29.09375 -24.035156 27.34375 -25.953125 C 25.601562 -27.867188 23.285156 -28.828125 20.390625 -28.828125 C 17.453125 -28.828125 15.113281 -27.875 13.375 -25.96875 C 11.632812 -24.070312 10.765625 -21.503906 10.765625 -18.265625 Z M 10.765625 -18.265625 "/></g></g></g><g fill="#2a9d8f" fill-opacity="1"><g transform="translate(106.375258, 48.449486)"><g><path d="M 11.90625 -36.328125 L 11.90625 -14.59375 C 11.90625 -12.414062 12.4375 -10.738281 13.5 -9.5625 C 14.570312 -8.394531 16.144531 -7.8125 18.21875 -7.8125 C 20.289062 -7.8125 21.878906 -8.394531 22.984375 -9.5625 C 24.085938 -10.738281 24.640625 -12.414062 24.640625 -14.59375 L 24.640625 -36.328125 L 33.484375 -36.328125 L 33.484375 -14.640625 C 33.484375 -11.398438 32.789062 -8.65625 31.40625 -6.40625 C 30.03125 -4.164062 28.175781 -2.476562 25.84375 -1.34375 C 23.519531 -0.207031 20.925781 0.359375 18.0625 0.359375 C 15.195312 0.359375 12.632812 -0.195312 10.375 -1.3125 C 8.113281 -2.4375 6.328125 -4.128906 5.015625 -6.390625 C 3.703125 -8.648438 3.046875 -11.398438 3.046875 -14.640625 L 3.046875 -36.328125 Z M 11.90625 -36.328125 "/></g></g></g><g fill="#2a9d8f" fill-opacity="1"><g transform="translate(142.862047, 48.449486)"><g><path d="M 12.0625 -29.234375 L 12.0625 -21.890625 L 23.90625 -21.890625 L 23.90625 -15.0625 L 12.0625 -15.0625 L 12.0625 -7.09375 L 25.46875 -7.09375 L 25.46875 0 L 3.203125 0 L 3.203125 -36.328125 L 25.46875 -36.328125 L 25.46875 -29.234375 Z M 12.0625 -29.234375 "/></g></g></g><g fill="#2a9d8f" fill-opacity="1"><g transform="translate(170.861131, 48.449486)"><g><path d="M 16.359375 0.359375 C 13.703125 0.359375 11.320312 -0.0664062 9.21875 -0.921875 C 7.113281 -1.785156 5.429688 -3.0625 4.171875 -4.75 C 2.910156 -6.445312 2.242188 -8.488281 2.171875 -10.875 L 11.59375 -10.875 C 11.726562 -9.519531 12.191406 -8.488281 12.984375 -7.78125 C 13.773438 -7.082031 14.8125 -6.734375 16.09375 -6.734375 C 17.40625 -6.734375 18.441406 -7.03125 19.203125 -7.625 C 19.960938 -8.226562 20.34375 -9.066406 20.34375 -10.140625 C 20.34375 -11.035156 20.039062 -11.773438 19.4375 -12.359375 C 18.832031 -12.953125 18.085938 -13.4375 17.203125 -13.8125 C 16.328125 -14.195312 15.078125 -14.628906 13.453125 -15.109375 C 11.109375 -15.835938 9.191406 -16.5625 7.703125 -17.28125 C 6.222656 -18.007812 4.945312 -19.078125 3.875 -20.484375 C 2.8125 -21.898438 2.28125 -23.75 2.28125 -26.03125 C 2.28125 -29.414062 3.503906 -32.0625 5.953125 -33.96875 C 8.398438 -35.882812 11.59375 -36.84375 15.53125 -36.84375 C 19.53125 -36.84375 22.753906 -35.882812 25.203125 -33.96875 C 27.648438 -32.0625 28.960938 -29.398438 29.140625 -25.984375 L 19.5625 -25.984375 C 19.488281 -27.148438 19.054688 -28.066406 18.265625 -28.734375 C 17.472656 -29.410156 16.457031 -29.75 15.21875 -29.75 C 14.144531 -29.75 13.28125 -29.460938 12.625 -28.890625 C 11.96875 -28.328125 11.640625 -27.507812 11.640625 -26.4375 C 11.640625 -25.269531 12.191406 -24.359375 13.296875 -23.703125 C 14.398438 -23.046875 16.125 -22.335938 18.46875 -21.578125 C 20.820312 -20.785156 22.726562 -20.023438 24.1875 -19.296875 C 25.65625 -18.578125 26.921875 -17.523438 27.984375 -16.140625 C 29.054688 -14.765625 29.59375 -12.988281 29.59375 -10.8125 C 29.59375 -8.738281 29.066406 -6.859375 28.015625 -5.171875 C 26.960938 -3.484375 25.4375 -2.140625 23.4375 -1.140625 C 21.4375 -0.140625 19.078125 0.359375 16.359375 0.359375 Z M 16.359375 0.359375 "/></g></g></g><g fill="#2a9d8f" fill-opacity="1"><g transform="translate(202.690046, 48.449486)"><g><path d="M 29.34375 -36.328125 L 29.34375 -29.234375 L 19.71875 -29.234375 L 19.71875 0 L 10.875 0 L 10.875 -29.234375 L 1.234375 -29.234375 L 1.234375 -36.328125 Z M 29.34375 -36.328125 "/></g></g></g><g fill="#2a9d8f" fill-opacity="1"><g transform="translate(105.889715, 100.023781)"><g><path d="M 39.265625 -32.15625 L 39.265625 0 L 31.421875 0 L 31.421875 -19.28125 L 24.234375 0 L 17.90625 0 L 10.671875 -19.328125 L 10.671875 0 L 2.84375 0 L 2.84375 -32.15625 L 12.09375 -32.15625 L 21.125 -9.890625 L 30.046875 -32.15625 Z M 39.265625 -32.15625 "/></g></g></g><g fill="#2a9d8f" fill-opacity="1"><g transform="translate(147.949091, 100.023781)"><g><path d="M 22.859375 -5.6875 L 10.859375 -5.6875 L 8.9375 0 L 0.734375 0 L 12.375 -32.15625 L 21.4375 -32.15625 L 33.078125 0 L 24.78125 0 Z M 20.84375 -11.734375 L 16.859375 -23.5 L 12.921875 -11.734375 Z M 20.84375 -11.734375 "/></g></g></g><g fill="#2a9d8f" fill-opacity="1"><g transform="translate(181.715712, 100.023781)"><g><path d="M 31.609375 0 L 23.78125 0 L 10.671875 -19.84375 L 10.671875 0 L 2.84375 0 L 2.84375 -32.15625 L 10.671875 -32.15625 L 23.78125 -12.234375 L 23.78125 -32.15625 L 31.609375 -32.15625 Z M 31.609375 0 "/></g></g></g><g fill="#2a9d8f" fill-opacity="1"><g transform="translate(216.169576, 100.023781)"><g><path d="M 22.859375 -5.6875 L 10.859375 -5.6875 L 8.9375 0 L 0.734375 0 L 12.375 -32.15625 L 21.4375 -32.15625 L 33.078125 0 L 24.78125 0 Z M 20.84375 -11.734375 L 16.859375 -23.5 L 12.921875 -11.734375 Z M 20.84375 -11.734375 "/></g></g></g><g fill="#2a9d8f" fill-opacity="1"><g transform="translate(249.936206, 100.023781)"><g><path d="M 24.1875 -21.984375 C 23.601562 -23.054688 22.769531 -23.875 21.6875 -24.4375 C 20.601562 -25 19.328125 -25.28125 17.859375 -25.28125 C 15.328125 -25.28125 13.296875 -24.445312 11.765625 -22.78125 C 10.242188 -21.125 9.484375 -18.90625 9.484375 -16.125 C 9.484375 -13.164062 10.285156 -10.851562 11.890625 -9.1875 C 13.492188 -7.519531 15.703125 -6.6875 18.515625 -6.6875 C 20.429688 -6.6875 22.050781 -7.175781 23.375 -8.15625 C 24.707031 -9.132812 25.679688 -10.539062 26.296875 -12.375 L 16.359375 -12.375 L 16.359375 -18.140625 L 33.390625 -18.140625 L 33.390625 -10.859375 C 32.816406 -8.898438 31.832031 -7.082031 30.4375 -5.40625 C 29.050781 -3.726562 27.285156 -2.367188 25.140625 -1.328125 C 23.003906 -0.285156 20.59375 0.234375 17.90625 0.234375 C 14.726562 0.234375 11.894531 -0.457031 9.40625 -1.84375 C 6.925781 -3.238281 4.988281 -5.171875 3.59375 -7.640625 C 2.207031 -10.117188 1.515625 -12.945312 1.515625 -16.125 C 1.515625 -19.300781 2.207031 -22.132812 3.59375 -24.625 C 4.988281 -27.113281 6.921875 -29.050781 9.390625 -30.4375 C 11.867188 -31.832031 14.691406 -32.53125 17.859375 -32.53125 C 21.710938 -32.53125 24.957031 -31.597656 27.59375 -29.734375 C 30.238281 -27.867188 31.988281 -25.285156 32.84375 -21.984375 Z M 24.1875 -21.984375 "/></g></g></g><g fill="#2a9d8f" fill-opacity="1"><g transform="translate(284.848242, 100.023781)"><g><path d="M 10.671875 -32.15625 L 10.671875 0 L 2.84375 0 L 2.84375 -32.15625 Z M 10.671875 -32.15625 "/></g></g></g><g fill="#2a9d8f" fill-opacity="1"><g transform="translate(298.364055, 100.023781)"><g><path d="M 31.609375 0 L 23.78125 0 L 10.671875 -19.84375 L 10.671875 0 L 2.84375 0 L 2.84375 -32.15625 L 10.671875 -32.15625 L 23.78125 -12.234375 L 23.78125 -32.15625 L 31.609375 -32.15625 Z M 31.609375 0 "/></g></g></g><g fill="#2a9d8f" fill-opacity="1"><g transform="translate(332.817919, 100.023781)"><g><path d="M 24.1875 -21.984375 C 23.601562 -23.054688 22.769531 -23.875 21.6875 -24.4375 C 20.601562 -25 19.328125 -25.28125 17.859375 -25.28125 C 15.328125 -25.28125 13.296875 -24.445312 11.765625 -22.78125 C 10.242188 -21.125 9.484375 -18.90625 9.484375 -16.125 C 9.484375 -13.164062 10.285156 -10.851562 11.890625 -9.1875 C 13.492188 -7.519531 15.703125 -6.6875 18.515625 -6.6875 C 20.429688 -6.6875 22.050781 -7.175781 23.375 -8.15625 C 24.707031 -9.132812 25.679688 -10.539062 26.296875 -12.375 L 16.359375 -12.375 L 16.359375 -18.140625 L 33.390625 -18.140625 L 33.390625 -10.859375 C 32.816406 -8.898438 31.832031 -7.082031 30.4375 -5.40625 C 29.050781 -3.726562 27.285156 -2.367188 25.140625 -1.328125 C 23.003906 -0.285156 20.59375 0.234375 17.90625 0.234375 C 14.726562 0.234375 11.894531 -0.457031 9.40625 -1.84375 C 6.925781 -3.238281 4.988281 -5.171875 3.59375 -7.640625 C 2.207031 -10.117188 1.515625 -12.945312 1.515625 -16.125 C 1.515625 -19.300781 2.207031 -22.132812 3.59375 -24.625 C 4.988281 -27.113281 6.921875 -29.050781 9.390625 -30.4375 C 11.867188 -31.832031 14.691406 -32.53125 17.859375 -32.53125 C 21.710938 -32.53125 24.957031 -31.597656 27.59375 -29.734375 C 30.238281 -27.867188 31.988281 -25.285156 32.84375 -21.984375 Z M 24.1875 -21.984375 "/></g></g></g></svg>