<svg xmlns="http://www.w3.org/2000/svg" xmlns:xlink="http://www.w3.org/1999/xlink" width="500" zoomAndPan="magnify" viewBox="0 0 375 112.499997" height="150" preserveAspectRatio="xMidYMid meet" version="1.0"><defs><g/><clipPath id="dc73e69459"><path d="M 0.828125 0 L 374.167969 0 L 374.167969 112.003906 L 0.828125 112.003906 Z M 0.828125 0 " clip-rule="nonzero"/></clipPath><clipPath id="8214c90da5"><path d="M 91 62.167969 L 118.363281 62.167969 L 118.363281 106 L 91 106 Z M 91 62.167969 " clip-rule="nonzero"/></clipPath><clipPath id="3f9fe12e76"><path d="M 79.535156 76 L 103 76 L 103 106.96875 L 79.535156 106.96875 Z M 79.535156 76 " clip-rule="nonzero"/></clipPath></defs><g clip-path="url(#dc73e69459)"><path fill="#ffffff" d="M 0.828125 0 L 374.171875 0 L 374.171875 112.003906 L 0.828125 112.003906 Z M 0.828125 0 " fill-opacity="1" fill-rule="nonzero"/><path fill="#e76f51" d="M 0.828125 0 L 374.171875 0 L 374.171875 112.003906 L 0.828125 112.003906 Z M 0.828125 0 " fill-opacity="1" fill-rule="nonzero"/></g><path fill="#ffffff" d="M 104.4375 67.484375 L 104.4375 102.84375 L 113.15625 105.832031 L 115.382812 105.832031 L 115.382812 64.703125 Z M 106.019531 87.257812 C 105.664062 87.257812 105.378906 86.757812 105.378906 86.140625 C 105.378906 85.527344 105.664062 85.027344 106.019531 85.027344 C 106.378906 85.027344 106.664062 85.527344 106.664062 86.140625 C 106.664062 86.757812 106.378906 87.257812 106.019531 87.257812 Z M 106.019531 87.257812 " fill-opacity="1" fill-rule="nonzero"/><path fill="#ffffff" d="M 91.019531 105.792969 L 92.984375 105.792969 L 92.984375 96.785156 L 91.019531 94.441406 Z M 91.019531 105.792969 " fill-opacity="1" fill-rule="nonzero"/><g clip-path="url(#8214c90da5)"><path fill="#ffffff" d="M 91.019531 62.230469 L 91.019531 70.082031 C 91.59375 69.726562 92.265625 69.515625 92.984375 69.496094 L 92.984375 64.289062 L 116.558594 64.289062 L 116.558594 105.792969 L 118.523438 105.792969 L 118.523438 62.230469 Z M 91.019531 62.230469 " fill-opacity="1" fill-rule="nonzero"/></g><path fill="#ffffff" d="M 96.222656 73.472656 C 96.222656 73.886719 96.140625 74.285156 95.984375 74.667969 C 95.824219 75.046875 95.601562 75.386719 95.308594 75.679688 C 95.015625 75.972656 94.675781 76.195312 94.296875 76.355469 C 93.914062 76.511719 93.515625 76.59375 93.101562 76.59375 C 92.6875 76.59375 92.289062 76.511719 91.90625 76.355469 C 91.527344 76.195312 91.1875 75.972656 90.894531 75.679688 C 90.605469 75.386719 90.378906 75.046875 90.21875 74.667969 C 90.0625 74.285156 89.984375 73.886719 89.984375 73.472656 C 89.984375 73.058594 90.0625 72.660156 90.21875 72.277344 C 90.378906 71.898438 90.605469 71.558594 90.894531 71.265625 C 91.1875 70.976562 91.527344 70.75 91.90625 70.589844 C 92.289062 70.433594 92.6875 70.351562 93.101562 70.351562 C 93.515625 70.351562 93.914062 70.433594 94.296875 70.589844 C 94.675781 70.75 95.015625 70.976562 95.308594 71.265625 C 95.601562 71.558594 95.824219 71.898438 95.984375 72.277344 C 96.140625 72.660156 96.222656 73.058594 96.222656 73.472656 Z M 96.222656 73.472656 " fill-opacity="1" fill-rule="nonzero"/><g clip-path="url(#3f9fe12e76)"><path fill="#ffffff" d="M 101.632812 86.898438 L 97.132812 84.90625 L 94.269531 79.019531 C 94.195312 78.816406 94.101562 78.625 93.992188 78.441406 L 93.925781 78.304688 C 93.753906 77.953125 93.484375 77.695312 93.1875 77.546875 C 92.84375 77.289062 92.445312 77.09375 92.003906 76.996094 C 91.742188 76.941406 91.484375 76.921875 91.226562 76.933594 C 91 76.925781 90.757812 76.960938 90.511719 77.046875 C 90.121094 77.15625 89.75 77.34375 89.417969 77.597656 L 82.703125 81.152344 C 82.582031 81.214844 82.472656 81.289062 82.371094 81.371094 C 82.042969 81.546875 81.792969 81.859375 81.714844 82.257812 L 80.667969 87.816406 C 80.535156 88.511719 80.992188 89.183594 81.6875 89.3125 C 82.382812 89.445312 83.054688 88.988281 83.1875 88.292969 L 84.171875 83.074219 L 87.777344 81.167969 L 86.191406 88.375 C 86.140625 88.59375 86.125 88.800781 86.128906 88.996094 L 84.925781 96.515625 C 84.898438 96.550781 84.871094 96.582031 84.84375 96.621094 L 80.109375 103.921875 C 79.519531 104.835938 79.632812 105.960938 80.367188 106.433594 C 81.097656 106.910156 82.171875 106.554688 82.765625 105.644531 L 87.5 98.34375 C 87.648438 98.113281 87.753906 97.867188 87.816406 97.625 C 87.871094 97.496094 87.917969 97.363281 87.941406 97.21875 L 88.832031 91.636719 C 88.941406 91.667969 89.054688 91.695312 89.164062 91.71875 C 89.535156 91.800781 89.863281 91.929688 90.152344 92.0625 L 95.09375 97.960938 L 96.621094 105.246094 C 96.816406 106.171875 97.667969 106.777344 98.523438 106.597656 C 99.378906 106.417969 99.914062 105.523438 99.71875 104.597656 L 98.167969 97.199219 C 98.105469 96.910156 97.972656 96.652344 97.800781 96.4375 C 97.742188 96.335938 97.675781 96.238281 97.597656 96.144531 L 92.441406 89.992188 L 93.847656 83.613281 L 95.074219 86.132812 C 95.109375 86.207031 95.152344 86.277344 95.199219 86.34375 C 95.28125 86.691406 95.5 86.988281 95.835938 87.136719 L 100.59375 89.242188 C 101.1875 89.507812 101.902344 89.195312 102.1875 88.546875 C 102.476562 87.898438 102.226562 87.160156 101.632812 86.898438 Z M 101.632812 86.898438 " fill-opacity="1" fill-rule="nonzero"/></g><g fill="#264653" fill-opacity="1"><g transform="translate(9.364443, 48.449486)"><g><path d="M 25.984375 -36.328125 L 25.984375 -11.59375 C 25.984375 -7.757812 24.90625 -4.804688 22.75 -2.734375 C 20.59375 -0.671875 17.6875 0.359375 14.03125 0.359375 C 10.195312 0.359375 7.125 -0.722656 4.8125 -2.890625 C 2.5 -5.066406 1.34375 -8.15625 1.34375 -12.15625 L 10.140625 -12.15625 C 10.140625 -10.644531 10.445312 -9.5 11.0625 -8.71875 C 11.6875 -7.945312 12.585938 -7.5625 13.765625 -7.5625 C 14.835938 -7.5625 15.664062 -7.90625 16.25 -8.59375 C 16.832031 -9.28125 17.125 -10.28125 17.125 -11.59375 L 17.125 -36.328125 Z M 25.984375 -36.328125 "/></g></g></g><g fill="#264653" fill-opacity="1"><g transform="translate(39.278438, 48.449486)"><g><path d="M 20.390625 0.359375 C 16.972656 0.359375 13.84375 -0.429688 11 -2.015625 C 8.15625 -3.609375 5.894531 -5.828125 4.21875 -8.671875 C 2.539062 -11.515625 1.703125 -14.710938 1.703125 -18.265625 C 1.703125 -21.816406 2.539062 -25.003906 4.21875 -27.828125 C 5.894531 -30.660156 8.15625 -32.867188 11 -34.453125 C 13.84375 -36.046875 16.972656 -36.84375 20.390625 -36.84375 C 23.804688 -36.84375 26.9375 -36.046875 29.78125 -34.453125 C 32.625 -32.867188 34.863281 -30.660156 36.5 -27.828125 C 38.144531 -25.003906 38.96875 -21.816406 38.96875 -18.265625 C 38.96875 -14.710938 38.140625 -11.515625 36.484375 -8.671875 C 34.828125 -5.828125 32.582031 -3.609375 29.75 -2.015625 C 26.925781 -0.429688 23.804688 0.359375 20.390625 0.359375 Z M 20.390625 -7.703125 C 23.285156 -7.703125 25.601562 -8.664062 27.34375 -10.59375 C 29.09375 -12.53125 29.96875 -15.085938 29.96875 -18.265625 C 29.96875 -21.472656 29.09375 -24.035156 27.34375 -25.953125 C 25.601562 -27.867188 23.285156 -28.828125 20.390625 -28.828125 C 17.453125 -28.828125 15.113281 -27.875 13.375 -25.96875 C 11.632812 -24.070312 10.765625 -21.503906 10.765625 -18.265625 C 10.765625 -15.054688 11.632812 -12.492188 13.375 -10.578125 C 15.113281 -8.660156 17.453125 -7.703125 20.390625 -7.703125 Z M 20.390625 -7.703125 "/></g></g></g><g fill="#264653" fill-opacity="1"><g transform="translate(79.957333, 48.449486)"><g><path d="M 12.0625 -36.328125 L 12.0625 0 L 3.203125 0 L 3.203125 -36.328125 Z M 12.0625 -36.328125 "/></g></g></g><g fill="#264653" fill-opacity="1"><g transform="translate(95.224857, 48.449486)"><g><path d="M 35.703125 0 L 26.859375 0 L 12.0625 -22.40625 L 12.0625 0 L 3.203125 0 L 3.203125 -36.328125 L 12.0625 -36.328125 L 26.859375 -13.8125 L 26.859375 -36.328125 L 35.703125 -36.328125 Z M 35.703125 0 "/></g></g></g><g fill="#264653" fill-opacity="1"><g transform="translate(134.1441, 48.449486)"><g><path d="M 12.0625 -36.328125 L 12.0625 0 L 3.203125 0 L 3.203125 -36.328125 Z M 12.0625 -36.328125 "/></g></g></g><g fill="#264653" fill-opacity="1"><g transform="translate(149.411624, 48.449486)"><g><path d="M 35.703125 0 L 26.859375 0 L 12.0625 -22.40625 L 12.0625 0 L 3.203125 0 L 3.203125 -36.328125 L 12.0625 -36.328125 L 26.859375 -13.8125 L 26.859375 -36.328125 L 35.703125 -36.328125 Z M 35.703125 0 "/></g></g></g><g fill="#264653" fill-opacity="1"><g transform="translate(188.330858, 48.449486)"><g><path d="M 27.328125 -24.84375 C 26.671875 -26.050781 25.726562 -26.972656 24.5 -27.609375 C 23.28125 -28.242188 21.84375 -28.5625 20.1875 -28.5625 C 17.320312 -28.5625 15.023438 -27.617188 13.296875 -25.734375 C 11.578125 -23.859375 10.71875 -21.351562 10.71875 -18.21875 C 10.71875 -14.875 11.617188 -12.257812 13.421875 -10.375 C 15.234375 -8.5 17.726562 -7.5625 20.90625 -7.5625 C 23.082031 -7.5625 24.921875 -8.113281 26.421875 -9.21875 C 27.921875 -10.320312 29.015625 -11.90625 29.703125 -13.96875 L 18.46875 -13.96875 L 18.46875 -20.5 L 37.71875 -20.5 L 37.71875 -12.265625 C 37.070312 -10.054688 35.960938 -8.003906 34.390625 -6.109375 C 32.816406 -4.210938 30.820312 -2.675781 28.40625 -1.5 C 25.988281 -0.320312 23.265625 0.265625 20.234375 0.265625 C 16.648438 0.265625 13.453125 -0.519531 10.640625 -2.09375 C 7.828125 -3.664062 5.632812 -5.847656 4.0625 -8.640625 C 2.488281 -11.429688 1.703125 -14.625 1.703125 -18.21875 C 1.703125 -21.800781 2.488281 -25 4.0625 -27.8125 C 5.632812 -30.625 7.816406 -32.816406 10.609375 -34.390625 C 13.398438 -35.960938 16.59375 -36.75 20.1875 -36.75 C 24.53125 -36.75 28.191406 -35.691406 31.171875 -33.578125 C 34.160156 -31.472656 36.140625 -28.5625 37.109375 -24.84375 Z M 27.328125 -24.84375 "/></g></g></g><g fill="#264653" fill-opacity="1"><g transform="translate(135.258059, 100.023781)"><g><path d="M 19.234375 0 L 12.546875 -12.140625 L 10.671875 -12.140625 L 10.671875 0 L 2.84375 0 L 2.84375 -32.15625 L 15.984375 -32.15625 C 18.523438 -32.15625 20.6875 -31.710938 22.46875 -30.828125 C 24.257812 -29.941406 25.597656 -28.726562 26.484375 -27.1875 C 27.367188 -25.644531 27.8125 -23.925781 27.8125 -22.03125 C 27.8125 -19.894531 27.207031 -17.988281 26 -16.3125 C 24.789062 -14.632812 23.007812 -13.441406 20.65625 -12.734375 L 28.078125 0 Z M 10.671875 -17.6875 L 15.53125 -17.6875 C 16.96875 -17.6875 18.046875 -18.035156 18.765625 -18.734375 C 19.484375 -19.441406 19.84375 -20.4375 19.84375 -21.71875 C 19.84375 -22.9375 19.484375 -23.894531 18.765625 -24.59375 C 18.046875 -25.300781 16.96875 -25.65625 15.53125 -25.65625 L 10.671875 -25.65625 Z M 10.671875 -17.6875 "/></g></g></g><g fill="#264653" fill-opacity="1"><g transform="translate(165.130295, 100.023781)"><g><path d="M 10.671875 -25.890625 L 10.671875 -19.375 L 21.171875 -19.375 L 21.171875 -13.328125 L 10.671875 -13.328125 L 10.671875 -6.28125 L 22.546875 -6.28125 L 22.546875 0 L 2.84375 0 L 2.84375 -32.15625 L 22.546875 -32.15625 L 22.546875 -25.890625 Z M 10.671875 -25.890625 "/></g></g></g><g fill="#264653" fill-opacity="1"><g transform="translate(189.916919, 100.023781)"><g><path d="M 25.75 5.5 L 21.625 -0.046875 C 20.40625 0.203125 19.210938 0.328125 18.046875 0.328125 C 15.023438 0.328125 12.253906 -0.375 9.734375 -1.78125 C 7.210938 -3.1875 5.210938 -5.148438 3.734375 -7.671875 C 2.253906 -10.191406 1.515625 -13.023438 1.515625 -16.171875 C 1.515625 -19.316406 2.253906 -22.140625 3.734375 -24.640625 C 5.210938 -27.148438 7.210938 -29.109375 9.734375 -30.515625 C 12.253906 -31.921875 15.023438 -32.625 18.046875 -32.625 C 21.066406 -32.625 23.835938 -31.921875 26.359375 -30.515625 C 28.878906 -29.109375 30.863281 -27.148438 32.3125 -24.640625 C 33.769531 -22.140625 34.5 -19.316406 34.5 -16.171875 C 34.5 -13.421875 33.941406 -10.90625 32.828125 -8.625 C 31.710938 -6.351562 30.160156 -4.472656 28.171875 -2.984375 L 35.234375 5.5 Z M 9.53125 -16.171875 C 9.53125 -13.328125 10.300781 -11.054688 11.84375 -9.359375 C 13.382812 -7.671875 15.453125 -6.828125 18.046875 -6.828125 C 20.609375 -6.828125 22.660156 -7.679688 24.203125 -9.390625 C 25.753906 -11.097656 26.53125 -13.359375 26.53125 -16.171875 C 26.53125 -19.015625 25.753906 -21.28125 24.203125 -22.96875 C 22.660156 -24.664062 20.609375 -25.515625 18.046875 -25.515625 C 15.453125 -25.515625 13.382812 -24.675781 11.84375 -23 C 10.300781 -21.320312 9.53125 -19.046875 9.53125 -16.171875 Z M 9.53125 -16.171875 "/></g></g></g><g fill="#264653" fill-opacity="1"><g transform="translate(226.020174, 100.023781)"><g><path d="M 10.53125 -32.15625 L 10.53125 -12.921875 C 10.53125 -10.992188 11.003906 -9.507812 11.953125 -8.46875 C 12.898438 -7.4375 14.289062 -6.921875 16.125 -6.921875 C 17.957031 -6.921875 19.363281 -7.4375 20.34375 -8.46875 C 21.320312 -9.507812 21.8125 -10.992188 21.8125 -12.921875 L 21.8125 -32.15625 L 29.640625 -32.15625 L 29.640625 -12.96875 C 29.640625 -10.09375 29.023438 -7.660156 27.796875 -5.671875 C 26.578125 -3.691406 24.9375 -2.195312 22.875 -1.1875 C 20.820312 -0.175781 18.523438 0.328125 15.984375 0.328125 C 13.453125 0.328125 11.1875 -0.164062 9.1875 -1.15625 C 7.1875 -2.15625 5.601562 -3.65625 4.4375 -5.65625 C 3.28125 -7.65625 2.703125 -10.09375 2.703125 -12.96875 L 2.703125 -32.15625 Z M 10.53125 -32.15625 "/></g></g></g><g fill="#264653" fill-opacity="1"><g transform="translate(258.32067, 100.023781)"><g><path d="M 10.671875 -25.890625 L 10.671875 -19.375 L 21.171875 -19.375 L 21.171875 -13.328125 L 10.671875 -13.328125 L 10.671875 -6.28125 L 22.546875 -6.28125 L 22.546875 0 L 2.84375 0 L 2.84375 -32.15625 L 22.546875 -32.15625 L 22.546875 -25.890625 Z M 10.671875 -25.890625 "/></g></g></g><g fill="#264653" fill-opacity="1"><g transform="translate(283.107293, 100.023781)"><g><path d="M 14.484375 0.328125 C 12.128906 0.328125 10.019531 -0.0507812 8.15625 -0.8125 C 6.289062 -1.582031 4.800781 -2.710938 3.6875 -4.203125 C 2.570312 -5.703125 1.984375 -7.507812 1.921875 -9.625 L 10.265625 -9.625 C 10.378906 -8.425781 10.785156 -7.515625 11.484375 -6.890625 C 12.191406 -6.265625 13.113281 -5.953125 14.25 -5.953125 C 15.40625 -5.953125 16.316406 -6.21875 16.984375 -6.75 C 17.660156 -7.289062 18 -8.035156 18 -8.984375 C 18 -9.773438 17.734375 -10.429688 17.203125 -10.953125 C 16.671875 -11.472656 16.015625 -11.898438 15.234375 -12.234375 C 14.453125 -12.566406 13.34375 -12.945312 11.90625 -13.375 C 9.832031 -14.019531 8.140625 -14.660156 6.828125 -15.296875 C 5.515625 -15.941406 4.382812 -16.890625 3.4375 -18.140625 C 2.488281 -19.390625 2.015625 -21.023438 2.015625 -23.046875 C 2.015625 -26.035156 3.097656 -28.378906 5.265625 -30.078125 C 7.429688 -31.773438 10.257812 -32.625 13.75 -32.625 C 17.289062 -32.625 20.144531 -31.773438 22.3125 -30.078125 C 24.476562 -28.378906 25.640625 -26.019531 25.796875 -23 L 17.3125 -23 C 17.25 -24.039062 16.867188 -24.859375 16.171875 -25.453125 C 15.472656 -26.046875 14.570312 -26.34375 13.46875 -26.34375 C 12.519531 -26.34375 11.753906 -26.085938 11.171875 -25.578125 C 10.597656 -25.078125 10.3125 -24.351562 10.3125 -23.40625 C 10.3125 -22.375 10.796875 -21.566406 11.765625 -20.984375 C 12.742188 -20.398438 14.273438 -19.773438 16.359375 -19.109375 C 18.429688 -18.398438 20.113281 -17.722656 21.40625 -17.078125 C 22.707031 -16.441406 23.832031 -15.515625 24.78125 -14.296875 C 25.726562 -13.078125 26.203125 -11.503906 26.203125 -9.578125 C 26.203125 -7.742188 25.734375 -6.078125 24.796875 -4.578125 C 23.867188 -3.085938 22.519531 -1.894531 20.75 -1 C 18.976562 -0.113281 16.890625 0.328125 14.484375 0.328125 Z M 14.484375 0.328125 "/></g></g></g><g fill="#264653" fill-opacity="1"><g transform="translate(311.284334, 100.023781)"><g><path d="M 25.96875 -32.15625 L 25.96875 -25.890625 L 17.453125 -25.890625 L 17.453125 0 L 9.625 0 L 9.625 -25.890625 L 1.09375 -25.890625 L 1.09375 -32.15625 Z M 25.96875 -32.15625 "/></g></g></g></svg>