<svg xmlns="http://www.w3.org/2000/svg" xmlns:xlink="http://www.w3.org/1999/xlink" width="500" zoomAndPan="magnify" viewBox="0 0 375 112.499997" height="150" preserveAspectRatio="xMidYMid meet" version="1.0"><defs><g/><clipPath id="1e61acf7e4"><path d="M 0.828125 0 L 374.167969 0 L 374.167969 112.003906 L 0.828125 112.003906 Z M 0.828125 0 " clip-rule="nonzero"/></clipPath><clipPath id="8aef4bb09f"><path d="M 75.449219 61.980469 L 118.753906 61.980469 L 118.753906 106.78125 L 75.449219 106.78125 Z M 75.449219 61.980469 " clip-rule="nonzero"/></clipPath></defs><g clip-path="url(#1e61acf7e4)"><path fill="#ffffff" d="M 0.828125 0 L 374.171875 0 L 374.171875 112.003906 L 0.828125 112.003906 Z M 0.828125 0 " fill-opacity="1" fill-rule="nonzero"/><path fill="#2a9d8f" d="M 0.828125 0 L 374.171875 0 L 374.171875 112.003906 L 0.828125 112.003906 Z M 0.828125 0 " fill-opacity="1" fill-rule="nonzero"/></g><g clip-path="url(#8aef4bb09f)"><path fill="#ffffff" d="M 104.085938 72.035156 C 103.996094 71.863281 103.902344 71.695312 103.804688 71.527344 L 108.222656 66.378906 C 108.347656 66.507812 108.488281 66.628906 108.632812 66.730469 Z M 85.832031 73.734375 L 80.285156 76.609375 C 80.382812 76.761719 80.464844 76.921875 80.535156 77.09375 L 86.082031 74.214844 C 85.984375 74.0625 85.898438 73.902344 85.832031 73.734375 Z M 96.816406 75.585938 L 91.515625 73.460938 C 91.460938 73.632812 91.394531 73.800781 91.3125 73.960938 L 96.613281 76.089844 C 96.667969 75.914062 96.734375 75.746094 96.816406 75.585938 Z M 80.039062 90.125 C 79.957031 90.046875 79.875 89.96875 79.792969 89.886719 C 78.546875 88.640625 77.542969 87.214844 76.804688 85.667969 L 75.445312 85.667969 L 75.445312 97.21875 L 80.039062 97.21875 Z M 90.917969 89.902344 L 90.917969 81.242188 L 86.328125 81.242188 L 86.328125 89.042969 C 87.652344 89.609375 89.089844 89.90625 90.574219 89.90625 C 90.691406 89.90625 90.804688 89.90625 90.917969 89.902344 Z M 86.328125 93.753906 L 86.328125 97.21875 L 90.917969 97.21875 L 90.917969 94.347656 C 90.804688 94.351562 90.691406 94.351562 90.574219 94.351562 C 89.117188 94.351562 87.691406 94.148438 86.328125 93.753906 Z M 100.792969 82.632812 L 97.210938 82.632812 L 97.210938 87.632812 C 97.558594 87.359375 97.894531 87.0625 98.214844 86.742188 C 99.390625 85.566406 100.265625 84.164062 100.792969 82.632812 Z M 97.210938 92.839844 L 97.210938 97.21875 L 101.800781 97.21875 L 101.800781 95.152344 L 98.675781 92.027344 C 98.203125 92.328125 97.710938 92.597656 97.210938 92.839844 Z M 108.089844 91.796875 L 112.679688 96.390625 L 112.679688 72.953125 L 108.089844 72.953125 Z M 107.785156 101.136719 L 75.445312 101.136719 L 75.445312 103.113281 L 109.761719 103.113281 Z M 79.78125 79.292969 C 79.945312 78.976562 80.039062 78.617188 80.039062 78.234375 C 80.039062 77.960938 79.992188 77.703125 79.902344 77.460938 C 79.808594 78.066406 79.769531 78.679688 79.78125 79.292969 Z M 88.625 74.886719 C 89.890625 74.886719 90.917969 73.859375 90.917969 72.59375 C 90.917969 71.324219 89.890625 70.296875 88.625 70.296875 C 87.359375 70.296875 86.328125 71.324219 86.328125 72.59375 C 86.328125 73.859375 87.359375 74.886719 88.625 74.886719 Z M 99.503906 79.253906 C 100.261719 79.253906 100.929688 78.886719 101.351562 78.320312 C 101.265625 77.132812 100.988281 75.980469 100.535156 74.90625 C 100.222656 74.75 99.875 74.660156 99.503906 74.660156 C 98.238281 74.660156 97.210938 75.691406 97.210938 76.957031 C 97.210938 78.222656 98.238281 79.253906 99.503906 79.253906 Z M 110.386719 61.980469 C 109.121094 61.980469 108.089844 63.011719 108.089844 64.277344 C 108.089844 65.542969 109.121094 66.570312 110.386719 66.570312 C 111.652344 66.570312 112.679688 65.542969 112.679688 64.277344 C 112.679688 63.011719 111.652344 61.980469 110.386719 61.980469 Z M 103.089844 87.820312 C 102.582031 88.546875 102.003906 89.238281 101.355469 89.886719 C 100.710938 90.53125 100.019531 91.109375 99.289062 91.621094 L 101.5625 93.890625 L 105.359375 90.089844 Z M 102.070312 94.402344 L 113.527344 105.855469 C 114.113281 106.445312 114.910156 106.78125 115.707031 106.78125 C 116.40625 106.78125 117.050781 106.523438 117.523438 106.050781 C 118.570312 105.003906 118.480469 103.210938 117.328125 102.058594 L 105.871094 90.601562 Z M 80.304688 89.375 C 77.5625 86.632812 76.050781 82.984375 76.050781 79.105469 C 76.050781 75.226562 77.5625 71.578125 80.304688 68.835938 C 83.046875 66.089844 86.695312 64.582031 90.574219 64.582031 C 94.453125 64.582031 98.101562 66.089844 100.84375 68.835938 C 106.507812 74.5 106.507812 83.710938 100.84375 89.375 C 98.101562 92.117188 94.453125 93.628906 90.574219 93.628906 C 86.695312 93.628906 83.046875 92.117188 80.304688 89.375 Z M 82.425781 87.253906 C 84.601562 89.433594 87.496094 90.628906 90.574219 90.628906 C 93.652344 90.628906 96.546875 89.433594 98.726562 87.253906 C 100.902344 85.078125 102.101562 82.183594 102.101562 79.105469 C 102.101562 76.027344 100.902344 73.132812 98.726562 70.957031 C 96.546875 68.777344 93.652344 67.578125 90.574219 67.578125 C 87.496094 67.578125 84.601562 68.777344 82.425781 70.957031 C 77.933594 75.449219 77.933594 82.761719 82.425781 87.253906 Z M 82.425781 87.253906 " fill-opacity="1" fill-rule="nonzero"/></g><g fill="#e9c46a" fill-opacity="1"><g transform="translate(3.849954, 48.449486)"><g><path d="M 21.734375 0 L 14.171875 -13.71875 L 12.0625 -13.71875 L 12.0625 0 L 3.203125 0 L 3.203125 -36.328125 L 18.0625 -36.328125 C 20.925781 -36.328125 23.363281 -35.828125 25.375 -34.828125 C 27.394531 -33.828125 28.90625 -32.453125 29.90625 -30.703125 C 30.90625 -28.960938 31.40625 -27.023438 31.40625 -24.890625 C 31.40625 -22.472656 30.722656 -20.316406 29.359375 -18.421875 C 28.003906 -16.523438 26 -15.179688 23.34375 -14.390625 L 31.71875 0 Z M 12.0625 -19.96875 L 17.546875 -19.96875 C 19.160156 -19.96875 20.375 -20.363281 21.1875 -21.15625 C 22 -21.957031 22.40625 -23.082031 22.40625 -24.53125 C 22.40625 -25.90625 22 -26.988281 21.1875 -27.78125 C 20.375 -28.582031 19.160156 -28.984375 17.546875 -28.984375 L 12.0625 -28.984375 Z M 12.0625 -19.96875 "/></g></g></g><g fill="#e9c46a" fill-opacity="1"><g transform="translate(37.59377, 48.449486)"><g><path d="M 12.0625 -29.234375 L 12.0625 -21.890625 L 23.90625 -21.890625 L 23.90625 -15.0625 L 12.0625 -15.0625 L 12.0625 -7.09375 L 25.46875 -7.09375 L 25.46875 0 L 3.203125 0 L 3.203125 -36.328125 L 25.46875 -36.328125 L 25.46875 -29.234375 Z M 12.0625 -29.234375 "/></g></g></g><g fill="#e9c46a" fill-opacity="1"><g transform="translate(65.592854, 48.449486)"><g><path d="M 29.078125 6.203125 L 24.421875 -0.046875 C 23.046875 0.222656 21.703125 0.359375 20.390625 0.359375 C 16.972656 0.359375 13.84375 -0.429688 11 -2.015625 C 8.15625 -3.609375 5.894531 -5.828125 4.21875 -8.671875 C 2.539062 -11.515625 1.703125 -14.710938 1.703125 -18.265625 C 1.703125 -21.816406 2.539062 -25.003906 4.21875 -27.828125 C 5.894531 -30.660156 8.15625 -32.867188 11 -34.453125 C 13.84375 -36.046875 16.972656 -36.84375 20.390625 -36.84375 C 23.804688 -36.84375 26.9375 -36.046875 29.78125 -34.453125 C 32.625 -32.867188 34.863281 -30.660156 36.5 -27.828125 C 38.144531 -25.003906 38.96875 -21.816406 38.96875 -18.265625 C 38.96875 -15.160156 38.335938 -12.320312 37.078125 -9.75 C 35.816406 -7.1875 34.066406 -5.054688 31.828125 -3.359375 L 39.796875 6.203125 Z M 10.765625 -18.265625 C 10.765625 -15.054688 11.632812 -12.492188 13.375 -10.578125 C 15.113281 -8.660156 17.453125 -7.703125 20.390625 -7.703125 C 23.285156 -7.703125 25.601562 -8.664062 27.34375 -10.59375 C 29.09375 -12.53125 29.96875 -15.085938 29.96875 -18.265625 C 29.96875 -21.472656 29.09375 -24.035156 27.34375 -25.953125 C 25.601562 -27.867188 23.285156 -28.828125 20.390625 -28.828125 C 17.453125 -28.828125 15.113281 -27.875 13.375 -25.96875 C 11.632812 -24.070312 10.765625 -21.503906 10.765625 -18.265625 Z M 10.765625 -18.265625 "/></g></g></g><g fill="#e9c46a" fill-opacity="1"><g transform="translate(106.375258, 48.449486)"><g><path d="M 11.90625 -36.328125 L 11.90625 -14.59375 C 11.90625 -12.414062 12.4375 -10.738281 13.5 -9.5625 C 14.570312 -8.394531 16.144531 -7.8125 18.21875 -7.8125 C 20.289062 -7.8125 21.878906 -8.394531 22.984375 -9.5625 C 24.085938 -10.738281 24.640625 -12.414062 24.640625 -14.59375 L 24.640625 -36.328125 L 33.484375 -36.328125 L 33.484375 -14.640625 C 33.484375 -11.398438 32.789062 -8.65625 31.40625 -6.40625 C 30.03125 -4.164062 28.175781 -2.476562 25.84375 -1.34375 C 23.519531 -0.207031 20.925781 0.359375 18.0625 0.359375 C 15.195312 0.359375 12.632812 -0.195312 10.375 -1.3125 C 8.113281 -2.4375 6.328125 -4.128906 5.015625 -6.390625 C 3.703125 -8.648438 3.046875 -11.398438 3.046875 -14.640625 L 3.046875 -36.328125 Z M 11.90625 -36.328125 "/></g></g></g><g fill="#e9c46a" fill-opacity="1"><g transform="translate(142.862047, 48.449486)"><g><path d="M 12.0625 -29.234375 L 12.0625 -21.890625 L 23.90625 -21.890625 L 23.90625 -15.0625 L 12.0625 -15.0625 L 12.0625 -7.09375 L 25.46875 -7.09375 L 25.46875 0 L 3.203125 0 L 3.203125 -36.328125 L 25.46875 -36.328125 L 25.46875 -29.234375 Z M 12.0625 -29.234375 "/></g></g></g><g fill="#e9c46a" fill-opacity="1"><g transform="translate(170.861131, 48.449486)"><g><path d="M 16.359375 0.359375 C 13.703125 0.359375 11.320312 -0.0664062 9.21875 -0.921875 C 7.113281 -1.785156 5.429688 -3.0625 4.171875 -4.75 C 2.910156 -6.445312 2.242188 -8.488281 2.171875 -10.875 L 11.59375 -10.875 C 11.726562 -9.519531 12.191406 -8.488281 12.984375 -7.78125 C 13.773438 -7.082031 14.8125 -6.734375 16.09375 -6.734375 C 17.40625 -6.734375 18.441406 -7.03125 19.203125 -7.625 C 19.960938 -8.226562 20.34375 -9.066406 20.34375 -10.140625 C 20.34375 -11.035156 20.039062 -11.773438 19.4375 -12.359375 C 18.832031 -12.953125 18.085938 -13.4375 17.203125 -13.8125 C 16.328125 -14.195312 15.078125 -14.628906 13.453125 -15.109375 C 11.109375 -15.835938 9.191406 -16.5625 7.703125 -17.28125 C 6.222656 -18.007812 4.945312 -19.078125 3.875 -20.484375 C 2.8125 -21.898438 2.28125 -23.75 2.28125 -26.03125 C 2.28125 -29.414062 3.503906 -32.0625 5.953125 -33.96875 C 8.398438 -35.882812 11.59375 -36.84375 15.53125 -36.84375 C 19.53125 -36.84375 22.753906 -35.882812 25.203125 -33.96875 C 27.648438 -32.0625 28.960938 -29.398438 29.140625 -25.984375 L 19.5625 -25.984375 C 19.488281 -27.148438 19.054688 -28.066406 18.265625 -28.734375 C 17.472656 -29.410156 16.457031 -29.75 15.21875 -29.75 C 14.144531 -29.75 13.28125 -29.460938 12.625 -28.890625 C 11.96875 -28.328125 11.640625 -27.507812 11.640625 -26.4375 C 11.640625 -25.269531 12.191406 -24.359375 13.296875 -23.703125 C 14.398438 -23.046875 16.125 -22.335938 18.46875 -21.578125 C 20.820312 -20.785156 22.726562 -20.023438 24.1875 -19.296875 C 25.65625 -18.578125 26.921875 -17.523438 27.984375 -16.140625 C 29.054688 -14.765625 29.59375 -12.988281 29.59375 -10.8125 C 29.59375 -8.738281 29.066406 -6.859375 28.015625 -5.171875 C 26.960938 -3.484375 25.4375 -2.140625 23.4375 -1.140625 C 21.4375 -0.140625 19.078125 0.359375 16.359375 0.359375 Z M 16.359375 0.359375 "/></g></g></g><g fill="#e9c46a" fill-opacity="1"><g transform="translate(202.690046, 48.449486)"><g><path d="M 29.34375 -36.328125 L 29.34375 -29.234375 L 19.71875 -29.234375 L 19.71875 0 L 10.875 0 L 10.875 -29.234375 L 1.234375 -29.234375 L 1.234375 -36.328125 Z M 29.34375 -36.328125 "/></g></g></g><g fill="#e9c46a" fill-opacity="1"><g transform="translate(127.966827, 100.023781)"><g><path d="M 25.96875 -32.15625 L 25.96875 -25.890625 L 17.453125 -25.890625 L 17.453125 0 L 9.625 0 L 9.625 -25.890625 L 1.09375 -25.890625 L 1.09375 -32.15625 Z M 25.96875 -32.15625 "/></g></g></g><g fill="#e9c46a" fill-opacity="1"><g transform="translate(155.044264, 100.023781)"><g><path d="M 19.234375 0 L 12.546875 -12.140625 L 10.671875 -12.140625 L 10.671875 0 L 2.84375 0 L 2.84375 -32.15625 L 15.984375 -32.15625 C 18.523438 -32.15625 20.6875 -31.710938 22.46875 -30.828125 C 24.257812 -29.941406 25.597656 -28.726562 26.484375 -27.1875 C 27.367188 -25.644531 27.8125 -23.925781 27.8125 -22.03125 C 27.8125 -19.894531 27.207031 -17.988281 26 -16.3125 C 24.789062 -14.632812 23.007812 -13.441406 20.65625 -12.734375 L 28.078125 0 Z M 10.671875 -17.6875 L 15.53125 -17.6875 C 16.96875 -17.6875 18.046875 -18.035156 18.765625 -18.734375 C 19.484375 -19.441406 19.84375 -20.4375 19.84375 -21.71875 C 19.84375 -22.9375 19.484375 -23.894531 18.765625 -24.59375 C 18.046875 -25.300781 16.96875 -25.65625 15.53125 -25.65625 L 10.671875 -25.65625 Z M 10.671875 -17.6875 "/></g></g></g><g fill="#e9c46a" fill-opacity="1"><g transform="translate(184.916501, 100.023781)"><g><path d="M 22.859375 -5.6875 L 10.859375 -5.6875 L 8.9375 0 L 0.734375 0 L 12.375 -32.15625 L 21.4375 -32.15625 L 33.078125 0 L 24.78125 0 Z M 20.84375 -11.734375 L 16.859375 -23.5 L 12.921875 -11.734375 Z M 20.84375 -11.734375 "/></g></g></g><g fill="#e9c46a" fill-opacity="1"><g transform="translate(218.683122, 100.023781)"><g><path d="M 1.515625 -16.125 C 1.515625 -19.300781 2.203125 -22.132812 3.578125 -24.625 C 4.953125 -27.113281 6.867188 -29.050781 9.328125 -30.4375 C 11.785156 -31.832031 14.570312 -32.53125 17.6875 -32.53125 C 21.5 -32.53125 24.765625 -31.519531 27.484375 -29.5 C 30.203125 -27.488281 32.019531 -24.738281 32.9375 -21.25 L 24.328125 -21.25 C 23.679688 -22.59375 22.769531 -23.613281 21.59375 -24.3125 C 20.425781 -25.019531 19.09375 -25.375 17.59375 -25.375 C 15.175781 -25.375 13.21875 -24.535156 11.71875 -22.859375 C 10.226562 -21.179688 9.484375 -18.9375 9.484375 -16.125 C 9.484375 -13.3125 10.226562 -11.066406 11.71875 -9.390625 C 13.21875 -7.710938 15.175781 -6.875 17.59375 -6.875 C 19.09375 -6.875 20.425781 -7.222656 21.59375 -7.921875 C 22.769531 -8.628906 23.679688 -9.65625 24.328125 -11 L 32.9375 -11 C 32.019531 -7.507812 30.203125 -4.765625 27.484375 -2.765625 C 24.765625 -0.765625 21.5 0.234375 17.6875 0.234375 C 14.570312 0.234375 11.785156 -0.457031 9.328125 -1.84375 C 6.867188 -3.238281 4.953125 -5.171875 3.578125 -7.640625 C 2.203125 -10.117188 1.515625 -12.945312 1.515625 -16.125 Z M 1.515625 -16.125 "/></g></g></g><g fill="#e9c46a" fill-opacity="1"><g transform="translate(253.595149, 100.023781)"><g><path d="M 21.484375 0 L 10.671875 -14.203125 L 10.671875 0 L 2.84375 0 L 2.84375 -32.15625 L 10.671875 -32.15625 L 10.671875 -18.046875 L 21.390625 -32.15625 L 30.609375 -32.15625 L 18.140625 -16.40625 L 31.0625 0 Z M 21.484375 0 "/></g></g></g><g fill="#e9c46a" fill-opacity="1"><g transform="translate(285.52913, 100.023781)"><g><path d="M 10.671875 -32.15625 L 10.671875 0 L 2.84375 0 L 2.84375 -32.15625 Z M 10.671875 -32.15625 "/></g></g></g><g fill="#e9c46a" fill-opacity="1"><g transform="translate(299.044942, 100.023781)"><g><path d="M 31.609375 0 L 23.78125 0 L 10.671875 -19.84375 L 10.671875 0 L 2.84375 0 L 2.84375 -32.15625 L 10.671875 -32.15625 L 23.78125 -12.234375 L 23.78125 -32.15625 L 31.609375 -32.15625 Z M 31.609375 0 "/></g></g></g><g fill="#e9c46a" fill-opacity="1"><g transform="translate(333.498806, 100.023781)"><g><path d="M 24.1875 -21.984375 C 23.601562 -23.054688 22.769531 -23.875 21.6875 -24.4375 C 20.601562 -25 19.328125 -25.28125 17.859375 -25.28125 C 15.328125 -25.28125 13.296875 -24.445312 11.765625 -22.78125 C 10.242188 -21.125 9.484375 -18.90625 9.484375 -16.125 C 9.484375 -13.164062 10.285156 -10.851562 11.890625 -9.1875 C 13.492188 -7.519531 15.703125 -6.6875 18.515625 -6.6875 C 20.429688 -6.6875 22.050781 -7.175781 23.375 -8.15625 C 24.707031 -9.132812 25.679688 -10.539062 26.296875 -12.375 L 16.359375 -12.375 L 16.359375 -18.140625 L 33.390625 -18.140625 L 33.390625 -10.859375 C 32.816406 -8.898438 31.832031 -7.082031 30.4375 -5.40625 C 29.050781 -3.726562 27.285156 -2.367188 25.140625 -1.328125 C 23.003906 -0.285156 20.59375 0.234375 17.90625 0.234375 C 14.726562 0.234375 11.894531 -0.457031 9.40625 -1.84375 C 6.925781 -3.238281 4.988281 -5.171875 3.59375 -7.640625 C 2.207031 -10.117188 1.515625 -12.945312 1.515625 -16.125 C 1.515625 -19.300781 2.207031 -22.132812 3.59375 -24.625 C 4.988281 -27.113281 6.921875 -29.050781 9.390625 -30.4375 C 11.867188 -31.832031 14.691406 -32.53125 17.859375 -32.53125 C 21.710938 -32.53125 24.957031 -31.597656 27.59375 -29.734375 C 30.238281 -27.867188 31.988281 -25.285156 32.84375 -21.984375 Z M 24.1875 -21.984375 "/></g></g></g></svg>