<svg xmlns="http://www.w3.org/2000/svg" xmlns:xlink="http://www.w3.org/1999/xlink" width="500" zoomAndPan="magnify" viewBox="0 0 375 374.999991" height="500" preserveAspectRatio="xMidYMid meet" version="1.0"><defs><clipPath id="0d58998969"><path d="M 42.367188 42.367188 L 332.617188 42.367188 L 332.617188 332.617188 L 42.367188 332.617188 Z M 42.367188 42.367188 " clip-rule="nonzero"/></clipPath><clipPath id="09b249c505"><path d="M 79 211 L 296 211 L 296 332.617188 L 79 332.617188 Z M 79 211 " clip-rule="nonzero"/></clipPath></defs><g clip-path="url(#0d58998969)"><path fill="#e76f51" d="M 332.640625 187.503906 C 332.640625 224.636719 318.710938 258.5 295.765625 284.164062 C 269.195312 313.917969 230.539062 332.640625 187.507812 332.640625 C 144.472656 332.640625 105.808594 313.917969 79.25 284.164062 C 56.304688 258.5 42.371094 224.636719 42.371094 187.503906 C 42.371094 107.351562 107.34375 42.371094 187.507812 42.371094 C 267.65625 42.371094 332.640625 107.351562 332.640625 187.503906 " fill-opacity="1" fill-rule="nonzero"/></g><path fill="#f2f2f2" d="M 187.507812 214.238281 C 213.8125 214.238281 237.769531 184.480469 237.769531 151.800781 C 237.769531 120.925781 231.800781 90.394531 187.507812 90.394531 C 143.210938 90.394531 137.238281 120.925781 137.238281 151.800781 C 137.238281 184.480469 161.199219 214.238281 187.507812 214.238281 " fill-opacity="1" fill-rule="nonzero"/><g clip-path="url(#09b249c505)"><path fill="#f2f2f2" d="M 295.765625 284.164062 C 269.195312 313.917969 230.539062 332.640625 187.507812 332.640625 C 144.472656 332.640625 105.808594 313.917969 79.25 284.164062 C 78.789062 266.238281 90.726562 224.707031 151.609375 211.925781 C 162.023438 222.554688 174.84375 228.566406 187.507812 228.566406 C 200.167969 228.566406 212.980469 222.554688 223.390625 211.925781 C 284.289062 224.707031 296.214844 266.238281 295.765625 284.164062 " fill-opacity="1" fill-rule="nonzero"/></g></svg>